<svg version="1.2" baseProfile="tiny-ps" xmlns="http://www.w3.org/2000/svg" viewBox="0 0 490 410" width="490" height="410">
	<title>chinese zodiac (1)-ai</title>
	<style>
		tspan { white-space:pre }
		.s0 { fill: #000000 } 
		.s1 { fill: #ff0000 } 
	</style>
	<g id="Layer 1">
		<g id="&lt;Group&gt;">
			<path id="&lt;Path&gt;" class="s0" d="m303.56 124.37c-5.05-12.56-19.9-35.6-38.92-49.8c-2.8-5.29-4.87-9.49-5.81-11.72c-3-7.17-2.41-10.22 1.77-9.14c6.43 3.36 12.22 7.74 17.28 12.92c14.66 14.97 25.76 36.38 25.67 57.74z" />
			<path id="&lt;Path&gt;" class="s1" d="m162.05 231.09c-3.49 7.22-5.22 15.32-4.97 23.35c-1.02 0.22-1.9 0.39-2.5 0.44c-5.04 0.33-10.05-0.06-14.18-3.22c-7.3-5.59-11.72-15.77-7.76-24.53c5.39-11.93 21.45-12.88 27.35-1.32c0.73 1.43 1.58 2.96 2.43 4.55c-0.13 0.24-0.25 0.48-0.36 0.73z" />
			<path id="&lt;Path&gt;" class="s0" d="m261.49 352.85c-6.52 3.55-15.38-1.58-21.61-3.7c-4.84-1.65-14.06-4.43-15.31-10.34c-1.19-5.64-7.42-13.95-18.69-24.92c-0.63-2-1.39-4.49-2.3-7.49c9.88-4.62 15.39-12.66 16.54-24.11c2.24 0 5.67-2.59 7.49-3.62c2.91-1.64 5.5-3.49 7.85-5.66c0.54 4.61 1.11 9.23 0.82 13.88c-0.41 6.42-3.55 12.06-6.44 17.65c-2.09 4.03 1.65 8.42 3.51 12.04c2.38 4.63 4.9 9.34 8.84 12.85c5.13 4.57 12.33 5.99 18.59 8.35c7.42 2.8 7.37 11.44 0.71 15.06z" />
			<path id="&lt;Path&gt;" class="s0" d="m358.88 223.83c-0.79 2.04-2.18 3.44-3.91 4.36c-0.66 0.35-1.37 0.62-2.11 0.84c-5.32 1.53-12.5-0.15-16.54-2.07c-1.04-0.49-2.18-1.03-3.16-1.62c-2.37-0.22-5.23-0.49-8.56-0.81c-3.92-7.11-9.71-12.4-14.14-12.98c-4.45-0.6-11.72 1.4-21.81 5.97l-2.5-11.54c1.86-2.85 3.66-5.55 5.26-7.89l7.91 10.11c12.46-2.23 21.66-2.23 27.59 0c9.48 3.58 19.84 4.26 28.97 8.9c2.61 1.33 4.09 3.93 2.99 6.75z" />
			<path id="&lt;Path&gt;" class="s0" d="m336.98 180.12c-0.27 1.2-0.72 2.33-1.41 3.35c-0.7 1.02-1.63 1.92-2.86 2.69c-1.48 0.93-3.96 1.93-6.71 2.69c-0.48 0.14-0.98 0.26-1.47 0.38c-3.46 0.81-7.12 1.18-9.61 0.5c-4.89-1.34-12.9-3.12-17.36 0.44c-1.17 0.93-3.39 3.91-6.13 7.9c-1.6 2.34-3.4 5.04-5.26 7.89l2.5 11.54c10.09-4.58 17.36-6.57 21.81-5.97c4.43 0.59 10.22 5.88 14.14 12.98c2 3.61 3.51 7.7 4.11 11.87c0.94 6.49-1.67 9.5-4.37 10.88c-0.65 0.34-1.3 0.59-1.92 0.76h-0.01c-1.13 0.32-2.14 0.47-3.05 0.44c-0.88-0.06-1.71-0.23-2.49-0.5c-0.93-0.31-1.79-0.75-2.59-1.3c-5.55-3.83-8.75-11.54-9.61-23.12c-15.13 10.38-24.92 14.66-29.37 12.84c-1.91-0.78-3.6-3.12-5.08-6.29c-0.98 1.37-1.82 2.47-2.48 3.24c-9.76 11.27-18.52 23.35-27.87 34.97c-1.39 1.72-2.84 3.29-4.41 4.71c-2.35 2.16-4.94 4.02-7.85 5.66c-1.82 1.02-5.25 3.62-7.49 3.62c-1.15 11.45-6.66 19.48-16.54 24.11c-0.27 0.13-0.54 0.25-0.82 0.37c-15.58 6.68-33.38 7.12-36.05 8.01c-2.76 14.54-5.68 24.63-8.75 30.27c-4.33 7.94-10.6 15.1-18.98 12.98c-0.43-0.11-0.86-0.24-1.29-0.4c-0.12-0.04-0.23-0.08-0.35-0.13c-1.41-0.54-2.48-1.18-3.29-1.88c-0.39-0.35-0.71-0.7-0.98-1.08c-2.82-3.96 0.81-9.67 4.27-14.84c4.45-6.67 17.8-23.59 17.8-37.38c5.63 0 9.94-1.34 12.9-4.01c5.29-4.77-3.32-19.53-5.77-23.96c-1.09-1.97-1.99-4.03-2.73-6.16c-1.52-4.43-2.33-9.08-2.48-13.75c-0.25-8.04 1.48-16.13 4.97-23.35c0.12-0.25 0.24-0.49 0.36-0.73c6.47-12.87 16.8-19.87 28.82-27.28c13.89-8.55 27.98-16.79 41.94-25.24c6.99-4.22 14.12-8.22 21.08-12.49c7.35-4.52 14.53-10.08 19.96-17.07c3.52-4.52 6.52-9.45 10.74-13.39c2.23-2.08 4.73-3.73 7.45-4.9c-34.83-12.66-49.08-45.53-52.71-56.42c-2.67-8.01-2.67-11.57 0-10.68c8.75 1.55 17.19 5.88 24.94 11.67c19.01 14.2 33.87 37.24 38.92 49.8c0.52 1.3 0.94 2.48 1.24 3.53c2.89 0.08 5.94 0.41 8.53 1.21c3.97 1.22 8.9 3.68 11.8 6.72c6.78 7.12 7.75 16.74 9.29 25.97c0.88 5.27 3.83 12.62 2.56 18.33z" />
			<path id="&lt;Path&gt;" class="s1" d="m243.3 70.99c0.2-0.07 0.74 0.35 1 0.6c0.24 0.23 0.48 0.47 0.72 0.7c0.6 0.58 1.2 1.16 1.8 1.74c1.6 1.54 3.2 3.09 4.79 4.63c2.01 1.95 4.02 3.89 6.03 5.84c2.28 2.21 4.56 4.42 6.83 6.64c2.41 2.34 4.8 4.68 7.2 7.03c2.39 2.33 4.77 4.67 7.14 7.01c2.22 2.19 4.44 4.38 6.65 6.58c1.92 1.91 3.82 3.82 5.72 5.73c1.47 1.48 2.93 2.97 4.36 4.48c0.88 0.92 1.77 1.84 2.57 2.82c0.11 0.13 0.22 0.27 0.32 0.41c0.27 0.37 0.33 0.73-0.17 0.86c-0.74 0.18-1.73-0.19-2.41-0.41c-1.47-0.46-2.89-1.08-4.28-1.75c-1.97-0.94-3.88-2-5.74-3.14c-2.34-1.42-4.62-2.96-6.82-4.59c-2.6-1.92-5.1-3.96-7.51-6.11c-2.73-2.43-5.33-5-7.81-7.68c-2.74-2.96-5.31-6.07-7.72-9.31c-2.62-3.52-5.04-7.2-7.24-11c-1.04-1.79-2.02-3.61-2.96-5.46c-0.49-0.96-0.96-1.92-1.42-2.89c-0.34-0.72-0.71-1.44-1.01-2.18c-0.15-0.36-0.13-0.51-0.03-0.55z" />
			<path id="&lt;Path&gt;" class="s1" d="m336.98 180.12c-0.27 1.2-0.72 2.33-1.41 3.35c-0.16-0.13-0.33-0.28-0.51-0.45c-3.49-3.38-4.21 1.02-6.79-2.53c-0.86-1.18-1.16-2.62-0.36-3.9c0.4-0.64 1.33-1.77 2.18-1.53c0.79 0.23 1.84 1.36 2.52 1.86c1.46 1.07 2.91 2.14 4.37 3.21z" />
			<path id="&lt;Path&gt;" class="s1" d="m325.99 188.85c-0.48 0.14-0.98 0.26-1.47 0.38c-1.72-1.42-3.78-2.94-4.73-5.01c-0.19-0.42-1.11-2.89-0.4-2.95c0.36-0.02 0.99 2.09 1.09 2.36c0.56 1.46 1.58 2.79 2.89 3.7c0.41 0.28 2.13 1.66 2.63 1.52z" />
			<path id="&lt;Path&gt;" class="s1" d="m314.51 149.87c1.75 0.62 2.87 2.14 3.06 3.95c0.21 1.98-1.14 3.68-2.86 4.5c-1.79 0.84-3.95 0.47-5.25-1.1c-1.46-1.76-1.87-4.34-0.21-6.12c0.54-0.57 1.58-1.31 2.37-1.45c0.88-0.15 2.04-0.08 2.89 0.21z" />
			<path id="&lt;Path&gt;" class="s0" d="m315.09 152.81c0.34 1.1-0.64 1.82-1.67 1.74c-1.15-0.09-2.38-0.97-1.43-2.16c0.82-1.02 2.7-0.85 3.1 0.42z" />
		</g>
	</g>
</svg>