<svg version="1.2" baseProfile="tiny-ps" xmlns="http://www.w3.org/2000/svg" viewBox="0 0 550 510" width="550" height="510">
	<title>Western zodiac-ai</title>
	<style>
		tspan { white-space:pre }
		.s0 { fill: #e44044 } 
	</style>
	<g id="Layer 1">
		<path id="&lt;Compound Path&gt;" fill-rule="evenodd" class="s0" d="m178.66 323.48c-38.81-2.17-90.44-34.63-90.44-125.33c0-39.05 27.71-105.81 100.06-117.82c33.19-5.51 60.35-2.19 108.45 45.92c-5.25 34.11-24.49 52.33-57.73 54.66c-30.11-34.98-60.72-34.4-91.84 1.75c-16.11 18.71-22.74 76.97 32.8 93.15c13.38 3.9 34.98 4.8 52.92-13.56c5.96-6.1 13.7-28.09-22.53-34.42c37.87-11.96 56.03 1.41 54.46 40.11c-1.12 27.53-31.49 58.6-86.15 55.54zm240.29-31.65c18.13-0.23 31.21 0.1 40.56 1.93c-3.33 11.27-8.98 15.3-16.38 15.86c-14.17 1.07-19.92 3.86-25.51 8.7c-23.4 20.28-37.5 20.25-52.18 19.13c-63.11-4.79-61.28 3.76-74.79 17.39c-18.77 18.93-27.46 44.44-26.09 76.53c-77.11 13.91-146.55-84.79-132.77-98.56c1.25-1.25 3.2-4.41 5.51-9.11c12.92 7.77 26.82 12.14 40.64 12.91c2.73 0.15 5.47 0.23 8.14 0.23c56.84 0 91.37-34.93 91.9-68.69c0.28-17.91-4.32-31.81-13.68-41.33c-8.24-8.37-13.3-9.89-20.31-11.91c-5.94-0.97-12.55-0.94-19.83 0.1c-15.58 2.72-25.64 8.37-30.09 11.37c0 0 0.01 0 0.01 0c-2.72 2.04-5.26 4.39-7.5 7.14c25.98-1.25 39.6 2.97 40.85 12.68l0.04-0.08c-0.07 2.62-2.06 4.98-3.97 6.94c-7.7 7.89-16.97 11.89-27.53 11.89c-5.13 0-9.52-0.97-12.3-1.77c-10.44-3.04-18.57-7.91-24.36-14.51c0.31-2.09 0.62-4.19 0.89-6.31c0.97-7.55 2.1-14.61 3.38-21.2c-8.19-7.72-14.83-17.99-17.86-31.72c8.13-7.5 18.98-12.62 32.53-15.34c6.8-1.5 9.65-1.79 14.01-1.99c14.53-0.65 30.87 5.34 49.02 17.97c43.76-3.07 62.07-34.58 67.34-56.21c0.83 1 1.61 1.99 2.33 2.97c21 28.48 37.66 33.4 53.92 40.59c26.94 11.9 39.61 21.16 47.09 33.31c10.08 16.38 16.24 20.34 22.48 24.08c20.29 12.18 28.6 19.55 28.41 30.73c-0.15 8.85-0.4 11.48-1.45 17.28c-19.4-1.77-59.6 9.22-42.44 9zm40.58 1.93c-0.01 0-0.01 0-0.02 0c0.04-0.15 0.09-0.28 0.13-0.43c-0.04 0.14-0.07 0.3-0.11 0.43zm-14.15-28.44c3.84 2.32 8.02 2.43 9.35 0.24c1.33-2.19-0.71-5.85-4.54-8.17c-3.84-2.32-8.02-2.43-9.34-0.24c-1.33 2.19 0.7 5.85 4.54 8.17zm-216.81-69.72c-33.41-23-61.44-5.47-66.55-1.87c28.5-2.05 50.28 4.18 63.24 9.57c1.28-3.68 2.38-6.25 3.31-7.7zm116 21.83c-14.3-15.07-28.41-15.27-42.32-0.58c15.07 14.69 29.18 14.88 42.32 0.58z" />
	</g>
</svg>