<svg version="1.2" baseProfile="tiny-ps" xmlns="http://www.w3.org/2000/svg" viewBox="0 0 550 510" width="550" height="510">
	<title>Western zodiac-ai</title>
	<style>
		tspan { white-space:pre }
		.s0 { fill: #e44044 } 
	</style>
	<g id="Layer 1">
		<path id="Taurus" fill-rule="evenodd" class="s0" d="m213.17 213.6c-18.05-19.06-22.61-80.19 17.28-102.92c64.67-36.84 115-45.13 117.38-68.96c1.89-18.87 34.47 29.67-16.6 53.22c-28.51 13.15-79.78 34.94-76.71 59.93c1.06 8.65 15.58 23.37 34.81 1.97c8.34-2.57 33.3 31.14 11.73 54.52c-36.26 25.08-65.55 25.83-87.89 2.25zm227.61 114.01c-5.56 20.16-15.73 15.09-25.16 16.98c-15.32 3.06-31.69 9.67-42.14 6.29c-19.5-6.29-23.37 1.4-30.19 6.92c-16.36 13.21-54.18 3.35-76.12 11.32c-6.92 2.51-20.13 19.5-56.61 30.82c-11 3.41-17.92 16.41-20.76 39c-88.91-51.16-117.63-150.97-86.18-299.43c8.18 4.4 37.93 4.77 50.32 2.51c17.27-3.16 31.67-5.55 44.12-7.35c-2.76 6.39-4.83 13.21-6.11 20.39c-4.24 23.87 0.52 48.93 12.11 63.84c9.95 12.79 24.6 19.55 42.37 19.55c29.13 0 58.65-18.2 59.9-18.98l2.59-1.62l1.61-2.59c8.6-13.8 11.26-27.26 7.89-39.99c-4.86-18.37-20.46-27.27-22.22-28.22c-4.67-3.93-7.57-5.33-8.71-4.19c-2.99 3-10.79 16.78-19.78 10.79c-4.99-6.56 1.18-14.71 12.01-22.79c56.21 6.33 76.86 46.53 84.33 74.06c10.07 37.11 41.52 58.09 62.9 68.57c29.08 14.25 17.44 41.04 13.84 54.1zm-96.8-85.32c-7.06-1.23-11.29-9.44-19.5-9.44c-11.43 0-14.41 10.79-20.37 11.18c7.96 1.6 12.67 9.7 20.88 9.45c7.46-0.23 12.92-8.45 18.99-11.2zm89.78 45.24c-2.51-3.13-10.15-7.54-17.75-11.47c-11.72-6.05-31.57 6.63-10.73 15.54c6.72 2.87 27.24 3.04 20.72 14.8c-1.48 2.66-4.99 6.39-1.85 13.32c2.31 5.11 3.15 14.67-18.87 12.58c-15.66-1.49-49.86 7.12-33.95 7.12c25.21 0 45.88-2.52 49.12-2.68c7.4-0.37 11.84 0.37 16.64-29.59c1.3-8.12 0.44-14.91-3.33-19.6z" />
	</g>
</svg>