<svg version="1.2" baseProfile="tiny-ps" xmlns="http://www.w3.org/2000/svg" viewBox="0 0 490 409" width="490" height="409">
	<title>chinese zodiac (1)-ai</title>
	<style>
		tspan { white-space:pre }
		.s0 { fill: #000000 } 
		.s1 { fill: #ff0000 } 
	</style>
	<g id="Layer 1">
		<g id="&lt;Group&gt;">
			<g id="&lt;Group&gt;">
				<path id="&lt;Path&gt;" class="s0" d="m345.28 292.35c-1.96 2.76-13.19 5.01-16.3 3.82c-3.43-1.3-4.07-6.49-6.51-9.8c-2.48-3.36-5.7-6.34-9.41-8.3c-3.9-2.06-7.62-4.39-11.22-6.92c-7.56-5.33-6.05-4.47-13.52-9.91c-6.09-4.44-12.47-8.72-17.29-14.6c-3.92-4.79-5.22-10.69-7.63-16.25c-2.29-5.3-4.5-10.63-6.76-15.94c-0.5-1.17-1.01-2.32-1.5-3.48c-0.07 0.04-0.14 0.08-0.21 0.13c-24.33 14.78-56.18 25.29-74.57 29.07c-0.51 0.11-1.01 0.21-1.5 0.3c-4.7 0.91-8.39 1.33-10.7 1.24c-0.04 0-0.08 0-0.13 0.01c-2.98 6.2-6.65 14.26-9.09 21.39c-0.55 1.62-1.04 3.19-1.44 4.69c-3.73 13.85-23.96 37.81-23.96 47.4c0 9.58 13.31 16.5 18.11 21.29c1.19 1.19 2.81 2.38 4.4 3.51c2.07 1.46 6.84 3.97 3.57 6.56c-3.05 2.41-8.15 1.7-11.72 1.75c-1.97 0.03-3.98 0.76-5.95 0.41c-1.65-0.29-2.93-1.54-4.58-1.79c-1.26-0.19-2.49 0.7-3.71 0.23c-1.25-0.48-2.51-2.56-3.38-3.52c-2.56-2.84-5.12-5.7-8.06-8.16c-0.82-0.69-1.67-1.42-2.52-2.2c-16.51-14.9-5.86-22.89 3.72-43.13c6.39-13.49 9.94-22.36 10.65-26.62c0.23-1.38-1.17-4.15-1.54-5.53c-0.54-2.04-1.04-4.09-1.5-6.15c-0.9-4.03-1.66-8.08-2.23-12.17c-1.09-7.85-1.49-16.26-0.4-24.34c0.43-3.19 1.1-6.33 2.04-9.37c2.03-6.56 5.37-12.61 10.49-17.62c3.81-3.72 8.61-7.59 13.37-10.02c15.8-8.06 33.38-11.19 50.35-15.78c16.11-4.35 31.25-12.21 45.42-20.9c10.22-6.27 24.3-9.24 25.49-23.17c0.44-5.2 1.2-10.62 3.35-15.5c4.76-10.8 11.83-19.65 24.32-21.76c1.04-0.17 2.09-0.29 3.17-0.34c11.25-0.53 18.73 3.38 23.86 8.35c5.06 4.9 7.84 10.85 9.69 14.54c0.27 0.55 0.46 1.14 0.58 1.77c-7.23 1.14-24.73 5.46-33.05 20.88c-9.96 18.45-2.96 33.54 2.28 41.54c-0.13-0.19-4.64 0.62-5.15 0.66c-2.94 0.23-5.86 0.19-8.8 0.34c-0.93 0.05-1.38-0.01-1.79 0.78c-1.32 2.55-1.56 5.61-2.7 8.27c-1.18 2.74-2.66 5.38-4.71 7.57c-3.87 4.12-8.02 7.96-12.35 11.59l2.16 6.15c3.37 9.6 7.05 19.14 10.07 28.87c1.77 5.74 4.14 10.87 8.66 14.94c3.64 3.27 7.77 5.93 11.69 8.86c6.28 4.67 3.41 3.36 9.99 7.5c6.42 4.04 14.87 5.49 20.71 10.37c3.85 3.22 11.48 13.21 7.73 18.48z" />
				<path id="&lt;Compound Path&gt;" fill-rule="evenodd" class="s0" d="m143.08 349.82c-0.44 0-0.87-0.03-1.31-0.11c-0.96-0.17-1.76-0.59-2.54-0.99c-0.69-0.36-1.34-0.7-2.01-0.8c-0.41-0.06-0.82 0.05-1.29 0.16c-0.79 0.19-1.8 0.34-2.62 0.02c-1.17-0.45-2.15-1.72-3.01-2.84c-0.27-0.36-0.53-0.69-0.75-0.94l-0.33-0.37c-2.39-2.65-4.87-5.39-7.63-7.7c-0.83-0.69-1.69-1.44-2.55-2.22c-13.77-12.43-9.16-20.79-2.18-33.45c1.76-3.19 3.75-6.8 5.67-10.85c9.36-19.76 10.56-26.3 10.57-26.36c0.11-0.68-0.51-2.31-0.92-3.39c-0.25-0.66-0.48-1.26-0.6-1.71c-0.55-2.05-1.04-4.12-1.51-6.19c-0.96-4.31-1.7-8.32-2.24-12.25c-1.25-8.99-1.39-17.27-0.4-24.61c0.45-3.34 1.15-6.55 2.07-9.53c2.22-7.17 5.84-13.24 10.75-18.04c4.49-4.38 9.33-8 13.61-10.19c12.27-6.26 25.76-9.61 38.81-12.85c3.93-0.98 7.85-1.95 11.74-3c13.72-3.7 28.07-10.31 45.15-20.78c2.4-1.47 5.02-2.77 7.56-4.03c8.53-4.22 16.58-8.21 17.45-18.37c0.42-4.93 1.16-10.66 3.43-15.82c5.88-13.35 13.85-20.45 25.07-22.35c1.06-0.18 2.17-0.3 3.29-0.36c0.71-0.03 1.41-0.05 2.09-0.05c9 0 16.58 2.92 22.52 8.69c4.85 4.7 7.66 10.33 9.51 14.06l0.38 0.75c0.32 0.64 0.54 1.33 0.67 2.05l0.17 1l-1 0.16c-7.01 1.11-24.2 5.31-32.33 20.37c-7.28 13.49-6.53 27.12 2.23 40.52l-0.84 0.55l-0.16 0.97c0 0 0 0 0 0c-0.5 0-2.35 0.3-3.46 0.47c-0.71 0.11-1.28 0.2-1.45 0.21c-1.78 0.14-3.56 0.18-5.28 0.22c-1.18 0.03-2.36 0.06-3.55 0.12l-0.24 0.01c-0.23 0.01-0.52 0.02-0.6 0.06c0 0-0.04 0.04-0.11 0.17c-0.67 1.29-1.05 2.75-1.44 4.28c-0.34 1.3-0.68 2.65-1.23 3.92c-1.4 3.27-3.01 5.84-4.9 7.86c-3.55 3.78-7.56 7.55-11.91 11.22l1.94 5.5c1.06 3.01 2.15 6.02 3.23 9.03c2.35 6.48 4.77 13.18 6.85 19.87c1.47 4.77 3.62 10.22 8.38 14.49c2.5 2.25 5.3 4.25 8.02 6.19c1.21 0.86 2.41 1.72 3.6 2.61c2.67 1.99 3.74 2.93 4.52 3.62c1.04 0.92 1.66 1.47 5.41 3.83c2.7 1.7 5.86 2.96 8.92 4.19c4.16 1.66 8.46 3.39 11.9 6.26c4.06 3.39 12.11 13.92 7.9 19.83c-1.88 2.65-10.04 4.57-14.62 4.57c-1.21 0-2.17-0.13-2.85-0.39c-2.55-0.97-3.73-3.63-4.87-6.19c-0.62-1.38-1.25-2.82-2.09-3.95c-2.54-3.44-5.67-6.21-9.07-8.01c-3.76-1.99-7.47-4.28-11.33-6.99c-4.39-3.09-5.71-4.09-7.53-5.47c-1.31-0.99-2.85-2.16-6-4.45l-2.21-1.6c-5.38-3.88-10.94-7.9-15.26-13.17c-2.9-3.54-4.42-7.68-5.9-11.69c-0.59-1.59-1.19-3.23-1.87-4.81c-1.51-3.49-2.99-7-4.46-10.5l-3.34-7.86c-23.49 14.09-54.78 24.75-74.11 28.73c-0.41 0.09-0.83 0.17-1.24 0.25l-0.27 0.05c-4.4 0.85-8.01 1.31-10.4 1.27c-3.91 8.18-6.86 15.14-8.77 20.71c-0.57 1.67-1.04 3.22-1.42 4.62c-1.81 6.72-7.32 15.62-12.66 24.22c-5.54 8.93-11.27 18.17-11.27 22.92c0 6.65 7.07 12.06 12.75 16.41c2.04 1.56 3.8 2.91 5.06 4.18c1.15 1.15 2.73 2.31 4.27 3.4c0.24 0.17 0.52 0.35 0.82 0.55c1.87 1.24 4.2 2.78 4.29 4.85c0.04 1.01-0.46 1.94-1.49 2.76c-2.83 2.24-6.87 2.07-10.16 2c-0.6-0.01-1.19-0.03-1.74-0.03l-0.42 0c-0.71 0.01-1.43 0.12-2.2 0.24c-0.85 0.13-1.73 0.27-2.63 0.27zm-6.09-3.91c0.18 0 0.35 0.01 0.53 0.04c1 0.15 1.83 0.58 2.63 1c0.67 0.35 1.31 0.68 1.96 0.79c1.07 0.19 2.13 0.02 3.29-0.16c0.8-0.12 1.63-0.25 2.48-0.26l0.45 0c0.57 0 1.17 0.01 1.79 0.03c2.95 0.07 6.6 0.23 8.88-1.57c0.5-0.4 0.75-0.77 0.73-1.11c-0.05-1.05-2.14-2.44-3.39-3.27c-0.32-0.21-0.61-0.41-0.87-0.58c-1.61-1.14-3.28-2.36-4.53-3.62c-1.18-1.18-2.97-2.55-4.87-4c-6.03-4.62-13.53-10.36-13.53-18c0-5.32 5.62-14.38 11.57-23.97c5.26-8.48 10.69-17.25 12.43-23.68c0.38-1.44 0.88-3.04 1.46-4.75c1.98-5.77 5.05-13 9.14-21.5l0.22-0.46l0.81-0.12c0.25 0.01 0.46 0.01 0.69 0.01c2.26 0 5.66-0.43 9.83-1.23l0.27-0.05c0.4-0.08 0.8-0.16 1.21-0.25c19.39-3.99 50.89-14.75 74.26-28.95c0.05-0.04 0.14-0.09 0.23-0.15l0.97-0.55l4.24 9.96c1.47 3.5 2.95 7 4.45 10.48c0.7 1.63 1.32 3.3 1.91 4.91c1.48 4.03 2.88 7.83 5.57 11.11c4.16 5.07 9.61 9.01 14.89 12.82l2.22 1.61c3.16 2.3 4.71 3.48 6.03 4.47c1.81 1.37 3.12 2.36 7.48 5.43c3.79 2.66 7.42 4.91 11.11 6.86c3.66 1.94 7.03 4.91 9.75 8.59c0.96 1.31 1.64 2.84 2.3 4.32c1.02 2.29 1.98 4.46 3.76 5.14c0.25 0.1 0.87 0.26 2.14 0.26c4.74 0 11.78-2.02 12.99-3.73c3.13-4.39-3.35-13.62-7.56-17.13c-3.2-2.67-7.35-4.33-11.36-5.94c-3.14-1.26-6.39-2.56-9.24-4.35c-3.88-2.44-4.56-3.04-5.67-4.03c-0.79-0.7-1.78-1.58-4.38-3.51c-1.18-0.88-2.37-1.73-3.57-2.59c-2.76-1.97-5.6-4.01-8.19-6.33c-5.12-4.6-7.4-10.36-8.95-15.39c-2.06-6.64-4.48-13.32-6.82-19.78c-1.09-3.01-2.18-6.03-3.24-9.05l-2.4-6.8l0.53-0.45c4.5-3.75 8.62-7.63 12.26-11.5c1.73-1.84 3.2-4.22 4.52-7.28c0.49-1.13 0.8-2.35 1.13-3.63c0.41-1.58 0.83-3.21 1.6-4.7c0.64-1.23 1.57-1.27 2.4-1.31l0.23-0.01c1.2-0.06 2.4-0.09 3.6-0.12c1.7-0.04 3.46-0.08 5.18-0.22c0.16-0.01 0.66-0.1 1.28-0.2c0.83-0.13 1.59-0.25 2.21-0.34c-8.21-13.45-8.71-27.64-1.42-41.14c8.15-15.1 24.82-19.8 32.68-21.21c-0.07-0.18-0.14-0.36-0.23-0.53l-0.38-0.75c-1.79-3.6-4.5-9.05-9.11-13.51c-5.55-5.39-12.66-8.12-21.13-8.12c-0.65 0-1.31 0.02-1.99 0.05c-1.04 0.05-2.07 0.16-3.05 0.33c-10.5 1.77-17.99 8.5-23.58 21.18c-2.16 4.89-2.86 10.42-3.27 15.18c-0.96 11.28-9.91 15.71-18.55 19.99c-2.5 1.24-5.09 2.52-7.41 3.94c-17.26 10.58-31.77 17.25-45.68 21.01c-3.9 1.05-7.84 2.03-11.78 3.01c-12.94 3.21-26.31 6.54-38.38 12.69c-4.11 2.1-8.78 5.6-13.13 9.84c-4.67 4.57-8.12 10.35-10.24 17.2c-0.89 2.88-1.57 5.97-2 9.21c-0.96 7.15-0.83 15.25 0.4 24.07c0.54 3.88 1.26 7.83 2.21 12.09c0.46 2.05 0.95 4.09 1.49 6.11c0.11 0.4 0.31 0.93 0.54 1.51c0.58 1.51 1.23 3.22 1.03 4.44c-0.04 0.27-1.2 6.76-10.74 26.88c-1.94 4.11-3.95 7.75-5.72 10.96c-6.98 12.66-10.83 19.63 1.77 31c0.85 0.76 1.68 1.49 2.5 2.17c2.87 2.4 5.39 5.19 7.83 7.89l0.33 0.37c0.25 0.28 0.54 0.66 0.86 1.06c0.63 0.82 1.5 1.95 2.14 2.19c0.36 0.14 0.88 0.04 1.45-0.1c0.46-0.11 0.97-0.23 1.52-0.23z" />
			</g>
			<path id="&lt;Path&gt;" class="s1" d="m338.64 137.46c0.48 1.21 1.09 2.42 1.84 3.62c-0.2 0.83-0.56 1.9-1.08 3.21c-2.55 6.35-10.22 20.21-29.66 23.71c-1.13 0.2-4.7-9.03-5.06-10.04c-1.67-4.68-2.47-9.66-2.2-14.63c0.24-4.3 2.17-8.3 2.5-12.54c-2.48 1.95-7.34 1.17-9.5-0.9c-8.85-8.5 2.69-24.97 13.79-20.59c2.62 1.04 5.64 4.85 5.58 7.81c6.87-6.45 16.47-10.07 25.67-11.53c1.34 7.23-6.73 19.67-1.88 31.88z" />
			<g id="&lt;Group&gt;">
				<path id="&lt;Path&gt;" class="s0" d="m390.43 221.91c0.07 3.75-1.63 8.8-4.38 10.87c-1.5 1.13-3.36 2.26-5.22 2.67c-1.41 0.32-2.71-0.18-4.1-0.13c-0.84 0.03-1.6 0.43-2.44 0.36c-2.38-0.2-3.06-1.97-1.08-3.14c1.37-0.81 2.61-1.98 3.72-3.11c0.54-0.55 3.51-6.42 1.92-6.73c-3.31-0.66-6.64-1.25-9.98-1.79c-1.1-0.18-2.69-0.97-3.7 0.06c-0.86 0.88-0.08 1.62 0.75 2.32c0.91 0.78 6.56 2.89 6.33 4.11c-0.14 0.79-2.99 1.04-3.66 0.98c-1.66-0.13-3.24-0.89-4.84-1.3c-3.48-0.88-6.96-1.77-10.44-2.66c-5.62-1.43-11.1-3.87-16.85-5.02c-7.19-1.45-14.55-1.84-21.86-2.1c-5.49-0.19-11.07-0.02-16.52-0.76c-3.73-0.5-7.42-2.08-10.88-3.54c-9.36-3.94-18.43-7.72-27.45-12.52c-0.7-0.38-4.35-1.67-4.63-2.46l-2.16-6.15c5.26-4.39 9.56-8.55 13.08-12.36c5.18 3.42 10.36 6.85 15.53 10.28c5.58 3.69 11.26 7.4 17.58 9.68c6.45 2.33 13.4 2.36 20.16 2.82c7.47 0.51 14.81 2.13 22.27 2.72c7.3 0.58 14.62 0.62 21.86 1.88c6.03 1.05 11.92 3.06 17.46 5.63c4.16 1.93 8.51 2.72 9.4 7.9c0.08 0.46 0.12 0.96 0.13 1.48z" />
				<path id="&lt;Compound Path&gt;" fill-rule="evenodd" class="s0" d="m374.49 236.7l-0.28-0.01c-1.65-0.14-2.84-0.94-3.11-2.11c-0.25-1.07 0.35-2.16 1.6-2.9c1.28-0.75 2.44-1.86 3.52-2.95c0.48-0.57 2.07-3.95 2.11-5.12c-2.81-0.56-5.88-1.11-9.61-1.72c-0.28-0.04-0.58-0.12-0.89-0.21c-0.45-0.12-0.92-0.24-1.31-0.24c-0.36 0-0.51 0.1-0.62 0.22c-0.04 0.24 0.51 0.7 0.68 0.86c0.21 0.18 1.13 0.63 1.87 1c3.15 1.55 5.07 2.57 4.79 4.06c-0.32 1.72-3.75 1.81-4.44 1.81c-0.11 0-0.21 0-0.29-0.01c-1.2-0.09-2.31-0.46-3.39-0.83c-0.54-0.18-1.08-0.36-1.62-0.5l-10.44-2.66c-2.48-0.63-4.96-1.46-7.36-2.27c-3.08-1.03-6.25-2.1-9.44-2.74c-7.28-1.47-14.71-1.83-21.7-2.08c-1.55-0.05-3.11-0.08-4.68-0.1c-3.92-0.06-7.98-0.13-11.94-0.67c-3.77-0.51-7.39-2.03-10.89-3.5l-1.08-0.46c-9.21-3.87-17.9-7.53-26.7-12.21c-0.17-0.09-0.51-0.23-0.93-0.41c-2.69-1.13-3.87-1.74-4.17-2.61l-2.39-6.8l0.53-0.45c4.81-4.02 9.18-8.15 12.98-12.27l0.58-0.63l16.24 10.75c5.15 3.41 10.99 7.27 17.37 9.58c5.29 1.91 11.07 2.24 16.66 2.57c1.08 0.06 2.16 0.13 3.23 0.2c3.93 0.27 7.86 0.84 11.67 1.4c3.48 0.51 7.07 1.04 10.62 1.32c2.24 0.18 4.48 0.31 6.72 0.43c5 0.28 10.17 0.58 15.23 1.46c5.77 1.01 11.73 2.93 17.71 5.71c0.71 0.33 1.42 0.62 2.11 0.91c3.45 1.43 7.02 2.9 7.85 7.73c0.09 0.51 0.14 1.06 0.15 1.63c0.07 3.91-1.7 9.36-4.78 11.69c-1.99 1.51-3.88 2.47-5.6 2.85c-0.85 0.19-1.84 0.12-2.79 0.01c-0.44-0.05-0.88-0.11-1.32-0.11c-0.47 0.01-0.76 0.09-1.05 0.16c-0.41 0.1-0.88 0.21-1.4 0.21zm-7.98-17.25c0.64 0 1.27 0.16 1.82 0.31c0.25 0.07 0.49 0.13 0.71 0.17c3.91 0.64 7.09 1.21 10.01 1.8c0.56 0.11 0.99 0.51 1.17 1.08c0.61 1.97-2.02 6.77-2.57 7.33c-1.17 1.18-2.45 2.4-3.92 3.27c-0.55 0.33-0.69 0.63-0.67 0.72c0.03 0.14 0.41 0.49 1.32 0.56l0.12 1v-1c0.28 0 0.58-0.07 0.93-0.16c0.42-0.1 0.84-0.2 1.28-0.21l0.24 0c0.53 0 1.05 0.06 1.57 0.13c0.73 0.09 1.49 0.17 2.11 0.03c1.43-0.32 3.1-1.18 4.83-2.5c2.54-1.92 4.05-6.72 3.99-10.06c-0.01-0.47-0.05-0.91-0.12-1.33c-0.64-3.74-3.29-4.83-6.64-6.22c-0.72-0.3-1.46-0.6-2.19-0.94c-5.83-2.71-11.62-4.57-17.22-5.55c-4.95-0.87-10.06-1.15-15-1.43c-2.26-0.13-4.51-0.25-6.77-0.43c-3.61-0.29-7.24-0.82-10.75-1.34c-3.77-0.55-7.66-1.13-11.51-1.39c-1.07-0.07-2.14-0.13-3.21-0.2c-5.73-0.33-11.66-0.67-17.22-2.68c-6.6-2.39-12.55-6.32-17.79-9.79l-14.83-9.81c-3.58 3.83-7.63 7.65-12.06 11.38l1.93 5.5c0.27 0.26 2.29 1.11 3.06 1.43c0.5 0.21 0.9 0.38 1.1 0.49c8.71 4.64 17.37 8.28 26.53 12.13l1.08 0.45c3.38 1.42 6.88 2.89 10.38 3.36c3.85 0.52 7.84 0.59 11.71 0.65c1.58 0.03 3.15 0.05 4.72 0.11c7.07 0.25 14.59 0.62 22.02 2.11c3.31 0.67 6.55 1.76 9.68 2.81c2.36 0.79 4.81 1.61 7.21 2.23l10.44 2.66c0.59 0.15 1.17 0.34 1.76 0.54c1.01 0.34 1.96 0.66 2.91 0.73c0.7 0.03 1.63-0.11 2.21-0.26c-0.8-0.58-2.43-1.38-3.31-1.81c-1.21-0.59-1.91-0.94-2.29-1.27c-0.6-0.51-1.43-1.21-1.47-2.22c-0.02-0.39 0.08-0.97 0.66-1.56c0.53-0.54 1.22-0.82 2.05-0.82z" />
			</g>
			<g id="&lt;Group&gt;">
				<g id="&lt;Group&gt;">
					<path id="&lt;Path&gt;" class="s0" d="m223.46 108.51c-2.17 8.16-9.17 15.71-18.25 19.7c-10.62 4.65-24.93 4.82-40.09 5.02c-31.76 0.4-52.84 2.36-56.16 25.17c-1.24 8.51 2.61 15.37 6.06 19.63c6.1 7.54 16.05 13.31 25.81 15.18c-0.94 3.03-1.61 6.17-2.04 9.37c-11.91-2.33-23.7-9.23-31.22-18.52c-6.67-8.24-9.47-17.59-8.09-27.04c2.12-14.54 10.5-24.33 24.9-29.07c11.95-3.94 26.53-4.12 40.62-4.3c14.16-0.17 27.53-0.34 36.36-4.21c6.38-2.8 11.42-8.05 12.83-13.38c0.95-3.57 0.22-7.02-2.18-10.26c-5.63-7.61-11.87-6.3-22.4-3.31c-4.43 1.25-9.01 2.55-13.72 2.75c-11.21 0.5-18.33-6.6-19.55-13.88c-1.13-6.7 2.58-14.89 13.38-18.08c2.54-0.75 5.2 0.7 5.95 3.23c0.75 2.53-0.69 5.2-3.23 5.95c-4.7 1.39-7.18 4.13-6.65 7.32c0.52 3.11 4.02 6.13 9.68 5.89c3.59-0.15 7.44-1.25 11.53-2.41c10.18-2.88 22.87-6.47 32.71 6.84c4.15 5.62 5.45 12 3.74 18.42z" />
					<path id="&lt;Compound Path&gt;" fill-rule="evenodd" class="s0" d="m139.63 203.76l-1.04-0.2c-12.3-2.41-24.18-9.46-31.81-18.88c-6.85-8.46-9.72-18.08-8.3-27.82c2.17-14.95 10.78-25.01 25.58-29.88c12.11-3.99 26.76-4.17 40.92-4.35c14.05-0.17 27.32-0.34 35.97-4.13c6.12-2.69 10.93-7.68 12.27-12.72c0.87-3.26 0.19-6.43-2.02-9.41c-2.73-3.69-5.61-5.26-9.63-5.26c-3.26 0-7.23 1.05-11.7 2.31c-4.49 1.27-9.13 2.58-13.95 2.79c-11.75 0.52-19.31-7.14-20.58-14.71c-1.2-7.13 2.69-15.84 14.08-19.21c3-0.89 6.31 0.93 7.19 3.91c0.44 1.48 0.27 3.04-0.46 4.4c-0.74 1.36-1.96 2.35-3.45 2.79c-4.16 1.23-6.39 3.55-5.94 6.19c0.44 2.63 3.57 5.28 8.65 5.05c3.46-0.15 7.25-1.22 11.26-2.36c4.61-1.3 9.77-2.77 14.99-2.77c7.73 0 13.89 3.26 18.85 9.96c4.34 5.88 5.69 12.54 3.9 19.28c-2.25 8.45-9.46 16.25-18.82 20.36c-10.79 4.72-25.19 4.91-40.43 5.1c-31.3 0.39-52.03 2.3-55.23 24.31c-1.19 8.16 2.52 14.76 5.84 18.86c5.91 7.3 15.57 12.98 25.22 14.83l1.1 0.21l-0.33 1.07c-0.89 2.86-1.56 5.96-2 9.2l-0.14 1.05zm61.95-114.64c4.66 0 8.13 1.87 11.23 6.07c2.59 3.5 3.38 7.24 2.34 11.12c-1.49 5.6-6.75 11.11-13.4 14.04c-9.02 3.95-22.49 4.12-36.75 4.29c-14.01 0.17-28.51 0.35-40.32 4.25c-14.02 4.62-22.17 14.13-24.23 28.27c-1.33 9.17 1.39 18.25 7.88 26.27c7.12 8.79 18.13 15.45 29.6 17.96c0.39-2.58 0.93-5.07 1.61-7.41c-9.73-2.14-19.34-7.94-25.31-15.31c-3.57-4.41-7.56-11.53-6.27-20.41c3.43-23.59 24.85-25.62 57.14-26.02c15.08-0.19 29.28-0.37 39.7-4.93c8.81-3.87 15.59-11.16 17.69-19.04c1.63-6.13 0.39-12.2-3.58-17.57c-4.55-6.16-10.19-9.15-17.24-9.15c-4.94 0-9.96 1.42-14.4 2.68c-4.17 1.18-8.06 2.29-11.76 2.44c-6.55 0.28-10.15-3.36-10.71-6.72c-0.63-3.74 2.12-6.89 7.35-8.44c0.97-0.29 1.77-0.94 2.26-1.83c0.48-0.89 0.59-1.91 0.3-2.88c-0.58-1.95-2.74-3.14-4.71-2.56c-10.21 3.02-13.73 10.7-12.67 16.96c1.12 6.72 7.89 13.52 18.51 13.05c4.59-0.2 9.11-1.48 13.48-2.71c4.63-1.31 8.74-2.39 12.26-2.39z" />
				</g>
			</g>
			<g id="&lt;Group&gt;">
				<path id="&lt;Path&gt;" class="s0" d="m330.26 89.26c-5.13-4.98-12.6-8.89-23.86-8.35c-1.08 0.06-2.13 0.17-3.17 0.34c3.7-1.89 8.38-5.42 8.26-11.21c-0.14-6.37 1.14-3.7 3.84 8c4.36 1.8 6.51-1.66 6.44-10.38c-0.07-8.72 1.07-8.38 3.43 1.04l2.6 12.56c2.49-0.97 5.02-2.73 7.58-5.3c3.64-3.64-4.18 8.57-5.11 13.31z" />
				<path id="&lt;Compound Path&gt;" fill-rule="evenodd" class="s0" d="m330.89 91.26l-1.32-1.28c-5.55-5.39-12.66-8.12-21.13-8.12c-0.65 0-1.31 0.02-1.99 0.05c-1.04 0.05-2.07 0.16-3.05 0.33l-6.44 1.09l5.82-2.96c3.58-1.82 7.83-5.09 7.71-10.3c-0.05-2.43 0.15-3.11 0.55-3.52l0.29-0.3l0.52-0.05c0.77 0 1.73 0 4.31 11.03c0.15 0.02 0.32 0.04 0.51 0.04c0.77 0 1.45-0.29 2.02-0.86c0.97-0.98 2.12-3.29 2.07-8.74c-0.04-4.86 0.41-5.72 0.87-6.18c0.25-0.25 0.57-0.38 0.9-0.38c0.63 0 1.79 0 3.63 7.35l2.35 11.36c1.34-0.7 3.73-2.14 6.15-4.56c0.62-0.62 1.06-0.96 1.58-0.96h0.56l0.36 0.51c0.44 0.72 0.16 1.37-1.98 5.59c-1.49 2.93-3.53 6.95-3.94 9.07l-0.35 1.81zm-22.45-11.41c8.4 0 15.56 2.54 21.31 7.57c0.81-2.34 2.36-5.39 3.66-7.94c0.13-0.25 0.26-0.5 0.39-0.76c-3.02 2.43-5.5 3.41-5.63 3.46l-1.1 0.43l-2.84-13.72c-0.38-1.53-0.91-3.26-1.37-4.47c-0.05 0.72-0.09 1.75-0.08 3.22c0.04 4.93-0.85 8.35-2.65 10.17c-0.94 0.95-2.13 1.45-3.44 1.45c-0.96 0-1.65-0.27-1.73-0.31l-0.48-0.2l-0.12-0.5c-0.57-2.47-1.28-5.19-1.89-7.22c-0.26 3.91-2.52 6.78-5.16 8.83c0.38-0.01 0.76-0.01 1.13-0.01z" />
			</g>
			<g id="&lt;Group&gt;">
				<path id="&lt;Path&gt;" class="s0" d="m328.18 160.69c-0.21 0-0.42-0.06-0.6-0.2c-3.15-2.34-6.98-5.85-8.7-12.33c-0.14-0.53 0.18-1.08 0.71-1.22c0.54-0.14 1.08 0.18 1.22 0.71c1.56 5.88 5.08 9.1 7.96 11.24c0.44 0.33 0.54 0.96 0.21 1.4c-0.2 0.26-0.5 0.4-0.8 0.4z" />
			</g>
			<g id="&lt;Group&gt;">
				<path id="&lt;Path&gt;" class="s0" d="m155.66 340.94l-0.14-0.09l-7.45-5.28l8.67 3.69l-1.04 1.68l0.06-0.16l-0.1 0.16z" />
			</g>
			<g id="&lt;Group&gt;">
				<path id="&lt;Path&gt;" class="s0" d="m206.74 336.84c0.04 0.26 0.07 0.52 0.12 0.78c0.16 0.91 0.9 2.3 0.76 3.22c-0.7 4.34-9.13 2.05-11.65 1.25c-3.1-0.98-5.8-2.91-8.83-4c-3.1-1.12-6.07-2.31-8.87-4.08c-1.5-0.95-3.52-2.08-4.62-3.48c-1.06-1.35-1.96-3.59-2.92-5.16c-3.8-3.81-6.78-7.41-7.89-10.18c-2.99-7.47-0.05-15.18 1.21-22.65c1.71-10.1-1.38-20.13-5.1-29.43c2.44-7.14 6.12-15.21 9.1-21.4c0.04 0.01 0.08 0.01 0.12 0.01c2.31 0.1 6-0.33 10.7-1.24c0.49-0.1 0.99-0.19 1.5-0.3c0.94 1.59 1.36 4.25 1.7 5.41c2.85 9.59 4.2 20.09 2.34 30c-1.54 8.26-4.61 16.24-4.94 24.7c-0.13 3.43 0.21 6.41 0.99 9.59c1.15 4.67 4.52 8.35 8.41 11c3.89 2.65 8.64 3.85 12.47 6.44c3.94 2.67 4.79 5.04 5.4 9.53z" />
				<path id="&lt;Compound Path&gt;" fill-rule="evenodd" class="s0" d="m203.17 344.41c-2.87 0-6.21-0.96-7.52-1.37c-1.74-0.55-3.35-1.38-4.91-2.18c-1.34-0.69-2.62-1.35-3.96-1.83c-3.45-1.25-6.31-2.44-9.06-4.18l-0.65-0.41c-1.48-0.92-3.16-1.96-4.22-3.31c-0.7-0.89-1.31-2.09-1.9-3.24c-0.34-0.67-0.68-1.33-1.03-1.91c-4.33-4.36-6.96-7.77-8.03-10.42c-2.45-6.14-1.11-12.35 0.18-18.35c0.35-1.62 0.7-3.23 0.97-4.84c1.71-10.09-1.59-20.27-5.04-28.89l-0.14-0.34l0.12-0.35c1.97-5.75 5.05-12.99 9.14-21.51l0.32-0.66l0.73 0.11c0.22 0 0.44 0.01 0.66 0.01c2.26 0 5.66-0.43 9.83-1.23l0.27-0.05c0.4-0.08 0.8-0.16 1.21-0.25l0.7-0.15l0.37 0.62c0.77 1.3 1.2 3.15 1.52 4.5c0.1 0.45 0.19 0.84 0.28 1.13c3.29 11.06 4.09 21.31 2.36 30.47c-0.56 2.99-1.32 5.98-2.06 8.87c-1.3 5.09-2.65 10.36-2.86 15.69c-0.13 3.22 0.17 6.09 0.96 9.31c1.22 4.93 5.02 8.38 8 10.41c1.89 1.29 4.06 2.25 6.16 3.18c2.13 0.95 4.34 1.93 6.32 3.26c4.18 2.83 5.18 5.44 5.83 10.22c0.03 0.25 0.07 0.5 0.11 0.75c0.05 0.29 0.17 0.63 0.3 0.99c0.28 0.81 0.59 1.73 0.46 2.56c-0.25 1.56-1.4 3.41-5.42 3.41zm-43.17-81.33c3.5 8.81 6.78 19.18 5.02 29.62c-0.28 1.63-0.63 3.28-0.99 4.93c-1.23 5.71-2.51 11.62-0.28 17.19c0.96 2.39 3.54 5.7 7.67 9.84l0.15 0.18c0.39 0.64 0.77 1.39 1.16 2.14c0.55 1.07 1.11 2.18 1.69 2.92c0.84 1.07 2.36 2.01 3.7 2.84l0.67 0.42c2.6 1.64 5.35 2.78 8.68 3.99c1.46 0.53 2.85 1.24 4.2 1.94c1.55 0.8 3.01 1.55 4.6 2.05c1.22 0.38 4.33 1.28 6.92 1.28c3.17 0 3.38-1.3 3.45-1.73c0.05-0.33-0.2-1.06-0.38-1.59c-0.16-0.47-0.31-0.92-0.38-1.3c-0.05-0.28-0.09-0.55-0.13-0.82c-0.6-4.45-1.45-6.45-4.97-8.83c-1.83-1.24-3.86-2.14-6.01-3.09c-2.18-0.97-4.43-1.97-6.47-3.35c-4.69-3.2-7.74-7.2-8.82-11.59c-0.84-3.41-1.15-6.45-1.02-9.86c0.22-5.54 1.59-10.91 2.92-16.11c0.73-2.86 1.49-5.81 2.03-8.74c1.66-8.84 0.88-18.78-2.32-29.53c-0.1-0.32-0.2-0.75-0.31-1.24c-0.23-1-0.54-2.3-0.98-3.31c-0.17 0.03-0.33 0.07-0.49 0.1l-0.27 0.05c-4.4 0.85-7.99 1.31-10.4 1.27c-3.84 8.03-6.75 14.87-8.65 20.36z" />
			</g>
			<g id="&lt;Group&gt;">
				<path id="&lt;Path&gt;" class="s0" d="m332.76 125.07c0 1.38-0.85 2.5-1.9 2.5c-1.05 0-1.9-1.12-1.9-2.5c0-1.38 0.85-2.5 1.9-2.5c1.05 0 1.9 1.12 1.9 2.5z" />
				<path id="&lt;Compound Path&gt;" fill-rule="evenodd" class="s0" d="m330.86 128.56c-1.6 0-2.9-1.57-2.9-3.5c0-1.93 1.3-3.5 2.9-3.5c1.63 0 2.9 1.54 2.9 3.5c0 1.96-1.27 3.5-2.9 3.5zm0-4.99c-0.42 0-0.9 0.64-0.9 1.5c0 0.86 0.47 1.5 0.9 1.5c0.42 0 0.9-0.64 0.9-1.5c0-0.86-0.47-1.5-0.9-1.5z" />
			</g>
			<g id="&lt;Group&gt;">
				<path id="&lt;Path&gt;" class="s0" d="m340.48 141.08c-0.2 0.83-0.56 1.9-1.08 3.21c-1.6-0.24-2.84-1.72-2.84-3.52c0-1.5 0.86-2.79 2.08-3.31c0.48 1.21 1.09 2.42 1.84 3.62z" />
				<path id="&lt;Compound Path&gt;" fill-rule="evenodd" class="s0" d="m340.04 145.39l-0.78-0.12c-2.11-0.31-3.7-2.25-3.7-4.51c0-1.87 1.05-3.53 2.68-4.23l0.94-0.4l0.38 0.95c0.47 1.2 1.07 2.36 1.76 3.45l0.23 0.36l-0.1 0.41c-0.01 0.05-0.32 1.34-1.12 3.35l-0.29 0.73zm-1.83-6.4c-0.4 0.47-0.65 1.1-0.65 1.78c0 0.98 0.5 1.85 1.25 2.27c0.3-0.81 0.49-1.43 0.59-1.8c-0.44-0.73-0.84-1.48-1.2-2.25z" />
			</g>
			<path id="&lt;Path&gt;" class="s1" d="m254.93 211.1c-24.33 14.78-56.18 25.29-74.57 29.07c-0.51 0.11-1.01 0.21-1.5 0.3c-4.7 0.91-8.39 1.33-10.7 1.24c-0.04 0-0.08 0-0.12-0.01c0 0.01-0.01 0.01-0.01 0.01c-0.42-1.07-0.73-2.16-0.93-3.2c-1.84-9.83 6.49-19.38 14.03-24.54c8-5.48 17.76-8.24 27.27-9.6c8.45-1.2 16.93-1.25 25.44-0.74c6.28 0.38 13.6 0.83 18.79 4.85c1 0.77 1.76 1.65 2.31 2.61z" />
		</g>
	</g>
</svg>