<svg version="1.2" baseProfile="tiny-ps" xmlns="http://www.w3.org/2000/svg" viewBox="0 0 490 410" width="490" height="410">
	<title>chinese zodiac (1)-ai</title>
	<defs>
		<linearGradient id="grd1" gradientUnits="userSpaceOnUse"  x1="308.3" y1="84.2" x2="308.3" y2="84.2">
			<stop offset="0" stop-color="#ff0000"  />
			<stop offset=".4" stop-color="#231f20"  />
			<stop offset="1" stop-color="#231f20"  />
		</linearGradient>
		<linearGradient id="grd2" gradientUnits="userSpaceOnUse"  x1="309.2" y1="95.9" x2="309.8" y2="95.9">
			<stop offset="0" stop-color="#ff0000"  />
			<stop offset=".4" stop-color="#231f20"  />
			<stop offset="1" stop-color="#231f20"  />
		</linearGradient>
	</defs>
	<style>
		tspan { white-space:pre }
		.s0 { fill: #ff0000 } 
		.s1 { fill: #000000 } 
		.s2 { fill: url(#grd1) } 
		.s3 { fill: url(#grd2) } 
	</style>
	<g id="Layer 1">
		<g id="&lt;Group&gt;">
			<path id="&lt;Path&gt;" class="s0" d="m329.87 108.31c-2.45 1.33-5.13 2.44-7.65 3.65c-1.94 0.93-3.86 2.02-5.95 2.57c-2.91 0.77-3.62 0.05-4.46-2.7c-0.06-0.19-0.12-0.37-0.16-0.54c-0.17-0.58-0.33-1.16-0.48-1.75c-0.01-0.04-0.03-0.08-0.03-0.12c-0.49-1.96-0.96-4.08-1.34-6.02c-0.01-0.04-0.02-0.08-0.02-0.12c-0.2-1.14-0.39-2.28-0.55-3.42c-0.34-2.44-0.58-4.83-0.73-7.29c-0.03-0.53-0.06-1.06-0.08-1.6c-0.02-0.35-0.03-0.71-0.04-1.06c-0.02-0.32-0.02-0.63-0.03-0.95c-0.01-0.25-0.02-0.5-0.02-0.75c-0.07-2.6 0.02-5.24 0.13-7.84c0.01-0.23 0.02-0.45 0.04-0.68c0.02-0.38 0.04-0.75 0.06-1.13c0.04-0.48 0.07-0.97 0.11-1.45c0.07-0.96 0.16-1.92 0.26-2.87c0.18-1.77 0.38-3.48 0.65-5.25c0.08-0.53 0.15-1.04 0.24-1.56c0.16-0.97 0.32-1.92 0.48-2.86c0.08-0.47 0.17-0.94 0.25-1.39c0.09-0.47 0.18-0.92 0.27-1.38c0.39-1.96 0.78-3.8 1.25-5.75c0.22-0.9 0.44-1.77 0.66-2.62c0.18-0.7 0.36-1.39 0.55-2.05c0.96-3.49 1.93-6.55 2.8-9.06c0.09-0.28 0.19-0.54 0.28-0.8c0.28-0.78 0.54-1.5 0.78-2.16c0.06-0.19 0.14-0.37 0.2-0.55c0.21-0.55 0.41-1.07 0.59-1.52c0.12-0.31 0.24-0.6 0.33-0.86c0.07-0.17 0.14-0.34 0.2-0.49c0.32-0.77 0.51-1.21 0.56-1.3c-0.25 0.89-0.47 1.82-0.65 2.78c-1.59 8.27-0.77 18.88 1.08 29.51c0.14-0.5 0.31-1.02 0.48-1.55c0.77-2.44 1.39-5.12 2.48-7.43c0.93-1.97 1.42-4.01 2.21-6.06c0.34-0.87 0.66-1.72 0.98-2.53c0.11-0.26 0.2-0.52 0.31-0.77c1.39-3.52 2.63-6.39 3.53-8.42c0.11-0.24 0.2-0.44 0.28-0.64c0.04-0.1 0.09-0.2 0.12-0.28c0.06-0.12 0.11-0.24 0.16-0.34c0.26-0.58 0.47-1.05 0.64-1.38c0.05-0.11 0.1-0.2 0.13-0.28c0.01-0.02 0.02-0.03 0.03-0.05c0.02-0.06 0.05-0.11 0.07-0.15c0.02-0.04 0.04-0.08 0.06-0.12c-0.41 1.01-0.77 2.19-1.09 3.51c-1.73 7.37-1.89 19.16-1.37 31.3c0.02 0.56 0.05 1.1 0.07 1.65c0.06 1.28 0.13 2.57 0.2 3.85c0.03 0.47 0.05 0.95 0.08 1.42c0.09 1.54 0.19 3.07 0.3 4.6c0.06 0.81 0.12 1.61 0.18 2.41c0.11 1.38 0.22 2.74 0.33 4.08c0.07 0.89 0.15 1.78 0.23 2.65c0.04 0.43 0.08 0.86 0.11 1.3c0.06 0.66 0.12 1.31 0.18 1.95c0.07 0.62 0.12 1.22 0.18 1.83c0.08 0.82 0.16 1.62 0.24 2.4c0.04 0.39 0.08 0.78 0.12 1.17c0.03 0.29 0.18 1.16 0.32 2.22c0.29 2.08 0.89 3.8-0.91 4.93c-0.08 0.05-0.16 0.1-0.25 0.15z" />
			<path id="&lt;Path&gt;" class="s1" d="m317.37 205.88c-0.11 0.32-3.65 7.45-8.33 17.34c-2.92 6.17-6.28 13.41-9.52 20.74c-4.45 10.06-8.68 20.25-11.24 28.02c-0.64 1.92-1.17 3.7-1.58 5.29l-3.9 0.99l1.61-5.63l7.52-26.35l3.15-11.05l-8.39 0.74c2.15-3.73 3.95-7.07 5.35-9.79c1.06-2.07 1.9-3.79 2.5-5.08c0.81-1.75 1.74-4.11 2.75-6.88l20.08-8.33z" />
			<path id="&lt;Path&gt;" class="s1" d="m201.49 373.06h-4.13c0-1.12-0.62-2.87-1.58-5.01c-2.82-6.28-8.59-15.88-10.25-22.65c3.21-9.27 7.71-21.16 14.04-36.17c-2.48 24.87-0.09 48.75 1.21 58.81c0.27 2.14 0.51 3.81 0.71 5.01z" />
			<path id="&lt;Path&gt;" class="s1" d="m369.54 172.2l-10.01 10.01l-0.84 16.06l-3.26-6.52c-1.09 9.06-1.63 14.14-1.63 15.23c0 1.37-4.58-20.54-6.06-27.69c-6.19-3.16-12.35-6.45-18.2-10.21c-3.25-2.08-10.28-9.5-14.03-4.73c-1.11 1.41-1.77 3.58-2.47 5.22c-1.96 4.56-3.64 9.24-5.28 13.93c-3.58 10.21-6.77 20.56-10.48 30.72c-1.01 2.77-1.94 5.13-2.75 6.88c-0.6 1.29-1.44 3.01-2.5 5.08l17-2.96l24.64-4.3c-8.92 17.71-16.06 34.06-21.42 49.06c-0.9 2.5-1.72 4.96-2.47 7.32l-2.92 0.69l2.14-7.46l8.91-31.12c-5.5 2.19-11.64 4.37-18.4 6.55c-2.45 0.79-5.01 1.58-7.58 2.32c-5.11 1.47-11.17 1.79-15.11 5.68c-5.01 4.94-8.64 11.97-13.21 17.44c-4.99 5.96-10.34 11.64-16.19 16.77c-7.09 6.22-14.97 11.75-23.73 15.34c-3.8 1.56-7.78 2.01-11.56 3.26c-3.24 1.06-6.66 4.43-9.27 6.62c-1.79 1.5-3.81 2.75-5.46 4.43c-1.76 1.8-1.95 3.35-2.83 5.55c-3.19 7.95-6.25 15.95-9.05 24.04c-3.77 10.9-5.75 18.18-6.78 22.65c-0.63 2.72-0.99 4.66-1.09 5.82h-3.26c-0.05-1.61-0.3-3.56-0.73-5.82c-4.25-22.47-25.58-74.11-30.08-92.47c-2.22-7.62-3.07-16.89-2.3-28.09l-23.35-19.36l11.89 1.67c-6-7.98-10.28-13.27-12.85-15.86c4.48 3.77 20.36 15.54 28.18 21.89c15.75-8.9 92.75-52.57 105.92-64.75c10.68-9.89 41.99-40.95 61.71-56.2c-0.35-1.01-0.68-2.03-0.97-3.05c-0.06-0.19-0.12-0.37-0.16-0.54c-0.17-0.58-0.33-1.16-0.48-1.75c-0.01-0.04-0.03-0.08-0.03-0.12c-0.06-0.23-0.11-0.45-0.17-0.67c-0.1-0.36-0.19-0.73-0.27-1.09c9.48-0.56 21.02-3.37 12.8-2.31c-5.35 0.69-9.71 0.6-13.24 0.34c-0.08-0.38-0.15-0.77-0.24-1.15c-0.07-0.38-0.15-0.76-0.22-1.14c-0.01-0.04-0.02-0.08-0.02-0.12c-0.2-1.14-0.39-2.28-0.55-3.42c-0.11-0.77-0.2-1.56-0.29-2.33c-0.05-0.39-0.09-0.78-0.13-1.17c8.91-0.81 18.11-3.11 10.54-2.14c-4.13 0.53-7.67 0.59-10.68 0.49c-0.03-0.34-0.06-0.68-0.08-1.01c-0.03-0.39-0.06-0.76-0.08-1.14c-0.03-0.53-0.06-1.06-0.08-1.6c-0.02-0.35-0.03-0.71-0.04-1.06c-0.02-0.32-0.02-0.63-0.03-0.95c-0.01-0.25-0.02-0.5-0.02-0.75c-0.03-1.29-0.03-2.56-0.01-3.83c8.16-0.19 15.49-1.38 8.48-1.13c-3.16 0.12-5.97-0.01-8.45-0.24c0.01-0.33 0.02-0.64 0.04-0.97c0.02-0.55 0.04-1.11 0.06-1.66c0.01-0.23 0.02-0.45 0.04-0.68c0.02-0.38 0.04-0.75 0.06-1.13c0.04-0.48 0.07-0.97 0.11-1.45c0.07-0.96 0.16-1.92 0.26-2.87c0.05-0.47 0.1-0.94 0.15-1.41c0.06-0.47 0.11-0.94 0.17-1.4c6.78 0.64 11.76 0.46 5.63-0.21c-1.98-0.22-3.81-0.51-5.5-0.85c0.07-0.46 0.12-0.92 0.19-1.38c0.08-0.53 0.15-1.04 0.24-1.56c0.16-0.97 0.32-1.92 0.48-2.86c0.08-0.47 0.17-0.94 0.25-1.39c0.09-0.47 0.18-0.92 0.27-1.38c0.09-0.46 0.19-0.9 0.28-1.35c0.1-0.45 0.19-0.89 0.28-1.33c4.68 0.28 7.01 0.06 2.05-0.49c-0.64-0.07-1.27-0.16-1.89-0.24c0.03-0.11 0.05-0.23 0.07-0.33c0.16-0.68 0.31-1.35 0.46-2.01c0.22-0.9 0.44-1.77 0.66-2.62c0.18-0.7 0.36-1.39 0.55-2.05c0.96-3.49 1.93-6.55 2.8-9.06c0.09-0.28 0.19-0.54 0.28-0.8c0.28-0.78 0.54-1.5 0.78-2.16c0.06-0.19 0.14-0.37 0.2-0.55c0.21-0.55 0.41-1.07 0.59-1.52c0.12-0.31 0.24-0.6 0.33-0.86c0.07-0.17 0.14-0.34 0.2-0.49c0.32-0.77 0.51-1.21 0.56-1.3c-0.25 0.89-0.47 1.82-0.65 2.78c-1.59 8.27-0.77 18.88 1.08 29.51c2.83 16.27 8.09 32.56 10.84 40.48c0.39 0.28 0.81 0.61 1.24 0.99c9.61 8.27 29.58 39.05 38.25 52.76c-2.04 1.01-3.43 3.13-3.43 5.58c0 2.37 1.3 4.42 3.22 5.46z" />
			<path id="&lt;Path&gt;" class="s0" d="m308.3 88.2c0 0.25 0.01 0.5 0.02 0.75c-0.01-0.16-0.02-0.33-0.02-0.49v-0.26z" />
			<path id="&lt;Path&gt;" class="s0" d="m308.36 82.02c-0.02 0.33-0.03 0.64-0.04 0.97c0.02-0.88 0.06-1.76 0.1-2.63c-0.02 0.56-0.04 1.11-0.06 1.66z" />
			<path id="&lt;Path&gt;" class="s0" d="m309.2 99.85c0.16 1.14 0.35 2.28 0.55 3.42c-0.21-1.14-0.4-2.28-0.55-3.42z" />
			<path id="&lt;Path&gt;" class="s2" d="m308.3 88.2c0 0.25 0.01 0.5 0.02 0.75c-0.01-0.16-0.02-0.33-0.02-0.49v-0.26z" />
			<path id="&lt;Path&gt;" class="s3" d="m309.2 99.85c0.16 1.14 0.35 2.28 0.55 3.42c-0.21-1.14-0.4-2.28-0.55-3.42z" />
			<g id="&lt;Group&gt;">
				<path id="&lt;Path&gt;" class="s0" d="m318.03 206.63l-1.32-1.51l1.32 1.5l-0.01 0.01z" />
			</g>
			<path id="&lt;Path&gt;" class="s0" d="m343.1 138.15l-3.37-1.66l-1.78 0.94l-0.47 3.57l-2.52-13.32l8.14 10.47z" />
			<path id="&lt;Path&gt;" class="s1" d="m331.28 108.21c-0.07 0.3-0.18 0.5-0.34 0.53c-1.01 0.2-1.44-1.55-1.54-2.2c-0.24-1.65-0.52-3.21-1.03-4.79c-0.17-0.53-0.35-1.08-0.53-1.65c-0.12-0.38-0.25-0.76-0.37-1.15c-0.14-0.45-0.28-0.9-0.42-1.36c-0.06-0.23-0.14-0.46-0.21-0.69c-0.1-0.3-0.19-0.61-0.29-0.93c-0.05-0.16-0.1-0.33-0.14-0.5c-0.04-0.12-0.07-0.25-0.12-0.37c-0.11-0.36-0.22-0.73-0.33-1.1c-0.16-0.5-0.3-1-0.45-1.51c0.77-0.08 1.44-0.17 1.97-0.25c0.9-0.13 1.43-0.26 1.41-0.34c-0.01-0.11-0.84-0.15-2.81-0.07c-0.15 0.01-0.3 0.01-0.44 0.01c-0.11 0-0.22 0.01-0.33 0.01c-0.12-0.41-0.24-0.83-0.36-1.25c-0.12-0.42-0.24-0.85-0.36-1.27c-0.72-2.58-1.43-5.28-2.13-8.06c2.66 0.01 4.57-0.1 4.82-0.24c0.21-0.11-0.57-0.24-2.76-0.36c-0.04 0-0.09-0.01-0.13-0.01c-0.66-0.04-1.3-0.09-1.92-0.14c-0.06-0.01-0.13-0.01-0.19-0.01c-0.14-0.55-0.27-1.12-0.4-1.68c-0.15-0.59-0.28-1.2-0.42-1.8c-0.08-0.33-0.16-0.66-0.23-1c-0.11-0.48-0.22-0.97-0.32-1.45c-0.17-0.77-0.33-1.53-0.49-2.31c-0.02-0.1-0.04-0.2-0.06-0.29c-0.03-0.14-0.06-0.28-0.09-0.42c-0.01-0.04-0.02-0.08-0.02-0.12c-0.01-0.1-0.03-0.2-0.06-0.3c-0.17-0.87-0.33-1.74-0.5-2.61c3.63 0.61 6.44 0.89 6.68 0.74c0.05-0.03-0.01-0.08-0.19-0.15c-0.35-0.13-1.15-0.33-2.51-0.6c-1.49-0.3-2.86-0.63-4.17-0.99c-0.03-0.2-0.06-0.4-0.11-0.6c0.16-0.52 0.32-1.03 0.48-1.55c1-3.18 2.03-6.2 3.03-9c0.68 0.09 1.26 0.15 1.74 0.2c1.98 0.18 2.11-0.04-1.32-0.73c-0.05-0.01-0.09-0.02-0.14-0.03c-0.03-0.01-0.05-0.01-0.08-0.02c0.12-0.34 0.24-0.68 0.37-1.01c0.37-1 0.73-1.97 1.08-2.9c0.34-0.87 0.66-1.72 0.98-2.53c0.11-0.26 0.2-0.52 0.31-0.77c1.39-3.52 2.63-6.39 3.53-8.42c0.11-0.24 0.2-0.44 0.28-0.64c0.04-0.1 0.09-0.2 0.12-0.28c0.06-0.12 0.11-0.24 0.16-0.34c0.26-0.58 0.47-1.05 0.64-1.38c0.05-0.11 0.1-0.2 0.13-0.28c0.01-0.02 0.02-0.03 0.03-0.05c0.02-0.06 0.05-0.11 0.07-0.15c0.02-0.04 0.04-0.08 0.06-0.12c-0.41 1.01-0.77 2.19-1.09 3.51c-1.73 7.37-1.89 19.16-1.37 31.3c0.02 0.56 0.05 1.1 0.07 1.65c0.06 1.28 0.13 2.57 0.2 3.85c0.03 0.47 0.05 0.95 0.08 1.42c0.09 1.54 0.19 3.07 0.3 4.6c0.06 0.81 0.12 1.61 0.18 2.41c0.11 1.38 0.22 2.74 0.33 4.08c0.07 0.89 0.15 1.78 0.23 2.65c0.04 0.43 0.08 0.86 0.11 1.3c0.06 0.66 0.12 1.31 0.18 1.95c0.07 0.62 0.12 1.22 0.18 1.83c0.08 0.82 0.16 1.62 0.24 2.4c0.04 0.39 0.08 0.78 0.12 1.17c0.03 0.29 0.18 1.16 0.32 2.22c0.18 1.28 0.36 2.82 0.35 3.95c0.05 0.41 0.09 0.82 0.14 1.21c-0.08-0.07-0.15-0.13-0.23-0.19z" />
			<path id="&lt;Path&gt;" class="s0" d="m323.16 55.8l0 0c0.02 0 0.05 0.01 0.08 0.02c-0.03-0.01-0.05-0.01-0.08-0.01z" />
			<path id="&lt;Path&gt;" class="s0" d="m322.94 56.38c0 0 0 0 0 0c0.68 0.09 1.26 0.15 1.74 0.2c-0.48-0.04-1.07-0.11-1.74-0.19z" />
			<path id="&lt;Path&gt;" class="s0" d="m326.21 69.12c0.18 0.07 0.24 0.12 0.19 0.15c0.05-0.03-0.01-0.08-0.19-0.15z" />
			<path id="&lt;Path&gt;" class="s0" d="m328.9 91.9c0 0.08-0.52 0.21-1.41 0.34c0.9-0.13 1.43-0.26 1.41-0.34z" />
			<path id="&lt;Path&gt;" class="s0" d="m325.65 91.84c-0.11 0-0.21 0.01-0.32 0.01l0 0c0.11 0 0.22-0.01 0.33-0.01z" />
			<path id="&lt;Path&gt;" class="s0" d="m369.83 161.31c0.82 1.01 1.26 2.37 1.75 3.56c0.65 1.58 0.92 3.01 0.44 4.67c-0.41 1.41-1.29 2.77-2.7 3.36c-2.34 0.98-4.68-1.24-5.43-3.28c-0.58-1.58-0.48-3.34 0.18-4.83c0.22-0.5 0.4-1.04 0.7-1.5c0.46-0.73 1.08-1.33 1.82-1.75c0.81-0.46 1.76-1.04 2.58-0.73c0.23 0.09 0.46 0.25 0.66 0.5z" />
		</g>
	</g>
</svg>