<svg version="1.2" baseProfile="tiny-ps" xmlns="http://www.w3.org/2000/svg" viewBox="0 0 550 510" width="550" height="510">
	<title>Western zodiac-ai</title>
	<style>
		tspan { white-space:pre }
		.s0 { fill: #e44044 } 
	</style>
	<g id="Layer 1">
		<path id="&lt;Compound Path&gt;" fill-rule="evenodd" class="s0" d="m427.08 361.85c-1.78 10.46-14.25 33.19-13.3 19.33c1.61-23.37-17.72-29.66-25.81-33.26c-12.31-5.47-58.74-18.01-75.96-28.77c-4.79-2.99-4.47-17.18 0.98-42.55c9.72 4.12 16.61 6.65 20.66 7.59c18.1 4.22 24.46-8.87 23.19-14.76c-1.11-5.17-2.51-12.66 0-16.45c1.17-1.77 6.09-2.1 6.33-4.22c0.42-3.79-5.06-3.38-5.06-6.75c0-2.43 6.75-2.04 6.75-6.32c0-1.76-4.46-7.06-5.06-8.43c-2.65-6.13 3.22-11.96 5.9-12.23c12.65-1.27 10.66-7.31 8.01-10.54c-7.59-9.28-12.52-21.79-14.34-32.05c-0.62-3.47 2.76-8.96 5.48-13.92c7.98-14.49 2.33-35.07 0.79-42.1c-0.88-3.99-1.94-7.73-3.13-11.26c-3.95 14.73-21.25 23.72-30.55 26.37c-26.71 7.59-42.45 22.3-47.23 44.13c-8.96-15.41-24.67-12.57-28.8-6.71c-17.4 24.71 14.97 40.37 15.31 56.73c0.25 11.91-20.54 9.81-19.84 39.74c1.21 52.1-8.25 47.67-10.96 72.75c-6.64 61.66-34.82 86.29-59.46 102.89c-10.38 6.99-8.44 14.76-4.64 21.51c-20.24-9.28-16.02-32.47-6.33-40.91c15.72-13.67 19.43-27.66 22.35-39.64c7.64-31.33 6.07-52.09-4.72-62.27c2.53 59.04-20.51 53.56-42.51 65.22c-19.38 10.27-8.23 26.08-13.07 21.93c-8.86-7.59-14.34-23.61-2.95-32.89c18.26-14.88 16.45-20.66 19.82-31.21c10.58-33.07 6.14-56.41 2.11-74.64c-16.23-73.41-5.95-104.16 8.01-134.94c18.55-40.91 45.39-61.53 67.89-71.69c60.73-27.41 101.45-12.14 122.71 10.12c11.01 11.53 14.4 21.51 13.5 29.87c33.06 11.07 37.52 65.5 29.51 94.11c-8.27 29.53-12.35 62.24-10.57 83.06c2.7 31.46 18.92 46.51 33.71 56.63c8.54 5.85 13.03 16 11.24 26.52zm-78.73-179.85c-9.22-1.41-14.76-3.1-16.62-5.06c6.01-4.22 11.83-6.46 17.46-6.75c1.97 4.22 1.69 8.15-0.84 11.81z" />
	</g>
</svg>