<svg version="1.2" baseProfile="tiny-ps" xmlns="http://www.w3.org/2000/svg" viewBox="0 0 550 510" width="550" height="510">
	<title>Western zodiac-ai</title>
	<style>
		tspan { white-space:pre }
		.s0 { fill: #e44044 } 
	</style>
	<g id="Layer 1">
		<path id="&lt;Compound Path&gt;" fill-rule="evenodd" class="s0" d="m251.85 344.49c-24.54 16.01-35.9 16.26-51.05 12.81c-3.19-0.73-0.49-10.37-2.66-12.82c-1.57-1.77-6.7-2.36-8.96-3.06c-3.84-1.18-1.06-45.33 6.32-47.86c8.98-3.08 27.66 5.6 35.28 11.15c9.75 7.09 24.82 37.34 21.07 39.78zm4.95-5.38c-11.85-25.85-20.29-40.04-25.31-42.59c-6.32-3.2-15.94-6.7-31.56-7.6c1.94-10.21 6.55-17.39 13.83-21.55c8.52-4.87 45.77-5.43 55.22 10.68c7.41 12.62 12.38 25.1 13.91 51.38c-6.45 8.62-15.14 11.84-26.08 9.68zm30.84-15.42c-2.57-28.87-10.15-47.8-22.74-56.79c-14.02-10.01-34.29-7.54-47.84-5.41c2.8-9.74 10.73-17 23.8-21.79c9.21-3.37 25.06-3.28 42.7 10.43c7.03 5.46 25.67 26.79 28.05 51.23c-5.69 15.25-13.68 22.7-23.97 22.33zm-19-106.05c9.43-2.71 24.36-0.71 38.16 10.54c8.88 7.23 17.5 19.18 24.21 42.24c-3.7 12.67-9.54 18.97-17.52 18.92c-5.19-20.2-15.22-35.39-30.1-45.56c-14.99-10.25-24.92-10.66-39.56-7.96c1.39-7.77 9.66-13.83 24.79-18.18zm63.62 43.86c-7.96-30.05-25.45-46.03-52.47-47.93c4.97-9.67 13.83-13.75 26.56-12.23c24.16-1.17 37.17 11.83 39.01 39c0.79 13.04-3.58 20.1-13.11 21.17zm28.84-39.14c-0.43 7.27-4.78 12.63-13.05 16.09c-1.24-27.18-13.71-40.62-37.41-40.31c6.27-6.07 13.47-8.36 21.61-6.85c18.96-1.17 28.58 9.19 28.85 31.07zm2.36-7.67c-2.59-17.6-11.14-26.53-25.66-26.79c28.8-9.75 30.74 19.05 25.66 26.79zm5.15-11.51c0.83-11.66-3.65-18.54-13.45-20.63c17.73-16.37 31.55-20.99 41.48-13.85c4.26 5.67 6.19 12.45 5.78 20.32c-7.96 12.67-19.22 17.39-33.8 14.17zm37.5-15.88c1.79-7.21-0.18-14.11-5.91-20.7c1.7-7.46 7.85-11.18 18.45-11.14c5 2.84 9.73 8.64 14.21 17.39c-0.62 11.38-9.54 16.2-26.75 14.46zm33.17-62.64c11.56 14.3 10.52 29.41-3.13 45.32c-2.76-8.77-8.31-14.86-16.65-18.25c5.86-5.65 7.28-12.81 4.26-21.5c7.77 2.05 12.94 0.2 15.52-5.57zm-23.22-39.59c11.95 4.72 18.81 15.79 20.57 33.21c-1.71 6.61-6.42 9.1-14.14 7.5c-4.95-6.01-11.06-15.33-18.33-27.98c9.98-1.76 13.95-6 11.89-12.73zm-70.43-1.26c25.26-17.09 46.92-18.19 64.98-3.29c1.37 6.39-1.94 11.27-9.94 14.62c-13.79-8.37-28.36-7.88-43.72 1.47c-3.84 0.48-6.84-0.34-9.01-2.45c2.42-4.56 1.65-8.02-2.31-10.36zm-24.35 11.48c6.14-7.86 13.19-11.46 21.15-10.79c2.76 2.19 3.28 5.3 1.53 9.34c-5.92-1.38-12.22 0.67-18.9 6.15c-2.84-1.59-4.1-3.15-3.78-4.69zm10.05 4.23c6.24-3.49 15.64-4.01 27.55 7.59c11.04 10.76 12.1 32.29-0.81 35.92c-4.29 1.21 9.11-9.61 3.36-17.49c-2.38-3.26-3.77-6.35-16.06-1.71c-3.98 1.5-11.89 4.14-16.9 2.02c-6.1-2.58-15.47-16.09 2.86-26.33zm-163.22 218.26c1.61-2.25 1.53-5.58-0.23-9.97c7.7-2.4 9.99-6.55 6.86-12.46c2.99 4.59 6.92 4.33 11.79-0.78l2.1 4.77c-2.93 7.16-4.38 14.24-4.32 21.22c-3.61 2.19-6.48 2.59-8.62 1.2c0.79-4.34-1.74-5.67-7.57-3.98zm-2.8-13.23c-3.83-2.46-7.91-1.7-12.25 2.28c-7.51-22.66-15.77-27.4-24.77-14.22c-2.01-0.62-5.82-0.14-11.44 1.43c-0.93-1.75-1.68-5.28-2.25-10.59c10.93-15.89 24.92-22.31 41.95-19.27c10.05 3.09 15.09 14.72 15.12 34.89c-0.04 3.11-2.16 4.93-6.36 5.47zm-36.24 49.9c4.37 11.43 9.94 19.55 16.7 24.38c-5.77-0.31-9.91-1.76-12.41-4.36c-0.39 2.45 1.24 5.51 4.87 9.2c-33.25-28.37-42.66-60.68-28.21-96.94c-0.02 8.42 1.73 14.64 5.26 18.66c3.09-5.28 8.22-8.84 15.38-10.67c11.59-1.93 17.12 4.81 16.6 20.23c2.84 12.23-3.23 25.4-18.19 39.5zm101.42 21.76c0.91-6.01-0.74-8.34-4.94-6.99c-1.66-1.94-1.64-4.84 0.06-8.7c6.93-0.87 13.75-3.22 20.46-7.07l5.01 1.46c-4.42 5.5-4.16 9.43 0.78 11.79c-6.27-2.33-10.09 0.48-11.45 8.44c-4.59-1.17-7.89-0.81-9.91 1.08zm54.65 4.42c5.25 16.48 0.72 31.19-13.59 44.11c-5.33 0.14-8.93-0.14-10.79-0.83c0.82-5.77 0.79-9.62-0.08-11.53c11.88-10.66 6.1-18.22-17.35-22.69c3.38-4.83 3.6-8.98 0.65-12.45c-0.01-4.23 1.51-6.57 4.59-7.02c20-2.62 32.19 0.84 36.58 10.4zm-16.22 49.08c-34.04 19.09-67.31 14.01-99.8-15.22c4.13 3.12 7.38 4.33 9.76 3.62c-2.91-2.13-4.89-6.04-5.96-11.72c5.68 6.07 14.47 10.52 26.37 13.35c12.01-16.69 24.26-24.43 36.76-23.23c15.22-2.55 22.63 2.05 22.24 13.8c-0.87 7.34-3.73 12.89-8.56 16.65c4.45 2.97 10.85 3.89 19.2 2.76zm-64.56-168.97c0.4 2.87 2 4.83 4.79 5.87c-4.07 1.31-7.09 4.88-9.06 10.69c-4.54-4.33-6.47-9.05-5.82-14.16c1.56 0.3 4.92-0.5 10.09-2.4zm-26.74 1.13c2.85-27.17 9.8-48.31 20.39-59.17c7.63-7.83 26.51 3.2 22.51 2.8c-3.53-0.36-8.38 0.81-14.55 3.5c-1.22-2.3-4.27-1.74-5-0.71c-7.08 9.92-11.6 27.59-13.55 53.02c-3.72 1.97-6.99 2.16-9.8 0.56zm33.07-36.02c-5.74 5.91-7.93 16.32-6.58 31.24c-3.16 2.51-6.81 2.77-10.96 0.76c0.2-10.2 3.77-25.97 10.69-47.3c1.39 2.63 9.93-0.58 13.1-1.47c5.21-1.46 4.42 2.73 3.75 3.9c-2.74 4.8-7.17 9.95-10.01 12.87zm-28.6 56.37c-4.14-6.22-5.87-11.33-5.19-15.34c5 0.44 8.76 0.13 11.29-0.93c-3.65 5.3-5.68 10.72-6.1 16.27zm56.27-46.21c-2.42 0.72-7.34 3.33-14.78 7.83c-1.86-3.5 0.08-8.32 5.81-14.43c2.63-1.39 6.99-2.16 13.08-2.3c-2.38 2.38-3.76 5.35-4.12 8.91zm-5.79-13.33c4.79-13.19 13.19-23.53 25.21-31.02c13.32-3.97 20.76-3.42 22.32 1.64c-15.51 9.9-27.58 19.93-36.21 30.11c-1.59-1.4-5.36-1.65-11.32-0.73zm26.71-37.7c-3.13-1.15-11.6-7.88-25.41-20.19c1.16-2.58 2.03-5.7 2.6-9.37c26.62 5.25 41.33 15.82 44.14 31.72c-5.19-3.98-12.3-4.7-21.33-2.16zm-58.3-25.9c5.55 0.42 15.84-0.54 30.86-2.88c1.06 2.52 0.13 5.54-2.78 9.04c-5.83 1.69-14.5 3.05-26.01 4.1c-4.19-3.67-4.88-7.09-2.07-10.26zm-20.93-13.31c3.26 6.69 8.62 10.72 16.07 12.09c-1.7 3.14-1.45 6.52 0.74 10.13c-12.69-2.25-18.29-9.66-16.81-22.22zm102.61 57.95c-3.4 1.52-5.45 4.01-6.14 7.46c-2-0.06-4.98 0.12-8.96 0.54c0.54-5.33 3.65-9.51 9.35-12.52c0.7 1.31 2.62 2.82 5.76 4.52zm52.86-28.84c-22.45 2.08-39.43 10.51-50.95 25.3c-0.89-0.09-2.69-1.38-5.41-3.86c14.13-16.74 29.51-27.13 46.15-31.18c5.01 0.99 8.41 4.24 10.21 9.74zm-34.52-54.06c34.64 21.47 46.62 38.26 35.93 50.37c-0.45-5.09-4.64-8.76-12.56-11.01c-5.11-0.66-10.69-6.95-16.74-18.89c-2.43-4.6-6.47-8.77-12.1-12.52c2.72-2.28 4.54-4.93 5.47-7.94zm-53.23 5.9c2.05-2.49 2.72-4.39 2.03-5.7c21.52-8.6 37.46-9.75 47.8-3.45c-0.18 1.78-2.27 4.99-6.26 9.62c-9.78 3.78-24.3 3.62-43.57-0.47zm-10.42-26.03c-0.35 4.11 2.85 10.41 9.59 18.9c0.36 1.21-0.38 3-2.21 5.37c-10.27-7.74-12.73-15.83-7.38-24.27zm53.74 242.82c-5.11 0.71-9.85-1.17-14.23-5.65c5.79-2.04 9.31-5.1 10.58-9.18c1.08 2.78 3.05 4.36 5.93 4.72c-1.83 5.19-2.59 8.56-2.28 10.11zm60.39-4.45c-10.73 10.71-31.79 17.92-58.92 21.09c-1.63-2.79-1.48-6.06 0.45-9.8c25.4-2.25 43.02-6.98 52.86-14.18c1.02-0.75 1.54-3.8-0.77-5c2.62-6.2 3.73-11.06 3.33-14.59c-0.45-4 10.8 14.75 3.06 22.48zm-6.59-18.86c-0.85 3.18-3.96 11.75-1.32 13.12c-21.25 7.18-36.97 10.93-47.17 11.26c-2.06-4.12-1.85-7.78 0.63-10.97c14.94 1.18 25.32-1.14 31.17-6.95c2.89-2.87 7.99-7.36 12.75-10.16c1.17-0.69 5.34-1.53 3.95 3.7zm-56.53 29.43c-1.03 2.54-1.29 6.3-0.8 11.3c-4 0.73-9.13-0.94-15.4-5c5.55-0.49 10.95-2.59 16.2-6.3zm44.67-61.14c-0.43 5-1.87 7.94-4.31 8.84c-6.52 1.03-10.54-0.29-12.03-3.96c3.85-1.2 6.79-3.32 8.83-6.36c1.65 1.29 4.16 1.78 7.51 1.49zm27.27 7.01c-7.56 3.72-16.46 4.65-26.71 2.79c2.36-3.49 3.34-6.68 2.94-9.55c9.18-0.66 19.41-4.11 30.68-10.36c0.18 7.75-2.12 13.46-6.92 17.12zm23.62 34.75c-3.63-0.79-6.86-1.11-9.68-0.96c-6.48-17.33-9.69-27.66-9.63-31c5.64-7.5 7.54-14.39 5.71-20.67c13.8 8.37 18.34 25.92 13.6 52.63zm-0.3 4.06c-7.62 13.15-12.24 22.39-13.85 27.72c-3.97 1.47-6.91-0.41-8.81-5.64c5.14-10.34 9.55-17.93 13.23-22.76c4.32-1.44 7.47-1.22 9.43 0.68zm-9.02 52.05c-12.24-3.17-17.12-11.07-14.63-23.72c2.57 3.35 5.63 4.8 9.18 4.35c-1.42 7.45 0.4 13.91 5.45 19.37zm-25.21-144.81c3.99-0.03 7.44-1.23 10.33-3.57c0.1 3.57 0.58 5.96 1.44 7.18c-2.2 3.38-5.8 4.11-10.8 2.19c-0.39-2.32-0.71-4.25-0.96-5.8zm64-24.25c-11.12 13.03-27.33 22.07-48.64 27.13c-0.99-3.55-1.33-5.74-1.01-6.57c18.39-3.6 33.58-14.96 45.56-34.06c4.1 4.08 5.46 8.58 4.09 13.5zm4 3.08c1.56-8.09 0.18-13.48-4.16-16.18c15.63-4.08 25.21 14.18 28.75 54.79c-3.11-0.53-6.3-0.1-9.55 1.29c-0.81-6.71-2.71-12.2-5.72-16.44c-7.93-10.78-11.04-18.6-9.32-23.46zm25.95 43.11c0.96 12.07-7.26 25.77-24.64 41.11c-0.86-1.21-2.86-1.46-6-0.76c5.04-19.05 11.45-32.08 19.23-39.11c5.94-1.47 9.74-1.89 11.41-1.24zm-12.11 61.38c-9.94 0.96-16.05-4.88-18.33-17.54c2.94-0.56 4.87-0.41 5.79 0.46c4.54 9.84 8.72 15.54 12.54 17.08z" />
	</g>
</svg>