<svg version="1.2" baseProfile="tiny-ps" xmlns="http://www.w3.org/2000/svg" viewBox="0 0 490 411" width="490" height="411">
	<title>chinese zodiac (1)-ai</title>
	<style>
		tspan { white-space:pre }
		.s0 { fill: #000000 } 
		.s1 { fill: #ff0000 } 
	</style>
	<g id="Layer 1">
		<g id="&lt;Group&gt;">
			<g id="&lt;Group&gt;">
				<path id="&lt;Path&gt;" class="s0" d="m312.83 181.85c-0.59-0.03-9.9 0.42-9.8 0.34c-2.34 2-0.34 7.65 0.94 9.78c3.89 6.42 12.18 11.1 17.59 16.18c0.14 0.13 0.29 0.26 0.43 0.39c0.07 0.07 0.14 0.14 0.22 0.2c0.14 0.13 0.26 0.25 0.39 0.37c0.04 0.03 0.09 0.08 0.13 0.12c0.15 0.14 0.3 0.29 0.44 0.42c0.03 0.04 0.08 0.08 0.12 0.13c0.1 0.11 0.2 0.21 0.3 0.32c0.03 0.04 0.06 0.06 0.08 0.09c0.02 0.02 0.03 0.04 0.04 0.04c0.1 0.12 0.19 0.24 0.29 0.36c0.02 0.03 0.04 0.05 0.07 0.08c0.09 0.12 0.18 0.24 0.26 0.36c0.03 0.05 0.06 0.1 0.09 0.14c0.07 0.1 0.12 0.2 0.18 0.3c0.02 0.06 0.05 0.11 0.08 0.16c0.05 0.11 0.1 0.23 0.15 0.35c0.02 0.04 0.04 0.08 0.06 0.13c0.06 0.16 0.11 0.33 0.16 0.5c0.02 0.04 0.03 0.09 0.03 0.13c0.04 0.13 0.07 0.27 0.1 0.42c0.01 0.06 0.02 0.13 0.03 0.19c0.02 0.14 0.04 0.28 0.06 0.43c0 0.07 0.01 0.13 0.02 0.2c0.02 0.21 0.03 0.44 0.03 0.68c0.08 3.47 1.65 8.26-0.11 11.52c-2.93 5.37-17.21 4.29-22.44 7.64c-9.48 6.05-14.98 3.64-25.82 4.01c-1.51 0.05-3.04-0.11-4.54-0.14c-1.03-0.03-4.75 0.01-5.45 1.07c1.68-2.59 3.98-4.99 5.8-7.46c1.92-2.63 3.24-6.34 5.55-8.6c2.94 1.81 7.66 3.27 11.07 2.57c0.71-0.15 1.39-0.35 2.05-0.6c2.59-0.98 4.8-2.59 7.34-3.81c1.49-0.71 3.54-1.07 4.85-2.04c2.64-1.91-1.82-2.88-3.26-3.49c-2.37-1.02-4.75-2.06-7.12-3.1c-11.62-5.08-17.52-5.3-28.69 2.4c-5.41 3.73-8.3 9.2-12.78 13.79c-2.16 2.21-3.09 4.9-4.91 7.35c-11.42-8.85-27.34 8.7-34.15 16.63c-5.81 6.76-6.59 16.65-9.29 24.92c-0.01 0.03-0.02 0.05-0.02 0.08c-0.3 0.91-0.62 1.82-0.94 2.73c-0.05 0.14-0.1 0.27-0.15 0.41c-0.33 0.9-0.68 1.8-1.04 2.68c-3.66 8.94-9.23 17-12.44 26.14c-2.88 8.23-5.72 16.47-8.61 24.69c-1.29 3.66-3.32 8.64-2.26 12.59c0.69 2.61 2.22 4.82 3.54 7.14c2.24 3.91 3.45 8.4 4.78 12.67c-1.59 0.98-3.82 0.38-5.6 0.35c-2.57-0.03-5.13 0.03-7.7 0.03c-2.29-0.01-4.7 0.15-6.99 0.26c-0.7-4.05-1.19-8.71-0.52-12.81c1.31-7.95 2.28-15.4 0.28-23.43c-0.46-1.85-0.68-4.04-1.45-5.77c-0.8-1.79-2.39-3.19-3.05-5.09c-1.26-3.64 1.07-8.29 2.97-11.34c1.76-2.81 3.51-6.75 3.85-10.06c0.04-0.4 0.06-0.8 0.09-1.21c0.05-1.84-0.19-3.61-0.49-5.37c-0.55-2.32-1.53-4.54-2.97-6.48c-3.62-4.9-8.71-8.33-12.21-13.69c-4.45-6.81-9.74-13.14-12.96-20.68c-0.98-2.27-1.8-4.59-2.19-7.04c-0.71-4.53-0.63-9.19 0-13.72c0.29-1.96 0.7-3.9 1.12-5.84c0.32-1.47 0.9-2.81 0.94-4.35c0.01-0.37 0.04-1.04-0.38-1.24c-1.73 0.76-5.91 5.21-8.51 7.11c-5.58 4.07-11.23 8.39-17.31 11.75c-4 2.21-7.62 5.05-11.62 7.28c-12.49 6.96-28.64 10.64-42.8 7.58c-16.4-3.56-23.02-20.97-23.28-36.15c-0.27-15.78 6.33-33.02 16.79-44.92c11.34-12.89 27.45-22.5 42.56-30.27c4.7-2.41 9.53-4.56 14.15-7.13c5.17-2.86 10.56-5.29 15.83-7.96c5.26-2.67 10.48-5.58 15.08-9.32c0.79-0.64 1.63-1.53 2.55-2.38c-0.38-0.38-0.69-0.87-0.91-1.47c-1.83-5.02-1.32-11.77 1.78-16.17c2.91-4.12 7.81-5.5 12.09-7.68c2.39-1.21 5.44-2.96 7.1-5.14c0.92-1.2 1.84-3.14 3.56-3.26c2.13-0.14 2.95 2.36 3.21 4.05c0.44 2.9-0.23 6.36-1 9.16c-2.17 7.93-7.72 14.32-14.44 18.86c-1.74 1.17-3.56 1.89-5.55 2.44c-4.72 5.25-11.1 8.74-17.36 11.91c-8.23 4.17-16.21 8.71-24.31 13.16c-15.53 8.52-32.76 15.13-45.48 28.06c-8.15 8.29-14.29 19.57-17.15 30.78c-2.86 11.18-3.96 24.65 3.24 34.47c12.8 17.46 36.77 6.89 51.78-1.33c5.67-3.1 11.47-6.77 16.47-10.87c8.17-6.69 16.85-14.31 23.57-22.48c6.35-7.71 11.15-17.1 17.07-25.21c10.81-14.82 22.58-28.92 34.56-42.8c11.35-13.16 20.32-28.34 32.69-40.72c9.34-9.34 19.07-18.41 29-27.13c8.45-7.43 18.11-14.59 29.17-17.41c10.6-2.71 21.46-0.85 30.77 4.79c5.02 3.04 10.08 6.96 14.17 11.18c5.03 5.21 9.59 10.81 14.44 16.17c4.58 5.08 9.65 9.75 13.61 15.36c2.68 3.8 3.82 9.15 7.1 12.32c4.61 4.45 11.79 6.84 17.23 10.16c2.83 1.73 4.5 3.62 5.42 5.7c2.03-0.83 4.02-1.5 5.59-1.96c5.35-1.56 10.37-0.83 15.73 0.18c10.81 2.04 19.27 9.74 30.76 9.54c5.54-0.09 12.07-1.21 16.89-4.11c-0.5 0.31-1.63 1.03-2.09 1.39c-0.4 0.31-0.8 0.62-1.2 0.93c-1.77 1.42-3.82 2.52-5.75 3.62c-1.63 0.94-3.29 1.85-4.99 2.65c-5.1 2.38-8.95 3.8-14.57 3.33c-5.28-0.45-10-2.23-15.19-2.9c-7.22-0.95-17.36-2.08-24.66 1.29c0 3.38 0.5 6.72 0.64 10.11c0.19 4.66-1.16 7.77-2.25 12.14c-1.98 7.93-4.29 14.56-7.87 22.04c-2.64 5.53-6.8 12.18-7.44 18.36c-0.62 5.9 2.3 14.4-7.38 14c-3.76-0.16-7.32-1.85-11.19-2.01c-4.15-0.16-6.57-0.72-9.19-4.17c-2.33-3.06-3.03-7.5-5.58-10.24c-2.42-2.59-6.77-1.47-8.87-3.59c-1.81-1.83-0.44-2.85-3.01-3.8c-1.55-0.57-3.54 0.4-5.04-0.36c-3.35-1.69-0.73-5.86-4.78-6.05z" />
				<path id="&lt;Path&gt;" class="s1" d="m364.46 150.83c-0.21 5.91 0.09 9.47 0.92 10.68c1.23 1.81-2.85-2.46-3.05-4.27c-0.13-1.21 0.58-3.34 2.13-6.41z" />
				<path id="&lt;Path&gt;" class="s1" d="m216.85 226.17c-0.04-2.01-0.05-2.82 0.04-1.57c0.03 0.39 0.02 0.92-0.04 1.57z" />
			</g>
			<g id="&lt;Group&gt;">
				<path id="&lt;Path&gt;" class="s1" d="m384.09 134.42c-0.97-1.39-0.4-4.28-0.24-5.8c0.21-1.91-0.35-3.91-0.03-5.81c0.4-2.33 4.01-2.73 6.03-3.32c5.35-1.56 10.37-0.83 15.73 0.18c10.81 2.04 19.27 9.74 30.76 9.54c5.54-0.09 12.07-1.21 16.89-4.11c-0.5 0.31-1.63 1.03-2.09 1.39c-0.4 0.31-0.8 0.62-1.2 0.93c-1.77 1.42-3.82 2.52-5.75 3.62c-1.63 0.94-3.29 1.85-4.99 2.65c-5.1 2.38-8.95 3.8-14.57 3.33c-5.28-0.45-10-2.23-15.19-2.9c-5.79-0.75-11.71-1.41-17.54-0.64c-1.75 0.23-6.59 2.42-7.7 1.09c-0.04-0.04-0.07-0.09-0.1-0.13z" />
				<path id="&lt;Path&gt;" class="s1" d="m364.46 150.83c-0.21 5.91 0.09 9.47 0.92 10.68c1.23 1.81-2.85-2.46-3.05-4.27c-0.13-1.21 0.58-3.34 2.13-6.41z" />
				<path id="&lt;Path&gt;" class="s1" d="m216.85 226.17c-0.04-2.01-0.05-2.82 0.04-1.57c0.03 0.39 0.02 0.92-0.04 1.57z" />
			</g>
		</g>
	</g>
</svg>