<svg version="1.2" baseProfile="tiny-ps" xmlns="http://www.w3.org/2000/svg" viewBox="0 0 550 510" width="550" height="510">
	<title>Western zodiac-ai</title>
	<style>
		tspan { white-space:pre }
		.s0 { fill: #e44044 } 
	</style>
	<g id="Layer 1">
		<path id="&lt;Path&gt;" class="s0" d="m434.81 170.78c34.78 67.54 39.43 123.55 13.95 168.04c-2.43-4.45-7.89-9.1-16.38-13.95c0.81 35.58-22.24 78.86-69.16 129.82c-9.3-16.58-24.47-24.06-45.5-22.45c-21.03 8.9-44.28 8.09-69.76-2.43c0 7.28 4.45 13.95 13.35 20.02c-63.9-7.28-89.38-40.04-76.44-98.27c0.23-5.02 0.05-8.33-0.49-10.7c9.23-22.88 19.7-37.11 31.43-42.7c-10.92-68.35 10.51-104.34 64.3-107.98c47.32-8.49 52.98-35.79 16.98-81.89c-27.9-2.02-45.7 12.13-53.38 42.46c-26.72 2.51-42.83-7.51-52.17-17.76c-2.29-59.31 44.21-84.74 139.53-76.27c-9.71 0.4-16.58 4.65-20.63 12.74c88.97 0.4 139.12 36.6 150.44 108.58c-8.9-4.45-17.59-6.88-26.08-7.28z" />
		<path id="&lt;Path&gt;" class="s0" d="m263.13 162.89c-2.43-17.39 5.26-27.91 23.05-31.55c16.18 22.25 11.12 36.2-15.16 41.86c-1.21-3.23-3.84-6.67-7.89-10.31z" />
		<path id="&lt;Compound Path&gt;" fill-rule="evenodd" class="s0" d="m254.63 183.32c-8.46 10.58-63.47 30.8-51.83 109.09c-17.99 8.46-25.63 41.48-27.58 39.88c-9.68-7.89-23.86 6.92-32.2 11.38c-22.34 11.94-31.24-16.4-31.54-18.2c-1.33-7.97-2.56-13.64-3.95-18.2c2.6 0.9 6.69 3.96 10.42 5.08c13.95 4.25 34.46-5.87 44.49-10.55c9.1-4.25-29.46 6.49-38.97 4.18c-6.22-1.51-12.81-3.93-18.24-5.94c-0.54-1.24-1.01-1.31-1.62-2.48c-6.65-12.74 0.58-27.58-5.68-32.43c6.09-0.96 13.69-4.01 15.99-13.07c1.27-5 1.22-10.31-20.62 0c-2.46 1.16-5.76-0.66-7.26-5.34c0.21-0.76 0.59-1.42 1.19-1.93c9.2-7.85 56.82-40.23 59.45-53.39c1.21-6.07-5.46-5.44-5.46-16.98c0-6.88 14.18-18.37 42.55-34.48c8.47 14.81 33.85 22.22 60.3 19.04c8.63-1.04 17.37 15.84 10.58 24.33zm-70.97 17.18c-9.3-11.32-18.4-11.73-27.3-1.21c8.49 9.71 17.59 10.11 27.3 1.21z" />
	</g>
</svg>