<svg version="1.2" baseProfile="tiny-ps" xmlns="http://www.w3.org/2000/svg" viewBox="0 0 490 410" width="490" height="410">
	<title>chinese zodiac (1)-ai</title>
	<style>
		tspan { white-space:pre }
		.s0 { fill: #ff0000 } 
		.s1 { fill: #000000 } 
	</style>
	<g id="Layer 1">
		<path id="&lt;Path&gt;" class="s0" d="m279.05 178.16l6.44-10.69l62.75-0.62l0.91 11.31l-36.99 8.34l-33.12-8.34z" />
		<g id="&lt;Group&gt;">
			<path id="&lt;Path&gt;" class="s1" d="m358.72 336.01c0.9 2.76 0.32 5.24-0.38 6.12c-1.15 1.44-5.44 4.41-11.36 4.41c-5.17 0-10.41-2.2-15.57-6.53c-10.83-9.09-10.19-29.27-9.72-43.99c0.06-1.94 0.12-3.77 0.15-5.47c0.05-3.19-0.15-6.41-0.35-9.52c-0.16-2.6-0.33-5.29-0.35-7.92l0-1.02c0-1.94 0-3.78-0.44-5.23c-0.05-1.02 0.06-2.3-1.02-2.83c-0.3-0.15-0.62-0.25-0.95-0.3c-0.58-0.08-1.06-0.01-1.63 0.08c-0.61 0.1-1.25 0.13-1.83 0.34c-1.15 0.42-2.34 0.72-3.38 1.39c-0.66 0.42-1.35 0.81-2.03 1.2c-1.34 0.78-2.7 1.52-4.06 2.25c-0.82 0.52-1.65 1.04-2.48 1.52c-4.34 2.48-8.89 4.45-13.33 6.32c-26.97 12.82-30.35 21.74-31.03 28.03c-0.13 1.63-0.3 3.33-0.78 5.21c-1.17 4.62-3.66 7.98-8.33 11.23c-1.08 0.75-2.53 1.45-4.06 2.19c-3.03 1.46-6.16 2.97-7.4 5.34l-0.53 1.02l1.09 0.37c4.05 1.38 8.85 2.05 14.68 2.05c3.65 0 7.22-0.27 9.58-0.47c2.9-0.25 4.67-1.13 6.72-2.15c0.56-0.28 1.14-0.57 1.79-0.86c0.99-0.45 2.2-0.69 3.6-0.69c3.78 0 8.12 1.7 10.33 4.05c1.72 1.83 1.53 4.47 1.26 5.88c-0.61 3.21-2.66 6.23-4.98 7.33c-3.47 1.64-8.31 2.47-14.4 2.47c-3.07 0-6.42-0.21-10.25-0.63c-1.89-0.21-3.87-0.47-5.78-0.73c-2.4-0.32-4.89-0.65-7.24-0.88c-1.85-0.18-3.79-0.26-5.92-0.26c-4.43 0-8.97 0.39-13.22 0.81c-0.72 0.07-1.44 0.15-2.18 0.22c-3.39 0.35-6.91 0.72-10.35 0.72c-6.24 0-10.92-1.24-14.74-3.9c-2.69-1.87-2.47-3.91-1.1-7c0.92-2.09 1.03-3.69 0.35-4.92c-1.07-1.92-3.74-2.3-6.55-2.69c-0.5-0.07-1.01-0.14-1.52-0.22c-4.58-0.73-8.64-3.21-12.08-7.37c-0.14-0.17-0.26-0.35-0.4-0.52c-0.66 0.48-1.66 1.27-3.17 2.56c-7.66 7.33-18.28 13.66-28.98 17.21c-5.01 1.66-9.64 2.88-14.16 3.71c-5.06 0.92-10.58 1.37-16.88 1.37c-6.79 0-13.73-0.52-20.45-1.02c-3.5-0.26-7.12-0.53-10.66-0.72c-0.62-0.04-1.36-0.04-2.19-0.06c-4.5-0.06-11.31-0.16-12.04-4.24c-0.44-2.46 0.35-6.37 2.19-8.05c3.68-3.39 11.45-3.47 17.13-3.53c0.95-0.01 1.83-0.02 2.64-0.04c2.75-0.09 5.56-0.11 8.28-0.13c2.27-0.02 4.54-0.04 6.81-0.09c6.11-0.15 11.64-0.61 16.91-1.41c13.89-2.1 31.07-4.69 41.78-15.75c0.28-0.32 0.54-0.6 0.79-0.86c0.08-0.09 0.17-0.18 0.25-0.27c1-1.14 1.95-2.32 2.87-3.5c0.56-1.39 0.93-3.66 1.38-8.21c0.04-0.95 0.14-1.88 0.26-2.81c0.01-0.13 0.02-0.26 0.04-0.39c0.09-0.45 0.15-0.91 0.24-1.36c2.27-11.55 10.73-23.79 17.29-30.75c5.84-6.2 12.78-11.52 19.48-16.67c2.78-2.14 5.66-4.35 8.41-6.59c15.15-12.32 29.8-25.82 43.97-38.87l5.43-4.99c2.82-2.59 5.74-5.26 8.5-8.02c0.13-0.13 3.21-3.25 6.83-9.64c9.2 3.14 20.18 4.74 32.68 4.74c15.2 0 29.32-2.39 36.97-3.96c1.24 7.87 2.5 16.22 3.29 24.8c0.17 1.84 0.38 3.68 0.59 5.54c0.82 7.23 1.67 14.71-0.04 21.84c-0.72 3-2.04 5.62-3.44 8.4c-0.46 0.9-0.91 1.81-1.35 2.74c-1.52 3.2-1.96 6.56-2.4 9.81c-0.19 1.44-0.39 2.92-0.68 4.37c-1.04 5.24-1.31 10.03-1.6 15.1c-0.1 1.71-0.19 3.44-0.33 5.21c-0.28 3.77-0.96 7.58-1.63 11.26c-0.78 4.36-1.59 8.86-1.77 13.41c-0.1 2.74-0.37 5.28-0.62 7.73c-0.97 9.24-1.74 16.54 9.28 19.5c6.88 1.85 9.38 5.45 10.26 8.15z" />
			<path id="&lt;Path&gt;" class="s1" d="m387.76 94.46c7.98 3.29 19.94 0.64 26.21-4.1c0.39 2.31 0.22 7.27-6.86 11.32c-5.25 3-14.01 9.3-22.48 15.38c-8.31 5.97-40.05 23.56-36.92 46.01c0.17 1.23 0.36 2.5 0.54 3.77c-10.64 3.35-21.52 5.06-32.37 5.06c-12.81 0-23.03-2.27-30.56-3.97c3.04-7.88 5.05-16.51 5.93-25.69c0.04-0.43 0.1-0.84 0.15-1.27c2.43 15.53 12.62 23.37 13.12 23.75l0.48 0.36l0.54-0.25c36.22-17.04 20.71-62.46 18.83-67.58c-0.19-0.51 14.79 49.02-19.11 65.52c-2.36-2.03-13.05-12.23-12.37-30.22c6.46-26.89 27.83-47.52 47.72-54.82c13.1-4.81 18.58-5.1 24.39-5.41c4.96-0.26 10.1-0.53 20.11-3.49c12.02-3.55 20.64-5.75 26.49-5.75c5 0 7.75 1.58 8.93 5.12c2.64 7.92-0.08 16.17-6.46 19.61l-0.75 0.56c-10 7.72-26.06 5.89-25.56 6.1z" />
		</g>
		<path id="&lt;Path&gt;" class="s0" d="m357.26 87.76c-2.04 0.62-6.3 1.19-12.79 1.72c6.59-2.04 10.87-3.52 12.83-4.46c2.94-1.41 3.02 1.81-0.04 2.74z" />
	</g>
</svg>