<svg version="1.2" baseProfile="tiny-ps" xmlns="http://www.w3.org/2000/svg" viewBox="0 0 550 510" width="550" height="510">
	<title>Western zodiac-ai</title>
	<style>
		tspan { white-space:pre }
		.s0 { fill: #e44044 } 
	</style>
	<g id="Layer 1">
		<path id="&lt;Compound Path&gt;" fill-rule="evenodd" class="s0" d="m459.99 120c-6.53 76.68-51.77 104.16-99.82 113.15c-5.17 35.29-24.4 48.05-40.07 45.91c-34.26-4.7-29.31-32.64-26.52-42.32c-10.28-0.4-19.73-1.02-27.85-1.45c-28.33-1.47-35.92 21.93-40.54 32.86c-7.18 16.99-17.78 20.89-29.55 14.33c0.21-2.18 4.53-7.04 7.18-8.13c1.56 0.24 2.97 0.05 4.18-0.6c7.69-4.12 4.26-25.48-7.66-47.71c-11.92-22.23-25.74-32.38-34.36-33.89c-4.42-0.78-4.97 2.47-5.57 3.85c-3.63 1.66-4.39 2.08-7.07 4.77c-2.83-23.9 16.81-22.28 25.45-19.01c28.69 10.89 54.51-3.9 59.79-21.1c2.27-7.4 4.74-14.3 7.37-20.76c-10.11-2.32-36.24-11.52-24.12-43.45c5.7-15.01 26.63-25.89 60.98-12.67c44.02-40.9 101.59-31.66 137.7-23.37c26.21 6.02 39.71 25.88 40.49 59.58zm-189.35-24.35c-18.22-6.07-29.37 0.02-32.51 8.28c-6.28 16.55 5.21 22.53 11.86 24.54c6.2-12.94 13.15-23.77 20.64-32.83zm74.04 139.8c-13.16 1.47-26.24 1.81-38.52 1.63c-1.56 6.42-2.84 20.67 15.65 23.2c8.8 1.21 19.54-5.73 22.88-24.84zm-147.14 141.64c10.85 25.32 19.45 65.6-17.22 77.02c-70.43 21.94-63.07-74.25-20.25-45.31c-31.15 4.7-0.51 39.33 14.99 9.87c5.98-11.37-1.94-29.54-17.31-65.62c-17.09-40.12-1.89-100.03 39.67-120.42c7.67 11.04 10.42 22.51 8.25 34.42c-30.52 14.78-33.23 51.46-8.12 110.04zm-50.23-48.57c-19.45-53.06-2.55-99.52 35.52-118.19c4.07 3.14 7.44 7.94 10.12 14.4c-31.01 15.33-48.46 53.25-45.64 103.79zm-25.32 89.75c-23.37-18.62-11.38-70.79 25.72-43.73c-32.59-1.6-18.85 19.13-7.42 23.97c0.68 0.29-16.41 1.91-18.3 19.76zm-17.1-32.02c-28.15-17.9-13.33-69.59 24.07-45.63c-32.59-1.6-19.52 19.45-9.45 22.83c0.7 0.23-15.01 3.61-14.62 22.8zm32.44-79.42c-22.53-47.52-11.97-90.96 29.25-111.19c3.81 1.33 7.03 3.47 9.64 6.44c-35.04 18.2-47.35 58.96-38.9 104.75zm23.98 63.69c7.77 17.45 11.61 30.12 11.52 38c-0.15 12.35-10 25.46-23.86 15.7c0.95-6.83 6.07-10.61 15.38-11.32c-1.67-6.33-7.78-10.73-18.34-13.2c13.96 2.87 19.07-6.86 15.3-29.18zm-3.04-4.41c6.32 25.84-10.13 38.88-25.33 19.2c-1.65-2.14 4.41-8.22 21.32-7.88c-3.67-8.04-11.41-12.71-23.21-14.02c13.71-0.1 19.94-7.45 18.68-22.06c1.6 7.24 4.45 15.5 8.54 24.76z" />
	</g>
</svg>