<svg version="1.2" baseProfile="tiny-ps" xmlns="http://www.w3.org/2000/svg" viewBox="0 0 490 410" width="490" height="410">
	<title>chinese zodiac (1)-ai</title>
	<style>
		tspan { white-space:pre }
		.s0 { fill: #ff0000 } 
		.s1 { fill: #000000 } 
	</style>
	<g id="Layer 1">
		<g id="&lt;Group&gt;">
			<path id="&lt;Path&gt;" class="s0" d="m291.08 122.32c-1.25 4.76-2.61 9.57-5.99 13.09c-1.6 1.66-3.26 3.35-4.96 5.06c-3.94-2.37-9.34-4.18-16.79-4.56c-8.4-0.42 12.7-9.63 25.59-14.92c0.75 0.43 1.45 0.88 2.15 1.33z" />
			<path id="&lt;Path&gt;" class="s0" d="m304.11 90.72c-0.5 0.86-0.96 1.71-1.42 2.57c-3.83 7.22-6.93 14.81-9.7 22.5c-0.46 1.3-0.85 2.66-1.23 4.05c-0.23 0.81-0.45 1.66-0.68 2.48c-0.69-0.45-1.4-0.9-2.15-1.33c-6.6-3.88-15.59-6.79-27.86-7.41c-13.47-0.68 17.82-14.68 39.7-23.76c1.15 0.29 2.27 0.58 3.34 0.91z" />
			<path id="&lt;Path&gt;" class="s0" d="m328.72 62c-0.09 0.07-0.18 0.15-0.27 0.22c-8.76 6.9-16.62 15.92-22.55 25.5c-0.63 0.99-1.22 1.99-1.79 3.01c-1.07-0.33-2.18-0.62-3.34-0.91c-4.44-1.07-9.45-1.82-15.11-2.1c-14.57-0.75 19.5-15.95 43.06-25.71z" />
			<path id="&lt;Path&gt;" class="s0" d="m164.95 198.64c-3.07 3.41-5.7 7.4-7.94 12.25c-1.1 2.36-1.98 4.64-2.69 6.91c-9.91 13.05-15.61 28.31-20.31 43.57c-1.38 4.4-3.37 7.62-5.78 9.88c-3.13 2.95-7 4.3-11.28 4.62c-1.36 0.1-2.76 0.1-4.2-0.01c-3.72-0.26-7.87-0.54-11.57-2.31c-3.54-1.71-7.62-4.07-13.53-4.92c-1.4-0.2-2.89-0.35-4.47-0.43c-2.19-0.11-2.38-0.81-1.25-1.89c1.94-1.85 7.89-4.81 14.39-7.74c-0.31-0.12-0.65-0.24-0.98-0.37c-5.5-2.02-12.16-3.42-20.26-3.84c-15.88-0.82 46.04-34.23 72.16-47.93c5.89-3.1 9.98-5.19 10.9-5.68c0.07-0.03 0.12-0.06 0.15-0.07c0.03 0 0.04-0.01 0.06-0.01l0.01-0.01c2.15-0.83 4.34-1.52 6.58-2.02z" />
			<path id="&lt;Path&gt;" class="s1" d="m416.6 111.08c0.01 0.84-0.05 1.64-0.18 2.4c-2.48 12.08-13.35 10.73-21.87 4.75c-1-0.42-2.02-0.84-3.04-1.24c-11.51-5.01-26.45-6.37-29.16-19.94c-1.36 5.43-2.71 10.86-3.2 16.21c-0.29 1.28-0.58 2.53-0.88 3.77c-2.12 8.69-4.52 16.88-6.18 27.83c0.11 0.05-0.6 11.31-0.53 11.46c4.55 9.69 4.26 19.63 2.31 29.95c-0.88 4.66-2.1 9.39-3.37 14.23c4.68 2.82 10.05 6.83 15.53 11.29c10.36 8.39 21.21 18.41 28.96 25.28c0.38 0.2 0.77 0.41 1.15 0.61c0.48 0.23 0.65 0.8 0.56 1.29c-1.42 6.82-6.26 10.85-11.95 14.41c-8.78 5.47-16.4 12.27-24.19 19.01c-6.05 5.23-12.86 12.25-20.9 14.16c-9.14 2.18-18.63 1.34-27.57 4.51c-0.81 0.29-1.41-0.71-1.06-1.37c2.65-5.08 4.89-10.32 7.93-15.16h0.01c0.71 0.45 1.24 0.42 1.56-0.09c0.25-0.36 0.55-0.83 0.91-1.4c0.07 0 0.13-0.01 0.2-0.01c8.12-0.2 15.75 0.49 22.65-4.66c8.95-6.69 16.6-14.72 24.62-22.46c0.16-0.15 0.34-0.22 0.5-0.22c0.64-0.72 1.28-1.44 1.94-2.14c0.16-0.18 0.15-0.37 0.01-0.56c-6.92-1.81-15.94-7.41-28.62-13.25c-0.07-0.03-0.14-0.05-0.2-0.08c-0.05-0.03-0.09-0.05-0.14-0.07c-10.51-5.56-14.98-9.12-13.4-10.69c-2.04 0.9-4.13 1.81-6.27 2.7c-15.56 6.6-39.6 10.93-53.94 16.39c-11.43 4.58-22.79 8.08-31.06 8.38c-2.46 12.56-11.69 22.25-21.57 31.25c-7.38 6.72-15.13 13.05-20.65 19.89c-0.08 0.09-0.16 0.2-0.25 0.3c-4.29 5.39-7.1 12.03-5.29 19.01c1.48 5.73 4.28 10.9 5.01 16.85c0.09 0.72 0.16 1.44 0.23 2.16v0.01c0.01 0.07 0.01 0.12 0.01 0.19c0.16 1.77 0.23 3.54 0.26 5.31c-0.05 11.77-2.99 29.6-3.34 33.74c-5.23-0.03-10.24-0.03-15.34-0.03c-0.45-0.62-0.67-0.98-0.9-1.3c-0.18-0.25-0.86-0.42-1.89-0.53c2.8-8.34 5.97-18.46 6.2-27.27c0.26-9.72-4.2-17.09-8.87-25.22c-2.09-3.64-8.13-11.43-6.44-16.14c2.39-6.67 13.7-15.27 9.76-23.08c-11.4-12.02-23.85-30.06-23-47.25c0.3-6.01 0.99-11.17 2.63-16.44c0.71-2.27 1.59-4.55 2.69-6.91c2.24-4.85 4.87-8.84 7.94-12.25c5.46-6.07 12.31-10.3 20.84-14.23c4.59-2.12 9.56-3.76 14.85-4.85c17.53-3.64 34.13-9.58 50.41-17.01c10.18-4.64 19.58-12.72 27.86-20.88c0.41-0.41 0.81-0.81 1.22-1.21c1.7-1.71 3.35-3.41 4.96-5.06c3.38-3.51 4.74-8.32 5.99-13.09c0.23-0.83 0.45-1.67 0.68-2.48c0.38-1.39 0.77-2.74 1.23-4.05c2.77-7.68 5.86-15.27 9.7-22.5c0.46-0.86 0.92-1.71 1.42-2.57c0.57-1.02 1.17-2.02 1.79-3.01c5.93-9.57 13.79-18.6 22.55-25.5c0.1-0.07 0.18-0.15 0.27-0.22c0.5-0.39 1.02-0.79 1.52-1.17c7.36-5.5 17.07-9.91 26.32-9.98c2.58-0.5 5.15-0.77 7.68-0.75c3.63-7.06 9.42-10.39 14.84-15.91c0.71-0.72 2.13 0 1.78 1.02c-2.32 6.84-3.18 11.23-2.76 18.37c1.28 0.69 2.52 1.51 3.75 2.44c0.2 0.15 0.3 0.34 0.34 0.54c5.13 3.6 8.54 9.16 11.24 14.84c3.9 8.21 7.97 14.98 13.67 22.1c3.84 4.79 9.46 11 9.49 17.57z" />
			<path id="&lt;Path&gt;" class="s1" d="m237.87 374.98c-5.57 0.3-9.26 0.07-14.47 0c-0.61-0.49-1.18-0.94-1.49-1.18c-0.24-0.2-0.94-0.18-1.96 0.01c0.37-8.78 0.61-19.4-1.62-27.93c-2.46-9.41-8.78-15.26-15.52-21.78c-3.03-2.92-11-8.72-10.67-13.71c0.27-4.2 4.14-8.84 3.37-12.88c5.53-6.84 13.27-13.17 20.65-19.89c0.08 2.02 0.16 4.05-0.01 6.05c-0.33 3.68-1.21 7.41-1.53 11.13c-0.46 5.13-3.29 11.74-0.77 16.62c1.21 2.35 3.4 3.56 5.4 5.13c4.36 3.44 7.67 8.34 9.86 13.43c0.29 0.67 0.56 1.34 0.83 2.02c0.03 0.07 0.04 0.13 0.07 0.19c0.64 1.64 1.21 3.34 1.72 5.02c3.2 11.32 5.35 33.67 6.15 37.75z" />
			<path id="&lt;Path&gt;" class="s1" d="m416.47 236.06c-1.09 9.33-5.13 17.95-5.23 27.44c-0.01 0.87-1.14 1.09-1.66 0.53c-3.86-4.22-8.01-8.13-11.51-12.67c-0.18-0.19-0.33-0.41-0.49-0.61c-0.34-0.45-0.07-0.98 0.33-1.15c-0.29-0.25-0.46-0.63-0.39-1.07c0.03-0.06 0.04-0.12 0.05-0.19c2.59-7.7 5.87-14.62 3.39-22.86c-3.22-10.71-8.12-20.65-12.64-30.83c-0.08-0.2-0.1-0.39-0.04-0.54c-0.45-0.84-0.91-1.7-1.35-2.57c-0.11-0.2-0.3-0.26-0.52-0.2c-3.81 5.51-11.38 11.59-20.39 20.47c-5.49-4.47-10.85-8.47-15.53-11.29c1.26-4.83 2.48-9.57 3.37-14.23c0.2-0.14 0.41-0.26 0.61-0.37c11.39-6.48 22.99-12.57 34.5-18.79c0.33-0.29 0.65-0.58 0.98-0.88c0.38-0.37 0.98-0.34 1.4-0.08c5.9 3.68 8.04 9.61 9.43 16.17c2.12 10.13 5.89 19.62 9.55 29.24c2.84 7.48 7.1 16.28 6.13 24.49z" />
			<path id="&lt;Path&gt;" class="s0" d="m342.75 229.73l-0.01 0.01c-0.07-0.04-0.14-0.07-0.19-0.09c0.07 0.03 0.14 0.05 0.2 0.08z" />
			<path id="&lt;Path&gt;" class="s0" d="m386.43 77.61c-0.61 1.93-2.08 2.53-4.41 1.82l-6.08-5.02l10.49 3.19z" />
		</g>
	</g>
</svg>