<svg version="1.2" baseProfile="tiny-ps" xmlns="http://www.w3.org/2000/svg" viewBox="0 0 550 510" width="550" height="510">
	<title>Western zodiac-ai</title>
	<style>
		tspan { white-space:pre }
		.s0 { fill: #e44044 } 
	</style>
	<g id="Layer 1">
		<path id="&lt;Path&gt;" class="s0" d="m330.25 360.14c-51.89 11.1-85.66 10.44-101.33-1.96c-8.81-38.18-29.53-58.74-62.17-61.68c16.8-41.48 43.2-61.1 71.13-69.48l-1.38-7.7c-0.72-3.99 1.93-7.81 5.92-8.53c3.99-0.72 7.81 1.93 8.53 5.92l1.26 6.95c7.29-1.26 14.58-1.89 21.75-2.07c8.38-0.21 16.15 0.31 23.34 1.4l1.13-6.28c0.72-3.99 4.53-6.64 8.53-5.92c3.99 0.72 6.64 4.54 5.92 8.53l-1.23 6.8c37.71 10.83 61.37 34.29 70.98 70.37c-37.86 4.57-55.32 25.78-52.38 63.64z" />
		<path id="&lt;Path&gt;" class="s0" d="m156.84 196.64c5.88 5.87 13.87 8.32 23.99 7.34c6.85 12.73 9.63 27.74 8.33 45.04c-5.88 3.59-11.75 9.63-17.63 18.11c-36.23-27.74-41.12-51.24-14.69-70.49z" />
		<path id="&lt;Path&gt;" class="s0" d="m181.31 198.11c-22.71-0.05-31.85-12.12-27.41-36.22c1.2-6.51 3.38-16.63 15.66-21.54c8.59-3.43 29.46-0.98 28.88 21.54c-0.49 19.09-6.36 34.27-17.13 36.22z" />
		<path id="&lt;Path&gt;" class="s0" d="m215.09 74.26c-24.48 20.56-26.44 36.71-18.61 39.16c8.39 2.62 12.31-4.07 11.75-20.07c18.93 17.62 15.83 33.29-9.3 46.99c-8.81-9.46-17.46-11.75-25.94-6.85c-1.96-41.12 12.07-60.86 42.1-59.23z" />
		<g id="&lt;Group&gt;">
			<path id="&lt;Path&gt;" class="s0" d="m373.26 263.7c-5.87-8.48-11.75-14.52-17.62-18.11c-1.3-17.3 1.47-32.31 8.32-45.04c10.12 0.98 18.11-1.47 23.99-7.34c26.43 19.25 21.54 42.75-14.69 70.49z" />
			<path id="&lt;Path&gt;" class="s0" d="m346.34 158.45c-0.58-22.52 20.29-24.97 28.88-21.54c12.28 4.91 14.46 15.03 15.66 21.54c4.44 24.1-4.7 36.18-27.41 36.22c-10.77-1.96-16.64-17.13-17.13-36.22z" />
			<path id="&lt;Path&gt;" class="s0" d="m371.79 130.06c-8.49-4.9-17.13-2.61-25.94 6.85c-25.13-13.71-28.23-29.37-9.3-46.99c-0.55 16 3.36 22.69 11.75 20.07c7.83-2.45 5.87-18.6-18.61-39.16c30.03-1.63 44.06 18.11 42.1 59.23z" />
		</g>
		<g id="&lt;Group&gt;">
			<path id="&lt;Path&gt;" class="s0" d="m157.1 302.39c27.54 0.4 43.91 8.38 43.11 15.17c-0.67 5.71-15.18 5.84-43.51 0.4c-3.19-4.52-3.06-9.71 0.4-15.57z" />
			<path id="&lt;Path&gt;" class="s0" d="m153.91 301.19c-5.06 2.93-5.72 7.85-1.99 14.77c-14.11-2.13-23.42-6.65-27.95-13.57c0-6.65 2.79-10.38 8.38-11.18c10.38 1.33 17.56 4.66 21.55 9.98z" />
			<path id="&lt;Path&gt;" class="s0" d="m123.97 289.62c-4.79 4.79-6.25 9.05-4.39 12.78c-7.18 1.33-15.43-1.2-24.75-7.58c-2.93-3.73-1.73-6.79 3.59-9.18c11.98-0.8 20.49 0.53 25.55 3.99z" />
			<path id="&lt;Path&gt;" class="s0" d="m91.64 284.83c-3.46 2.66-4.26 5.32-2.39 7.99c-9.31 1.6-16.77 0.13-22.36-4.39c-2.39-6.92 5.86-8.12 24.75-3.59z" />
			<path id="&lt;Path&gt;" class="s0" d="m188.24 324.34c3.46 0.8 7.32 0.53 11.58-0.8c4.52 1.6 5.85 3.86 3.99 6.79c-4.26 6.12-18.1 9.18-41.52 9.18c-5.85-2.13-7.72-7.05-5.59-14.77c6.92-3.46 17.43-3.59 31.53-0.4z" />
			<path id="&lt;Path&gt;" class="s0" d="m153.52 324.34c-2.4 5.59-1.6 10.65 2.39 15.17c-10.38-3.99-20.22-4.13-29.54-0.4c0.8-5.85-0.27-9.84-3.2-11.97c10.12-5.32 20.23-6.25 30.34-2.79z" />
			<path id="&lt;Path&gt;" class="s0" d="m122.77 340.31c-8.51 2.66-14.63 7.05-18.36 13.17c-4.79-1.33-7.18-3.72-7.18-7.18c6.12-11.18 13.97-17.17 23.55-17.96c2.66 4.26 3.33 8.25 2 11.97z" />
			<path id="&lt;Path&gt;" class="s0" d="m95.23 349.09c0.53 4.26 3.06 6.65 7.58 7.19c-4.39 3.19-3.99 20.36-11.97 18.36c-4.52-2.39-3.06-10.91 4.39-25.55z" />
			<path id="&lt;Path&gt;" class="s0" d="m164.69 347.9c10.72-7.51 39.12-12.77 45.5-8.78c3.86 2.41-8.91 11.96-27.94 17.96c-7.58 2.39-25.55-3.59-17.56-9.18z" />
			<path id="&lt;Path&gt;" class="s0" d="m157.1 349.89c2.93 6.39 7.85 9.71 14.77 9.98c-9.32 4.52-21.56 7.72-36.73 9.58c-6.39-0.54-8.65-3.33-6.79-8.39c5.86-7.98 15.44-11.71 28.74-11.18z" />
			<path id="&lt;Path&gt;" class="s0" d="m123.57 364.66c1.86 5.59 5.06 8.12 9.58 7.58c-4 3.46-5.19 9.58-3.59 18.36c-4.26-1.33-7.58-0.66-9.98 2c-7.72-8.25-6.39-17.57 3.99-27.95z" />
			<path id="&lt;Path&gt;" class="s0" d="m120.38 398.29c1.55-3.61 4.79-4.71 9.73-3.28c2.58 8.42 1.83 13.43-2.25 15.03c-3.25 1.27-6.36 0.57-7.47-11.75z" />
			<path id="&lt;Path&gt;" class="s0" d="m217.78 348.7c3.39 3.01-0.34 8.6-11.18 16.77c-6.12 1.33-10.65-0.27-13.58-4.79c11.98-12.38 21.16-15.17 24.75-11.98z" />
			<path id="&lt;Path&gt;" class="s0" d="m188.64 363.06c1.86 4.79 6.52 7.06 13.97 6.79c-8.25 12.77-16.24 19.96-23.95 21.56c-2.13-4.52-4.92-6.12-8.38-4.79c4.26-11.44 10.38-19.3 18.36-23.55z" />
			<path id="&lt;Path&gt;" class="s0" d="m168.28 390.21c6.21-3.11 12.77 1.2 8.78 26.35c-3.73 0.27-6.39 1.07-7.98 2.4c-8.52-15.17-8.78-24.75-0.8-28.74z" />
			<path id="&lt;Path&gt;" class="s0" d="m170.32 423.09c1.72-1.31 3.99-1.82 6.81-1.55c3.03 10.32 2.89 15.78-0.41 16.4c-3.57 0.67-6.09-4.43-6.4-14.86z" />
		</g>
		<g id="&lt;Group&gt;">
			<path id="&lt;Path&gt;" class="s0" d="m394.54 317.96c-28.33 5.44-42.84 5.31-43.51-0.4c-0.8-6.79 15.57-14.77 43.11-15.17c3.46 5.85 3.59 11.04 0.4 15.57z" />
			<path id="&lt;Path&gt;" class="s0" d="m418.89 291.21c5.59 0.8 8.38 4.52 8.38 11.18c-4.52 6.92-13.84 11.44-27.95 13.57c3.73-6.92 3.06-11.84-1.99-14.77c3.99-5.32 11.18-8.65 21.56-9.98z" />
			<path id="&lt;Path&gt;" class="s0" d="m452.82 285.62c5.32 2.4 6.52 5.46 3.59 9.18c-9.31 6.39-17.56 8.91-24.75 7.58c1.86-3.73 0.4-7.98-4.39-12.77c5.06-3.46 13.57-4.79 25.55-3.99z" />
			<path id="&lt;Path&gt;" class="s0" d="m484.36 288.42c-5.59 4.52-13.04 5.99-22.35 4.39c1.86-2.66 1.06-5.32-2.4-7.99c18.89-4.52 27.15-3.33 24.75 3.59z" />
			<path id="&lt;Path&gt;" class="s0" d="m394.54 324.74c2.13 7.72 0.27 12.64-5.59 14.77c-23.42 0-37.26-3.06-41.51-9.18c-1.86-2.93-0.53-5.19 3.99-6.79c4.26 1.33 8.12 1.6 11.58 0.8c14.1-3.19 24.61-3.06 31.53 0.4z" />
			<path id="&lt;Path&gt;" class="s0" d="m428.07 327.14c-2.93 2.13-3.99 6.12-3.19 11.98c-9.31-3.73-19.16-3.59-29.54 0.4c3.99-4.52 4.79-9.58 2.39-15.17c10.11-3.46 20.23-2.53 30.34 2.79z" />
			<path id="&lt;Path&gt;" class="s0" d="m430.47 328.34c9.58 0.8 17.43 6.78 23.55 17.96c0 3.46-2.39 5.85-7.18 7.18c-3.73-6.12-9.85-10.51-18.36-13.17c-1.33-3.73-0.67-7.72 1.99-11.97z" />
			<path id="&lt;Path&gt;" class="s0" d="m460.41 374.64c-7.98 2-7.58-15.17-11.97-18.36c4.52-0.53 7.05-2.93 7.58-7.19c7.45 14.64 8.91 23.15 4.39 25.55z" />
			<path id="&lt;Path&gt;" class="s0" d="m369 357.08c-19.03-6.01-31.8-15.55-27.94-17.96c6.39-3.99 34.78 1.28 45.51 8.78c7.98 5.59-9.98 11.57-17.56 9.18z" />
			<path id="&lt;Path&gt;" class="s0" d="m422.88 361.07c1.86 5.05-0.4 7.85-6.78 8.39c-15.17-1.86-27.41-5.06-36.73-9.58c6.92-0.27 11.84-3.59 14.77-9.98c13.3-0.53 22.88 3.19 28.74 11.18z" />
			<path id="&lt;Path&gt;" class="s0" d="m431.67 392.61c-2.4-2.66-5.72-3.33-9.98-2c1.6-8.78 0.4-14.9-3.59-18.36c4.52 0.53 7.72-1.99 9.58-7.58c10.38 10.38 11.71 19.69 3.99 27.95z" />
			<path id="&lt;Path&gt;" class="s0" d="m423.4 410.04c-4.09-1.6-4.84-6.61-2.26-15.03c4.94-1.43 8.18-0.34 9.73 3.28c-1.11 12.32-4.23 13.02-7.47 11.75z" />
			<path id="&lt;Path&gt;" class="s0" d="m358.22 360.67c-2.93 4.52-7.45 6.12-13.57 4.79c-10.84-8.17-14.56-13.75-11.18-16.77c3.6-3.19 12.78-0.4 24.75 11.98z" />
			<path id="&lt;Path&gt;" class="s0" d="m380.97 386.62c-3.46-1.33-6.26 0.27-8.38 4.79c-7.72-1.6-15.7-8.78-23.95-21.56c7.45 0.27 12.11-2 13.97-6.79c7.98 4.26 14.1 12.11 18.36 23.55z" />
			<path id="&lt;Path&gt;" class="s0" d="m382.17 418.95c-1.6-1.33-4.26-2.13-7.98-2.4c-3.99-25.15 2.57-29.45 8.78-26.35c7.98 3.99 7.72 13.57-0.8 28.74z" />
			<path id="&lt;Path&gt;" class="s0" d="m374.53 437.94c-3.3-0.62-3.44-6.09-0.42-16.4c2.82-0.28 5.09 0.24 6.81 1.55c-0.31 10.42-2.82 15.53-6.39 14.86z" />
		</g>
	</g>
</svg>