<svg version="1.2" baseProfile="tiny-ps" xmlns="http://www.w3.org/2000/svg" viewBox="0 0 550 510" width="550" height="510">
	<title>Western zodiac-ai</title>
	<style>
		tspan { white-space:pre }
		.s0 { fill: #e44044 } 
	</style>
	<g id="Layer 1">
		<g id="&lt;Group&gt;">
			<g id="&lt;Group&gt;">
				<path id="&lt;Compound Path&gt;" fill-rule="evenodd" class="s0" d="m471.66 270.71c-6.81-14.53-45.47-46.06-49.14-36.38c-2.08 5.51 2.17 49.56-5.29 53.31c-6.65-25.19-60.51-13.76-62.96-81.49c-0.81-30.2-28.78-17.82-47.33-13.06c-31.28 8.04-49.01 25.04-81.82 25.27c-25.52 0.17-50.38-7.03-75.01-12.22c-17.46-3.68-24.06-3.4-40.68-9.23c-17.36-6.1-22.63-25.97 0.84-38.78c21.69-11.84 25.35-10.35 43.9-28.63c19.54-19.25 46.51-29.41 73.74-31.18c15.22-6.49 12.75-21.09 26.81-28.45c3.89-2.04 24.27-6.65 21.06 2.21c-3.03 8.34 11.45 19.73 18.76 27.25c5.69 5.86 17.84 8.01 24.09 13.44c20.14 17.49 34.02 6.89 49.99 15.72c3.29 1.82 11.73 6.22 10.14 9.11c-2.21 4-18.35 6.52-21.21 16.32c1.86 2.32 5.84 7.5 7.34 9.79c10.8 16.58 24.07 3.31 45.7 6.53c39.56 2.96 89.05 57.44 61.08 100.48zm-313.02-129.05c-4.03-2.18-9.41-0.36-11.89 4.21c-2.48 4.57-1.03 10.04 3.09 12.09c4.13 2.04 9.29 0 11.67-4.43c2.38-4.43 1.16-9.69-2.87-11.87zm22.94-16.05c3.34 24.9 0.45 51.82-14.03 73.04c21-18.36 26.46-48.45 14.03-73.04z" />
			</g>
		</g>
		<g id="&lt;Group&gt;">
			<g id="&lt;Group&gt;">
				<path id="&lt;Compound Path&gt;" fill-rule="evenodd" class="s0" d="m78.2 238.82c6.81 14.53 45.47 46.06 49.14 36.38c2.09-5.5-2.17-49.56 5.29-53.31c6.65 25.19 60.51 13.76 62.96 81.5c0.81 30.19 28.79 17.82 47.33 13.05c31.29-8.04 49.01-25.04 81.82-25.26c25.52-0.17 50.38 7.03 75.01 12.22c17.46 3.68 24.06 3.4 40.68 9.23c17.36 6.09 22.64 25.97-0.84 38.79c-21.69 11.84-25.35 10.34-43.9 28.63c-19.54 19.25-46.51 29.41-73.74 31.18c-15.22 6.5-12.75 21.09-26.81 28.46c-3.89 2.04-24.27 6.65-21.06-2.21c3.03-8.34-11.45-19.73-18.76-27.25c-5.7-5.86-17.85-8.01-24.1-13.44c-20.14-17.49-34.02-6.88-49.99-15.72c-3.29-1.82-11.73-6.22-10.14-9.11c2.21-4 18.35-6.52 21.22-16.32c-1.86-2.32-5.84-7.5-7.34-9.79c-10.8-16.58-24.07-3.31-45.7-6.53c-39.55-2.96-89.04-57.44-61.08-100.47zm313.01 129.04c4.03 2.18 9.42 0.36 11.89-4.21c2.48-4.57 1.03-10.04-3.1-12.08c-4.12-2.04-9.28 0-11.67 4.43c-2.38 4.43-1.16 9.68 2.87 11.86zm-22.94 16.05c-3.34-24.9-0.45-51.82 14.03-73.04c-21 18.36-26.46 48.46-14.03 73.04z" />
			</g>
		</g>
	</g>
</svg>