<svg version="1.2" baseProfile="tiny-ps" xmlns="http://www.w3.org/2000/svg" viewBox="0 0 505 410" width="505" height="410">
	<title>chinese zodiac (1)-ai</title>
	<defs>
		<linearGradient id="grd1" gradientUnits="userSpaceOnUse"  x1="23.9" y1="166.5" x2="381.9" y2="166.5">
			<stop offset="0" stop-color="#ff0000"  />
			<stop offset=".4" stop-color="#231f20"  />
			<stop offset="1" stop-color="#231f20"  />
		</linearGradient>
	</defs>
	<style>
		tspan { white-space:pre }
		.s0 { fill: url(#grd1) } 
		.s1 { fill: #000000 } 
		.s2 { fill: #ff0000 } 
		.s3 { fill: #231f20 } 
	</style>
	<g id="Layer 1">
		<g id="&lt;Group&gt;">
			<path id="&lt;Path&gt;" class="s0" d="m375.36 242.01c-15.68 0.54-30.91-4.13-46.48-5.1c-4.87-0.3-5.99-0.8-8.25 3.64c-1.38 2.71-2.52 5.27-4.59 7.56c-2.32 2.56-4.56 4.13-2.27 7.43c1.99 2.88 4.22 5.59 6.5 8.24c4.66 5.42 9.84 10.54 12.73 17.17c1.11 2.55 3.5 14.54 5.82 14.81c4.79 0.55 10.46 2.1 14 5.57c1.28 1.25 1.94 2.64 2.13 4.4c0.04 0.46 0.66 8.28-1.24 6.13c-7.89-8.97-21.79-3.68-31.99-4.92c-3.18-0.39-6.07-0.33-9.1 1.02c-1.67 0.74-5.65 4.73-4.67 0.25c1.35-6.16 8.13-7.49 11.34-12.17c3.16-4.61-3.38-13.36-6.64-16.59c-4-3.96-8.38-5.91-14.78-7.47c-6.4-1.56-14.41 2.41-15.11 1.55c-0.59-0.74 0.83-6.21 0.84-7.41c0.03-2.75-0.18-5.5-0.47-8.23c-11.2 3.44-22.93 4.44-34.31 7.05c-0.07 9.83-7.57 15.17-16.45 16.53c-5.14 0.79-10.21-1.01-15.35-0.67c-3.15 0.21-6.96 6.45-8.49 9.2c-1.11 1.98-1.75 4.21-1.42 6.49c1.42 0.52 2.9 0.9 4.38 1.22c3.11 0.68 6.28 1.1 9.4 1.79c3.27 0.72 6.63 1.73 9.31 3.83c0.85 0.67 6.31 7.24 3.73 7.63c-0.79 0.12-3.89-2.57-5.01-2.92c-1.79-0.56-3.66-0.82-5.51-0.99c-4.83-0.45-9.67-0.53-14.51-0.53c-7.38 0-15.82-2.52-22.75 1.08c-0.39 0.2-4.61 3.68-4.2 1.73c0.41-1.95 1.7-3.41 3.28-4.54c3.52-2.52 10.85-14.28 7.06-17.32c-1.11-0.89-5.89-1.67-6.01-2.89c-0.1-1.04 4.38-3.52 5.17-4.22c1.81-1.61 3.28-3.69 2.99-6.23c-0.72-6.13-7.26-7.74-12.4-8.02c-6.56-0.35-14.25 0.65-20.96 1.2c-8.17 0.67-15.7 2.77-23.34 5.63c-3.31 1.24-12.55 4.54-18.92 5.18c-6.37 0.65-30.57 1.11-44.56-4.23c-24.93-9.52-46.76-32.39-50.83-59.3c-1.72-11.4-0.47-30.05 15.15-29.89c13.46 0.14 21.99 15.24 26.79 25.85c3.22 7.11 5.53 14.63 6.84 22.32c0.1 0.62 0.27 1.14 0.27 4.1c-0.3 0.17-3.25-6.59-4.7-9.54c-3.83-7.82-12.8-30-24.46-26.96c-15.25 3.97-1.89 27.09 2.75 34.36c2.76 4.32 10.71 11.52 14.39 8.33c0.72-0.66 0.85-2.62 0.39-5.87c2.21 3.9 4.04 6.69 5.51 8.37c3.13 3.58 8.17 10.3 13.08 10.39c3.66 0.07 0.51-6.99 0.66-8.52c1.37-0.14 4.06 3.05 5.15 4.2c2.19 2.31 4.7 4.37 7.53 5.84c3.94 2.05 13.35 1.85 13.71-2.34c0.36-4.2-2.56-6.07-0.92-5.32c3.24 1.49 6.67 2.62 10.22 3.04c4.49 0.54 16.11-0.79 17.79-4.88c1.12-2.73-0.64-4.5-5.26-5.33c11.7-2.91 19.19-5.86 22.48-8.87c4.94-4.52 11.16-7.3 17.06-10.31c5.92-3.02 11.19-6.79 16.49-10.78c11.84-8.91 24.53-17.27 38.02-23.48c12.7-5.84 27.07-10.64 40.94-12.61c7.2-1.02 14.64-0.74 21.54 1.73c4.33 1.55 10.53 0.91 6.4-4.92c-2.11-2.98-2.28-4.19 1.76-1.88c2.66 1.51 4.88 3.63 7 5.81c4.77 4.92 8.93 7.96 15.74 9.75c1.78 0.47 4.43 1.25 6.22 0.44c2.31-1.05-0.55-5-1.36-6.16c-0.18-0.26-4.44-6.19-2.08-4.9c2.86 1.56 5.49 3.51 8 5.58c2.92 2.42 5.69 5.01 8.61 7.43c1.31 1.09 6.63 3.82 6.97 5.35c4.34 1.65 11.35 2.29 9.61-4.66c-0.89-3.54-0.41-3.72 2.58-0.96c2.26 2.08 4.36 4.33 6.56 6.48c2.17 2.13 4.44 4.18 7.01 5.82c0.9 0.57 7.15 2.8 5.86 4.07c4.12 1.1 6.37-0.93 6.74 3.43c0.33 3.82 0.66 7.65 0.99 11.47c0.56 6.49 1.21 13.01 1.68 19.49c1.71 1.64-6.91 1.94-7.76 1.97z" />
			<path id="&lt;Path&gt;" class="s1" d="m346.76 151.28c-23.17-53.55-49.13 43.32-53.04 44.41c-19.57 5.44-41.48-7.17-62.64-5.96c-25.62 1.46-61.01 10.52-81.66 26.6c6.65-21.64 34.21-33.3 54.95-35.71c-26.19-8.58-71.93 10.75-94.01 23.21c13.7-24.28 54.01-44.53 81.91-44.64c-11.42-1.53-51.82-0.66-59.62 8.82c10.85-13.18 30.61-25.91 48-27.02c-36.46 0.54-65.25 9.36-96.2 25.59c31.24-33.05 78.83-59.55 123.64-66.27c34.43-5.16 138.4-2.76 138.66 50.99z" />
			<path id="&lt;Path&gt;" class="s2" d="m173.01 120.91c0.01 0 0.01 0 0.02 0.01c11.83-4.27 23.82-7.41 35.61-9.18c16.84-2.52 50.31-3.23 80.15 2.98c-33.18-14.71-71.78-12.65-115.79 6.19z" />
			<path id="&lt;Path&gt;" class="s1" d="m375.36 242.01c-15.68 0.55-30.9-4.13-46.48-5.1c-4.86-0.29-5.99-0.79-8.25 3.64c-1.38 2.72-2.52 5.27-4.59 7.56c-2.32 2.56-4.55 4.13-2.27 7.43c2 2.88 4.22 5.59 6.5 8.24c4.66 5.42 9.84 10.54 12.72 17.17c1.11 2.55 3.5 14.54 5.82 14.81c4.8 0.56 10.47 2.11 14.01 5.57c1.28 1.25 1.93 2.64 2.13 4.4c0.04 0.46 0.66 8.29-1.23 6.12c-7.9-8.97-21.79-3.68-32-4.91c-3.18-0.39-6.07-0.33-9.1 1.02c-1.66 0.75-5.64 4.73-4.67 0.25c1.34-6.16 8.12-7.49 11.35-12.18c3.16-4.6-3.38-13.36-6.65-16.59c-4-3.96-8.38-5.91-14.78-7.47c-6.4-1.56-14.41 2.41-15.11 1.55c-0.6-0.74 0.82-6.21 0.84-7.41c0.03-2.75-0.18-5.5-0.47-8.23l-1.17-15.56l-0.93 16.18c-9.74 2.73-19.83 3.82-29.71 5.89c0.66-9.67-4.74-16.68-7.91-19.92c5.73 6.35 5.76 16.56 5.42 20.46c-0.08 9.82-7.57 15.16-16.45 16.53c-5.14 0.79-10.21-1.02-15.35-0.67c-3.16 0.21-6.96 6.46-8.5 9.2c-1.11 1.99-1.75 4.21-1.41 6.5c1.42 0.52 2.89 0.89 4.37 1.22c3.12 0.68 6.28 1.11 9.4 1.79c3.27 0.72 6.63 1.73 9.3 3.84c0.85 0.66 6.31 7.24 3.73 7.62c-0.79 0.12-3.89-2.57-5.01-2.92c-1.79-0.55-3.66-0.81-5.52-0.99c-4.82-0.45-9.67-0.53-14.51-0.53c-7.38 0-15.83-2.52-22.76 1.08c-0.39 0.2-4.61 3.69-4.19 1.73c0.41-1.95 1.7-3.41 3.28-4.55c3.51-2.52 10.85-14.27 7.05-17.31c-1.1-0.89-5.89-1.67-6.01-2.9c-0.1-1.03 4.38-3.52 5.16-4.21c1.82-1.61 3.29-3.7 2.99-6.24c-0.72-6.13-7.27-7.74-12.4-8.02c-6.56-0.35-14.26 0.65-20.96 1.2c-8.17 0.67-15.7 2.76-23.34 5.63c-3.31 1.24-12.56 4.54-18.93 5.18c-6.37 0.65-30.57 1.11-44.55-4.23c-24.94-9.52-46.77-32.39-50.83-59.3c-1.73-11.4-0.47-30.05 15.14-29.89c13.46 0.14 21.99 15.24 26.79 25.85c3.22 7.11 5.53 14.62 6.84 22.32c0.1 0.62 0.27 1.14 0.27 4.1c-0.3 0.17-3.25-6.59-4.69-9.53c-3.83-7.82-12.81-30.01-24.46-26.97c-15.24 3.97-1.9 27.09 2.75 34.37c2.76 4.32 10.71 11.52 14.38 8.32c0.72-0.66 0.85-2.61 0.4-5.87c2.2 3.89 4.04 6.68 5.51 8.37c3.12 3.58 8.18 10.29 13.08 10.39c3.66 0.08 0.51-6.98 0.66-8.52c1.38-0.14 4.06 3.05 5.15 4.19c2.2 2.31 4.69 4.38 7.53 5.85c3.94 2.04 13.36 1.86 13.72-2.35c0.36-4.19-2.56-6.07-0.92-5.31c3.24 1.48 6.68 2.61 10.23 3.04c4.49 0.54 16.1-0.8 17.79-4.88c1.11-2.73-0.64-4.51-5.26-5.33c11.69-2.91 19.18-5.87 22.48-8.88c4.94-4.52 11.15-7.3 17.05-10.31c5.92-3.02 11.19-6.78 16.49-10.77c11.84-8.91 24.53-17.28 38.03-23.48c12.69-5.84 27.07-10.63 40.94-12.6c7.2-1.03 14.63-0.74 21.53 1.73c4.32 1.54 10.53 0.91 6.39-4.92c-2.11-2.98-2.28-4.19 1.77-1.88c2.65 1.51 4.88 3.62 6.99 5.81c4.77 4.92 8.92 7.95 15.74 9.75c1.78 0.47 4.43 1.26 6.22 0.44c2.31-1.05-0.55-5-1.36-6.17c-0.17-0.26-4.44-6.18-2.08-4.9c2.87 1.56 5.5 3.51 8 5.58c2.93 2.42 5.7 5.01 8.61 7.43c1.31 1.09 6.63 3.82 6.97 5.35c4.34 1.65 11.35 2.29 9.62-4.66c-0.89-3.55-0.42-3.72 2.58-0.96c2.26 2.08 4.36 4.34 6.56 6.49c2.16 2.13 4.44 4.18 7 5.82c0.9 0.57 7.15 2.8 5.87 4.08c4.11 1.1 6.37-0.93 6.74 3.43c0.33 3.83 0.66 7.65 1 11.46c0.56 6.5 1.21 13.02 1.67 19.49c1.71 1.65-6.91 1.94-7.76 1.97z" />
			<g id="&lt;Group&gt;">
				<path id="&lt;Path&gt;" class="s3" d="m440.34 238.57c-0.31 0.32-0.75 0.22-0.98-0.06c-0.1-0.03-0.2-0.08-0.29-0.18c-5.82-7.83-14.29-6.63-22.88-5.88c-3.09 0.27-6.44-0.2-9.77-0.54c10.42 3.51 19.42 12.15 31.06 9.52c0.75-0.18 1.11 0.66 0.69 1.19c-4.03 5.2-12.43 5.31-17.89 2.29c-7.89-2.15-15.31-0.65-23.3 0.2c-7.46 0.8-14.65-1.19-22.06-0.05c-7.79 2.85-14.97 6.77-21.69 11.64c0.02 0.14 0.04 0.29 0.06 0.43c0.03 0.42-0.43 0.73-0.81 0.62c-4.06-1.16-0.37-9.96 0.57-12.07c2.1-4.7 4.88-10.16 8.96-13.63c-4.79-2.11-9.39-4.65-14.3-6.48c-0.56 0.14-1.2-0.47-0.83-1.05c3.07-4.84 9.92-7.57 15.24-9.62c-2.46-4.91-5.51-9.47-6.88-14.81c-0.22 0.03-0.46-0.06-0.53-0.37c-0.44-1.97-0.37-1.43-0.48-3.43c-0.02-0.39 0.41-0.69 0.77-0.59c3.7 1.09 7.1 3.03 10.79 3.85c-1.12-3.37-6.98-16.71-15.64-21.03c0.12-0.08 0.28-0.11 0.45-0.04c0.05 0.02 0.1 0.04 0.16 0.06c0.05-0.03 0.09-0.06 0.14-0.08c5.25 1.59 18.19 6.64 26.22 19.64c0.21 0.35 0.42 0.71 0.64 1.07c1.52 0.07 3.02 0.41 4.58 1.23c0.13 0.07 0.21 0.16 0.27 0.25c6.87 0.55 13.3 3.73 19.74 5.96c2.46 0.85 4.79 1.73 6.48 3.79c1.74 2.13 1.07 4.51 3.98 6.03c0.74 0.39 0.44 1.32-0.17 1.55c2.96 2.14 7.44 2.64 10.86 3.34c4.16 0.85 8.35 1.65 12.3 3.23c5.6 2.26 9.63 8.73 4.54 13.99z" />
				<path id="&lt;Path&gt;" class="s2" d="m480.69 248.6c-6.64 6.97-12.97 8.57-21.44 6.1c-4.95-1.38-7.61-3.05-10.54-7.01c-2.72-3.17-4.93-6.99-9.82-6.87c9.36-3.7 12.77 5.22 19.88 8.92c6.1 3.11 16.02 2.14 21.92-1.14z" />
				<path id="&lt;Path&gt;" class="s1" d="m440.34 238.57c-0.31 0.32-0.75 0.22-0.98-0.06c-0.1-0.03-0.2-0.08-0.29-0.18c-5.82-7.83-14.29-6.63-22.88-5.88c-3.09 0.27-6.44-0.2-9.77-0.54c10.42 3.51 19.42 12.15 31.06 9.52c0.75-0.18 1.11 0.66 0.69 1.19c-4.03 5.2-12.43 5.31-17.89 2.29c-7.89-2.15-15.31-0.65-23.3 0.2c-7.46 0.8-14.65-1.19-22.06-0.05c-7.79 2.85-14.97 6.77-21.69 11.64c0.02 0.14 0.04 0.29 0.06 0.43c0.03 0.42-0.43 0.73-0.81 0.62c-4.06-1.16-0.37-9.96 0.57-12.07c2.1-4.7 4.88-10.16 8.96-13.63c-4.79-2.11-9.39-4.65-14.3-6.48c-0.56 0.14-1.2-0.47-0.83-1.05c3.07-4.84 9.92-7.57 15.24-9.62c-2.46-4.91-5.51-9.47-6.88-14.81c-0.22 0.03-0.46-0.06-0.53-0.37c-0.44-1.97-0.37-1.43-0.48-3.43c-0.02-0.39 0.41-0.69 0.77-0.59c3.7 1.09 7.1 3.03 10.79 3.85c-1.12-3.37-6.98-16.71-15.64-21.03c0.12-0.08 0.28-0.11 0.45-0.04c0.05 0.02 0.1 0.04 0.16 0.06c0.05-0.03 0.09-0.06 0.14-0.08c5.25 1.59 18.19 6.64 26.22 19.64c0.21 0.35 0.42 0.71 0.64 1.07c1.52 0.07 3.02 0.41 4.58 1.23c0.13 0.07 0.21 0.16 0.27 0.25c6.87 0.55 13.3 3.73 19.74 5.96c2.46 0.85 4.79 1.73 6.48 3.79c1.74 2.13 1.07 4.51 3.98 6.03c0.74 0.39 0.44 1.32-0.17 1.55c2.96 2.14 7.44 2.64 10.86 3.34c4.16 0.85 8.35 1.65 12.3 3.23c5.6 2.26 9.63 8.73 4.54 13.99z" />
				<path id="&lt;Path&gt;" class="s2" d="m403.21 220.13c-1.1 0.73-2.57 2.57-3.3 3.3c-2.2-1.47-4.03-6.6-8.06-7.33c3.62 0.42 8.06 3.3 11.36 4.03z" />
			</g>
		</g>
	</g>
</svg>