<svg version="1.2" baseProfile="tiny-ps" xmlns="http://www.w3.org/2000/svg" viewBox="0 0 550 510" width="550" height="510">
	<title>Western zodiac-ai</title>
	<style>
		tspan { white-space:pre }
		.s0 { fill: #e44044 } 
	</style>
	<g id="Layer 1">
		<path id="&lt;Compound Path&gt;" fill-rule="evenodd" class="s0" d="m222.44 362.64c8.55 30.07-1.27 74.39-40.52 105.72c12.79-34 12.26-67.87-1.58-101.6c-5.06-12.35-3.17-28.17 12.03-33.88c9.64-3.62 21.9 1.03 30.07 29.76zm-42.42 85.79c-4.85 8.44-11.61 15.29-20.26 20.56c14.56-36.29 12.66-66.25-5.7-89.89c8.44-3.8 14.25-7.49 17.41-11.08c12.24 26.59 15.09 53.39 8.55 80.4zm271.91-359.28c-7.13 44.41-58.3 40.08-95.22 36c-49.41-5.45-89.1 34.3-80.36 41.03c9.23 7.1 8.4 21.52 16.04 26.79c18.04 12.46 41.2 35.81 69.48 70.04c-7.31 58.48-36.09 105.53-86.35 141.17c-22.07-39.33-27.89-46.19-37.26-57.37c-5.49-6.54-11.57-8.2-18.25-4.99c-8.97-17.81-22.81-18.41-30.82-15.28c-13.51 5.28-19.84 17.2-18.99 35.78c-10.45 8.54-25.96 14.87-31.74 15.14c-4.58 0.21-8.01-3.44-10.28-10.96c13.14-3.34 23.13-10.96 29.99-22.85c-19.63 11.4-37.3 11.2-49.7 8.86c-3.09-0.57-6.86-10.1-8.5-19.23c8.99-0.35 22.76-3.85 31.45-20.17c-12.36 9.79-23.11 13.85-32.26 12.19c-0.02-2.7 0.3-5.04 1.07-6.65c7.91-16.46 53.68-67.07 71.54-95.91c20.26-32.71 37.99-48.11 53.18-46.21c36.59-87.34 111.57-84.01 165.03-73.89c29.59 5.6 50.23 1.11 61.93-13.48zm-185.15 101.72c-21.37-2.3-26.9 16.13-26.63 25.31c0.75 24.65 13.48 38.13 16.44 58.84c2.73 19.11-2.31 34.77-15.12 47.01c54.24-11.17 68.35-51.31 67.72-76.92c-0.82-33.55-25-52.37-42.41-54.24zm-60.37 70.46c-10.53-7.85-19.5-6.61-26.9 3.7c13.45 10.76 22.42 9.53 26.9-3.7zm94.95-24.93c2.99 24.2 0.28 53.88-45.84 76.73c9.72-14.19 11.56-31.27 5.52-51.23c-4.52-14.92-7.49-16.16-12.62-34.57c-4.04-14.51-2.04-27.69 13.61-30.25c12.75-2.08 35.65 9.64 39.32 39.32zm-110.4-48.01c2.23-86.46 76.98-119.93 139.7-119.9c30.11 0.02 49.18-9.09 57.2-27.31c3.24 44.86-43.85 46.4-83.1 52.94c-46.85 7.81-73.63 52.43-83.67 74.75c-11.53 0-21.57 6.51-30.12 19.52z" />
	</g>
</svg>