<svg version="1.2" baseProfile="tiny-ps" xmlns="http://www.w3.org/2000/svg" viewBox="0 0 550 510" width="550" height="510">
	<title>Western zodiac-ai</title>
	<style>
		tspan { white-space:pre }
		.s0 { fill: #e44044 } 
	</style>
	<g id="Layer 1">
		<path id="&lt;Compound Path&gt;" fill-rule="evenodd" class="s0" d="m403.62 418.04c-71.11 1.56-240.14-0.99-264.04-1.36c-9.89 4.63-22.44 4.7-37.13-7.33c-14.47-11.84-19.08-57.23 23.68-38.15c-20.14 6-22.99 13.23-8.55 21.71c7.37 4.33 27.24 7.72 21.27-26.79c-4.74-27.38-5.81-64.73 33.54-102.31c10.8-10.31 27.17-17.83 49.67-21.65c13.32-2.26 20.12-6.6 24.41-10.45c0 0 0 0-0.01 0c0.66-0.64 1.4-1.33 2.18-2.09c0.76-0.78 1.46-1.52 2.09-2.18c0 0 0 0 0.01 0c3.85-4.3 8.19-11.1 10.45-24.41c3.82-22.5 11.34-38.87 21.65-49.67c37.58-39.35 74.93-38.28 102.31-33.54c34.51 5.97 31.12-13.89 26.79-21.27c-8.48-14.44-15.71-11.59-21.71 8.55c-19.08-42.76 26.31-38.16 38.16-23.69c17.95 21.94 8.98 39.11-1.96 49.77c1.99 42.84 8.28 181.88 9.35 249.34c-2.4-2.38-4.82-4.76-7.25-7.12l-7.18-237.79c-1.43 1.13-2.83 2.15-4.15 3.04c-36.84 25-96 9.23-131.36 69.35c-9.3 15.81-5.2 30.46-14.54 38.95c-12 10.91-28.34 10.23-44.15 19.53c-60.11 35.37-42.46 92.85-67.46 129.69c-2.83 4.17-6.87 9.21-12 13.36l248.33-0.25c2.7 2.66 4.07 4.62 7.6 6.76zm27.75 19.7c-10.97-7.62-33.47-28.42-47.9-48.79c4.4-3.57 2.67-11.77-0.21-19.16l-112.65-112.65c2.87-1.7 5.29-3.94 6.83-6.74l112.84 112.84c6.66 3.18 14.42 5.34 18.14 0.75c20.38 14.43 41.18 36.93 48.79 47.9c2.73 3.93-10.09 4.69-21.33 1.01c-0.17 1.12-0.36 1.89-0.59 2.21c-0.18 0.27-1.26 0.51-3.11 0.73c3.9 11.38 3.17 24.67-0.82 21.9zm-290.82-277.94c-19.14-24.25-29.47-47.59-30.98-70.03c5.15 0.21 33.23 2.67 69.62 31.39c-11.31-3.61-20.99-2.97-29.05 1.93l97.01 97.02c-0.99 5-3.95 7.11-7.16 6.4l-96.82-96.82c-5.57 8.09-6.44 18.12-2.61 30.11z" />
	</g>
</svg>