<svg version="1.2" baseProfile="tiny-ps" xmlns="http://www.w3.org/2000/svg" viewBox="0 0 550 510" width="550" height="510">
	<title>Western zodiac-ai</title>
	<style>
		tspan { white-space:pre }
		.s0 { fill: #e44044 } 
	</style>
	<g id="Layer 1">
		<path id="&lt;Compound Path&gt;" fill-rule="evenodd" class="s0" d="m344.71 410.87c0.7 5.77 1.92 14.43 3.67 25.98c-50.31 38.64-109 21.99-135.2 3.33c1.4-8.88 2.79-18.65 4.19-29.31c38.78 37.31 121.05 17.32 127.34 0zm145.79-84.91c0.11 1.57-0.08 3.29-0.42 4.95c-0.96 4.78-10.7 41.41-15.52 43.96c-24.16 12.75-86.21 14.44-104.18-1.3c-8.9-7.79-15.98-31.99-19.54-42.86c-0.52-1.59-0.92-3.13-0.92-4.75c0-6.44 4.96-12.4 13.34-17.25l53.95-142.5l-1.25-41.36c-5.41-1.54-10.18-5.36-12.46-10.67c-7.25-16.9-18.09-5.03-22.15-2.56c-18.53 11.27-22.16 12.29-43.1 13.32c-11.03 0.54-21.51-2.53-31.42-9.22c-6.06-2.2-12.51 3.98-15.69 7.68l2.4 5.63c-3.6 2.63-7.07 4.27-10.33 5.22c-1.03 26.58-1.32 109.71 3.55 136.86c5.44 23.27 9.79 27.47 5.71 41.99c-4.72 16.79 1.83 24.51 4.08 32.14c1.95 6.62 2.62 20.9 2.82 32.81c25.18 3.02 43.47 12.12 43.47 22.87c0 13.22-27.66 23.94-61.79 23.94c-34.12 0-61.79-10.72-61.79-23.94c0-10.6 17.83-19.6 42.5-22.74c0.2-11.95 0.87-26.3 2.83-32.94c2.25-7.62 8.79-15.34 4.08-32.14c-4.08-14.52-0.39-16.13 5.04-39.4c7.28-31.18-0.2-103.54-2.48-138.82c-4.87-0.88-8.84-2.66-11.93-5.34l2.01-6.13c-3.18-3.7-9.64-9.9-15.71-7.7c-9.91 6.68-20.39 9.76-31.42 9.22c-20.95-1.03-24.57-2.05-43.1-13.32c-4.06-2.47-14.9-14.34-22.16 2.56c-2.17 5.06-6.6 8.75-11.69 10.42v41.01l53.71 145.91c5.77 4.27 9.2 9.19 9.57 14.43c0.11 1.57-0.09 3.29-0.42 4.95c-0.97 4.78-10.7 41.41-15.53 43.96c-24.16 12.75-86.2 14.44-104.18-1.3c-8.9-7.79-15.97-31.99-19.53-42.86c-0.53-1.59-0.93-3.13-0.93-4.75c0-6.44 4.96-12.4 13.34-17.25l53.95-142.51l-1.26-41.4c-3.99-1.25-7.72-3.99-10.46-8.58c-8.63-14.47 7.65-29.19 20.95-16.39c2.89 2.79-18.58-0.11-13.7 11.27c0.48 1.12 1.52 2.06 2.88 2.73l-0.01-0.17c3.7-2.48 7.33-2.49 10.88-0.03c3.72-1.7 7.16-5.18 8.8-11.24c3.63-13.31 13.29-14.34 31.42-1.02c22.34 16.41 64.54 10.73 85.66-13.75c1.49-11.08 5.2-24.09 13.04-37.98c6.1 10.43 10.41 22.39 12.93 35.89c20.47 26.23 64.41 32.71 87.37 15.84c18.13-13.32 27.79-12.29 31.42 1.02c1.62 5.97 4.99 9.45 8.65 11.17c0.91-0.55 6.1-3.39 11.01 0.27c1.37-0.67 2.41-1.61 2.9-2.74c4.88-11.38-16.59-8.48-13.7-11.27c13.29-12.8 29.58 1.92 20.95 16.39c-2.56 4.29-6 6.93-9.7 8.28v41.1l53.7 145.91c5.77 4.27 9.2 9.2 9.57 14.43zm-360.22-18.07c-26.9-0.27-46.53 8.38-56.68 14.22l-2.92 8.13c7.24 9.57 30.97 16.63 59.34 16.89l0.26-39.24zm0.91-138.19c-0.83-0.13-1.75-0.35-2.76-0.73l-48.9 136.59c12.79-5.57 30.76-9.05 50.67-9.05c0.05 0 0.11 0 0.16 0l0.83-126.81zm1.61 138.27l-0.11 39.16c30.96-0.2 56.48-8.51 61.23-19.36l-1.53-4.2c-22.34-10.83-42.39-15.07-59.6-15.6zm3.47-138.9c-0.67 0.33-1.7 0.69-3.09 0.75l-0.35 126.72c22.61 0.35 42.1 5.21 54.29 12.47l-50.85-139.94zm284.03 138.58c-26.83-0.27-46.42 8.34-56.58 14.18l-3.01 8.41c7.24 9.57 30.96 16.63 59.33 16.89l0.26-39.47zm0.91-137.96c-0.84-0.13-1.75-0.35-2.76-0.73l-48.9 136.59c12.79-5.57 30.75-9.05 50.66-9.05c0.06 0 0.11 0 0.16 0l0.84-126.81zm1.64 126.84c22.61 0.35 42.1 5.21 54.28 12.47l-50.84-139.94c-0.67 0.34-1.7 0.69-3.1 0.75l-0.34 126.72zm61.1 31.23l-1.64-4.51c-22.29-10.79-42.31-15.01-59.49-15.53l-0.11 39.4c30.96-0.2 56.48-8.51 61.24-19.36z" />
	</g>
</svg>