<svg version="1.2" baseProfile="tiny-ps" xmlns="http://www.w3.org/2000/svg" viewBox="0 0 471 400" width="471" height="400">
	<title>chinese zodiac (1)-ai</title>
	<style>
		tspan { white-space:pre }
		.s0 { fill: #000000 } 
		.s1 { fill: #ff0000 } 
	</style>
	<g id="Layer 1">
		<g id="&lt;Group&gt;">
			<path id="&lt;Path&gt;" class="s0" d="m372.72 130c-0.61 0.33-1.26 0.5-2.02 0.5c-1.12 0-2.4-0.36-3.92-1.09l-0.69-0.33l-0.42 0.64c-3.43 5.18-14.66 9.14-19.46 10.82c-0.51 0.18-0.96 0.34-1.34 0.48c-6.86 2.48-13.95 5.04-20.19 10.33c-8.15 6.92-14.64 33.4-15.35 36.85c-0.67 3.28-1.36 6.68-2.08 10.01l-0.12 0.53l0.43 0.34c2.41 1.87 4.68 2.78 6.94 2.78c0.11 0 0.23 0 0.34-0.01c3.33-0.13 6.31-1.42 9.19-2.64c2.42-1.05 4.72-2.03 7.2-2.39c0.63-0.09 1.24-0.13 1.81-0.13c5.97-0.01 9.56 4.82 10.99 14.75c0.49 3.43 1.1 7.7-0.78 10.81c-1 1.65-3.69 3.5-5.95 3.5c-0.42 0-0.81-0.07-1.15-0.21c-4.58-1.78-6.11-8.2-6.04-13.16l0.02-1.8l-1.42 1.1c-6 4.61-11.07 6.77-15.95 6.77c-1.92 0-3.83-0.34-5.69-1.04c-2.47-0.91-4.32-4.02-6.18-1.63c-1.12 1.43-0.93 3.89-1.44 5.58c-1.08 3.61-2.36 7.16-3.83 10.62c-3.02 7.08-6.87 13.82-11.52 19.96c-3.68 4.85-7.89 9.33-12.62 13.17c-3.3 2.67-10.17 6.34-10.56 11.09c-0.26 3.12-0.28 5.88-1.22 9.1c-2.07 7.05-5.34 13.73-9.5 19.78c-0.61 0.9-1.29 1.83-1.98 2.78c-3.03 4.19-6.46 8.94-7.34 13.8c-0.1 0.59 0.1 0.99 0.29 1.22c0.31 0.37 0.82 0.56 1.5 0.56c1.38 0 3.51-0.74 5.59-1.5c0.44-0.17 0.79-0.3 1-0.36c1.8-0.53 3.88-0.84 5.74-0.84c1.9 0 4.47 0.32 5.98 1.83c0.87 0.87 1.29 2.03 1.28 3.55c-0.03 6.67-7 10.19-12.97 11.19c-3.56 0.6-7.76 1.2-11.92 1.2c-4.26 0-7.69-0.62-10.5-1.89c-6.23-2.84-7.71-6.95-5.31-14.68c1.66-5.33 3.3-11.53 1.68-17.51c-1.7-6.28-5.68-11.15-9.73-15.49c-8.31-8.92-18.09-16.44-29.03-22.37l-0.54-0.3l-0.46 0.42c-3.88 3.55-7.53 7.47-11.07 11.26c-5.19 5.57-10.55 11.33-16.72 15.96c-8.5 6.37-18.47 9.88-28.06 9.89c-1.83 0-3.67-0.12-5.47-0.36c-19.57-2.67-23.99-22.23-24.98-30.51c-2.25-18.72 3.78-37.31 17.43-53.73c8.53-10.26 18.72-19.26 28.58-27.95c6.65-5.87 13.52-11.93 19.84-18.33c5.83-5.91 10.45-10.9 14.55-15.69c0.53-0.61 1.06-1.23 1.6-1.84c3.81-4.4 7.75-8.95 10.17-14.3c5.39-11.91 2.93-24.67 0.76-35.93c-0.03-0.15 0-0.27 0.09-0.38c0.1-0.13 0.29-0.22 0.47-0.22c0.16 0 0.22 0.06 0.25 0.24c0.43 1.72 0.65 2.59 0.66 2.62c4.24 12.59 5.54 22.41 2.95 31.94c-2.2 8.14-6.64 16.2-13.57 24.65c-7.41 9.04-15.75 17.54-23.83 25.77c-7.56 7.7-15.37 15.65-22.42 24.05c-16.34 19.47-23.89 37.84-22.47 54.63c0.7 8.28 5.01 17.75 15 19.48c1.04 0.18 2.1 0.27 3.16 0.27c5.89-0.01 12.31-2.77 19.08-8.23c10.63-8.57 20.57-20.65 29.54-35.91l0.09-0.16l0.03-0.18c2.14-18.26 8.55-34.4 19.07-47.97c10.46-13.52 25.01-26.84 44.48-40.75c1.01-0.72 2.02-1.44 3.04-2.15c8.34-5.89 16.96-11.98 22.63-20.65c2.22-3.4 4.14-6.99 5.99-10.46c2.97-5.56 6.03-11.31 10.36-16.2c2.27-2.57 4.8-4.86 7.55-6.86c-5.87-3.77-12.23-9.43-13.48-12.42c-0.35-0.6-0.68-1.23-0.97-1.88c-1.8-4.17-1.89-8.41-0.26-12.26c1.92-4.48 6.11-8.2 11.52-10.21c2.66-0.99 5.32-1.49 7.92-1.49c7.45-0.01 12.81 4.01 14.71 11.04c0.24 0.89 0.42 1.78 0.56 2.74c0.2 1.44 0.27 2.88 0.2 4.31c0.07 3.43-0.03 8.3-0.88 12.48c1.03-0.11 2.05-0.16 3.07-0.16c4.79 0 9.38 1.09 13.63 3.27c6.54 3.35 11.85 8.71 16.98 13.89c5.67 5.72 11.52 11.64 19.12 14.97l0.23 0.1l0.25-0.04c0.02 0 0.06-0.01 0.09-0.01c0.06 0 0.12 0.02 0.17 0.03l0.44 0.16l0.38-0.29c1.32-1 2.65-1.54 3.84-1.54c0.6 0 1.19 0.14 1.75 0.4c1.38 0.65 2.51 2.27 2.74 3.92c0.11 0.75 0.31 3.27-1.58 4.3z" />
			<path id="&lt;Path&gt;" class="s1" d="m372.72 130c-0.61 0.33-1.26 0.5-2.02 0.5c-6.53 0.01-7.85-9.11-0.9-9.12c0.6 0 1.19 0.14 1.75 0.4c1.38 0.65 2.51 2.27 2.74 3.92c0.11 0.75 0.31 3.27-1.58 4.3z" />
			<path id="&lt;Path&gt;" class="s0" d="m134.76 213.85c-16.34 19.47-23.89 37.84-22.47 54.63c0.7 8.28 5 17.74 15 19.48c1.03 0.18 2.09 0.27 3.17 0.27c5.89-0.01 12.31-2.77 19.08-8.23c10.63-8.56 20.57-20.64 29.53-35.91l0.08-0.16c0.97 5.17-1.89 9.44 4.82 22.35l-0.45 0.43c-3.89 3.55-7.54 7.47-11.08 11.26c-5.18 5.57-10.55 11.33-16.72 15.96c-8.5 6.37-18.47 9.87-28.06 9.88c-1.83 0-3.67-0.12-5.46-0.36c-19.57-2.67-24-22.23-24.99-30.51c-2.25-18.72 3.78-37.3 17.43-53.72c8.53-10.27 18.73-19.27 28.58-27.96c6.65-5.87 13.52-11.92 19.84-18.33c5.83-5.9 10.45-10.9 14.55-15.69c0.54-0.61 1.06-1.22 1.6-1.83c3.82-4.41 7.75-8.95 10.18-14.3c5.38-11.91 2.93-24.67 0.76-35.93c-0.04-0.15 0-0.27 0.08-0.38c0.11-0.13 0.29-0.21 0.48-0.21c0.15 0 0.21 0.06 0.25 0.24c0.43 1.71 0.65 2.59 0.66 2.62c4.24 12.58 5.53 22.41 2.95 31.94c-2.21 8.14-6.64 16.2-13.57 24.65c-7.4 9.04-15.75 17.54-23.82 25.77c-7.56 7.7-15.37 15.65-22.42 24.05z" />
			<path id="&lt;Path&gt;" class="s1" d="m328.5 108.3c1.82 2.64 1.79 5.83-0.06 7.11c-1.86 1.28-4.84 0.17-6.66-2.47c-1.82-2.65-1.79-5.83 0.06-7.11c1.86-1.28 4.84-0.18 6.67 2.47z" />
		</g>
	</g>
</svg>