<svg version="1.2" baseProfile="tiny-ps" xmlns="http://www.w3.org/2000/svg" viewBox="0 0 490 410" width="490" height="410">
	<title>chinese zodiac (1)-ai</title>
	<style>
		tspan { white-space:pre }
		.s0 { fill: #000000 } 
		.s1 { fill: #ff0000 } 
	</style>
	<g id="Layer 1">
		<g id="&lt;Group&gt;">
			<path id="&lt;Path&gt;" class="s0" d="m363.45 110.9c-0.06 0.34-0.13 0.69-0.2 1.03c-0.04 0.17-0.08 0.34-0.12 0.51c-0.01 0.07-0.04 0.13-0.06 0.2c-0.04 0.15-0.08 0.29-0.12 0.44c-0.04 0.13-0.07 0.25-0.11 0.36c-0.05 0.17-0.1 0.34-0.16 0.51c-0.11 0.34-0.22 0.66-0.35 0.99c-0.13 0.32-0.25 0.65-0.39 0.97c-0.45 1.09-0.97 2.16-1.51 3.22c-1.39 2.73-3.05 5.3-4.8 7.82c-0.92 1.33-1.88 2.64-2.79 3.97c-1.72 2.5-3.74 4.73-5.3 7.34c-2.56 4.31-4.36 9.14-4.88 14.14c-0.38 3.61 0.19 7.21 0.46 10.82c0.1 1.17 0.15 2.34 0.14 3.52c-0.03 2.67-0.01 5.34 0.03 8.01c0.34 17.46 4.13 44.88-9.27 68.17c-1.88 4.63-5.27 8.6-9.03 12.1c-0.31 0.32-0.61 0.64-0.92 0.95c-6.47 6.72-14.69 12.96-24.66 18.71c-0.35 0.21-0.71 0.41-1.06 0.6c-0.7 0.4-1.41 0.79-2.13 1.18c-0.13 0.07-0.25 0.85-0.29 1c-0.18 0.62-0.36 1.25-0.55 1.88c0 0.01 0 0.01-0.01 0.02c-0.14 0.48-0.29 0.97-0.44 1.45c-0.36 1.15-0.74 2.29-1.14 3.42c-0.32 0.89-0.64 1.77-0.99 2.64v0.01c-0.25 0.61-0.5 1.21-0.76 1.8c-0.39 0.9-0.8 1.77-1.25 2.64c-0.15 0.28-0.29 0.57-0.45 0.85c-0.46 0.85-0.94 1.67-1.45 2.47c-0.16 0.25-0.33 0.51-0.5 0.76c-0.78 1.15-1.64 2.26-2.56 3.28c-0.15 0.17-0.32 0.35-0.48 0.53c-0.18 0.19-0.36 0.38-0.55 0.56c-0.15 0.15-0.29 0.29-0.45 0.43c-0.48 0.46-0.98 0.9-1.51 1.31c-0.62 0.48-1.27 0.92-1.95 1.31c-0.25 0.14-0.5 0.28-0.76 0.41c-1.47 0.74-3.05 1.27-4.68 1.58c-0.86 0.17-1.75 0.27-2.63 0.29h-0.16c-2.66 0.01-5.26-1.2-7.54-2.44c-0.1-0.06-1.33 0.83-1.5 0.92c-0.55 0.31-1.12 0.59-1.7 0.85c-2.33 1.06-4.79 1.66-7.27 2.21c-0.69 0.15-1.39 0.34-2.09 0.46c-0.16 0.03-0.32 0.06-0.49 0.08c-0.09 0.01-0.17 0.03-0.27 0.03c-0.14 0.02-0.28 0.03-0.42 0.04c-0.11 0.01-0.23 0.01-0.34 0.01c-0.42 0.01-0.85 0.01-1.27 0.03c-0.52 0.02-1.02-0.08-1.53-0.13c-1.38-0.13-2.82-0.52-4.08-1.11c-0.37-0.17-0.72-0.35-1.07-0.54c-0.56-0.31-1.1-0.66-1.62-1.03c-0.4-0.3-0.78-0.6-1.16-0.93c-0.54-0.58-1.16-1.24-1.88-1.99c-0.04-0.04-0.08-0.09-0.12-0.13c-0.03-0.04-0.08-0.09-0.11-0.13c-0.31-0.39-0.64-0.77-0.96-1.16c-0.07-0.09-0.13-0.16-0.19-0.25c-0.16-0.21-0.31-0.42-0.47-0.64c-0.01-0.01-0.03-0.04-0.05-0.06c-0.17-0.25-0.34-0.51-0.52-0.76c-0.04-0.05-0.07-0.1-0.1-0.15c-0.27-0.41-0.54-0.83-0.8-1.26c-0.26-0.42-0.51-0.85-0.76-1.29c-0.07-0.13-0.14-0.26-0.22-0.38c-0.26-0.47-0.51-0.95-0.76-1.43c-0.13-0.25-0.26-0.5-0.39-0.76c-0.5-0.97-0.97-1.93-1.42-2.88c-0.27-0.57-0.55-1.13-0.82-1.69c-0.15-0.32-0.31-0.62-0.45-0.93c-0.83-1.68-10-3.79-11.97-4.67c-9.24-4.09-16.37-11.5-23.72-18.22c-6.55-5.99-14.15-13.11-23.6-13.11c-4.69 0-14.37 3.49-15.68-2.99c-0.97-4.82 6.06-11.74 8.23-15.63c-8.77-3.49-20.14 1.41-28.42 2.79c-0.2-11.81 5.33-15.88 13.29-24.04c-3.67-5.69-23.57 1.72-28.53 3.38c-0.01-0.5 0.1-1.47 0.02-1.91c-1.27-6.99 12.21-13.91 16.73-16.63c1.96-1.18 9.73-3.66 9.76-6.48c0.08-8.48-14.46-7.12-19.6-6.32c-1.71 0.27-3.43 0.66-5.11 1.19c-1.85 0.57-3.65 1.33-5.32 2.25c-0.31 0.18-0.91 0.48-1.6 0.85c-0.15 0.08-0.31 0.17-0.48 0.27c-0.65 0.36-1.34 0.78-1.95 1.21c-0.15 0.11-0.3 0.22-0.44 0.33c-0.13 0.1-0.26 0.22-0.39 0.33c-0.13 0.1-0.24 0.22-0.34 0.33c-0.11 0.11-0.2 0.22-0.27 0.32c-0.08 0.11-0.14 0.22-0.19 0.32c-0.06 0.11-0.09 0.2-0.11 0.31c-0.01 0.05-0.01 0.1-0.01 0.15c-0.38-5.05 1.55-9.95 4.65-14.1c0.27-0.37 0.56-0.74 0.85-1.09c0.64-0.79 1.34-1.55 2.07-2.27c0.1-0.11 0.22-0.22 0.33-0.32c2.23-2.18 4.76-4 7.33-5.34c15.24-7.97 31.95-4.26 46.26 3.86c3.15 1.79 6.2 3.76 9.16 5.85c3.95 2.79 7.75 5.81 11.45 8.91c4.02 3.38 7.21 7.64 11.48 10.76c0.35 0.25 0.69 0.48 1.03 0.69c5.17 3.23 9.17 1.54 15.17-0.3c7.51-2.3 14.75-5.27 21.88-8.49c22.58-8.87 52.27-22.71 58.92-37.97c3.17-4.96 5.45-11.7 6.84-20.22c0.47-2.89 0.77-5.34 0.95-7.4c0.08-0.5 0.16-1.01 0.25-1.51c0.07-0.43 0.15-0.86 0.23-1.29c0.01-0.04 0.01-0.08 0.02-0.13c0.08-0.38 0.15-0.77 0.22-1.16c0.02-0.08 0.03-0.17 0.05-0.25c0.11-0.56 0.23-1.12 0.36-1.68c0.07-0.31 0.14-0.62 0.22-0.94c0.01-0.06 0.03-0.12 0.04-0.17c0.74-2.99 1.74-5.9 3.01-8.69c0.01-0.01 0.01-0.03 0.02-0.05c0.69-1.5 1.46-2.96 2.31-4.37c0.11-0.17 0.21-0.35 0.33-0.52c5.17-8.18 14.33-13.34 23.91-14.66h0.01c0.4-0.06 0.8-0.11 1.2-0.15c0.24-0.03 0.48-0.06 0.71-0.07c0.01-0.01 0.02-0.01 0.04 0c0.26-0.02 0.52-0.04 0.78-0.06c1.87-0.11 3.74-0.08 5.59 0.11c0.32 0.03 0.64 0.07 0.97 0.11c0.8 0.1 1.61 0.25 2.42 0.41c2.04 0.43 3.64 1.06 5.1 2.07c0.92 0.62 1.79 1.4 2.69 2.36c1.24 1.34 2.43 3 3.04 4.67c0.28 0.77 0.51 1.53 0.7 2.28c0.41 1.6 0.63 3.19 0.68 4.79c0.05 1.79-0.09 3.61-0.41 5.5z" />
			<path id="&lt;Path&gt;" class="s0" d="m378.54 91.79l-15.36 8.83c-0.19-0.75-0.42-1.51-0.7-2.28c-0.61-1.66-1.8-3.32-3.04-4.67c-0.9-0.96-1.77-1.74-2.69-2.36l17.37-9.52l-10.58 12.32l15-2.33z" />
			<path id="&lt;Path&gt;" class="s1" d="m355.97 176.47c-7.51-1.08-11.01-6.88-12.86-13.24c-0.27-3.61-0.83-7.21-0.46-10.82c0.52-5 2.32-9.83 4.88-14.14c1.55-2.6 3.58-4.84 5.3-7.34c0.92-1.33 1.88-2.64 2.79-3.97c1.74-2.52 3.41-5.09 4.8-7.82c-1.49 2.95-3.15 5.85-4.16 9c-1.74 5.47-1.85 12.01-0.55 17.59c1.5 6.48 8.1 10.24 10.1 16.46c2.51 7.79-0.83 15.57-9.84 14.28z" />
			<path id="&lt;Path&gt;" class="s1" d="m344.67 102.33c0 1.54-1.25 2.78-2.78 2.78c-1.54 0-2.78-1.25-2.78-2.78c0-1.54 1.25-2.78 2.78-2.78c1.54 0 2.78 1.25 2.78 2.78z" />
			<path id="&lt;Path&gt;" class="s1" d="m315.69 214.34c-1.74 6.36-6.84 13.09-11.71 17.35c-4.68 4.09-10.57 7.45-16.17 10.07c-4.86 2.27-9.82 4.29-14.9 6.01c-17.58 5.94-37.52 8.93-55.26 1.92c-2.88-1.14-18.81-8.24-14.1-13.41c1.04-1.14 4.56-2.21 5.99-2.87c2.08-0.95 4.29-1.55 6.39-2.44c2.61-1.11 5.3-2.33 7.84-3.57c0.21-0.1 0.42-0.22 0.65-0.34c-1.97-0.1-3.94-0.27-5.94-0.37c-3.16-0.16-10.72 0.26-6.43-4.89c1.99-2.38 6.59-4.3 9.48-5.81c5.98-3.11 11.96-6.21 17.99-9.21c11.01-5.48 22.17-10.73 33.66-15.15c9.29-3.58 22.49-10.18 32.69-8.04c6.43 1.35 9.53 6.84 10.68 13.15c1.11 6.1 0.41 12.96-0.87 17.61z" />
			<path id="&lt;Path&gt;" class="s1" d="m339.94 88.9h-0.01c-9.58 1.32-18.74 6.48-23.91 14.66c-6.69 2.28-13.83 5.58-20.97 6.35c-5.81 0.62-9.18 1.64-13.86-2.15c-3.6-2.91-6.17-6.38-6.81-11.07c-1.18-8.66 4.01-14.21 12.04-16.36c2.75-0.73 9.58-0.45 11.01 2.95c-1.13-7.09-3.58-19.3 8.45-18.65c5.55 0.29 11.36 5.88 12.4 11.37c0.69-4.66 2.02-9.52 5.2-12.97c3.49-3.79 12.76-5.41 16.75-2.21c9.57 7.67 3.42 19.1-0.27 28.09z" />
			<path id="&lt;Path&gt;" class="s1" d="m248.8 345.46l-2.63-0.41l5.76 4.9v0.01l1.02 0.87l-1.01-0.5l-14.87-7.38l-11.74-0.06l9.85-2.87l0.53-0.16l7.35-34.35c0.35 0.19 0.71 0.37 1.07 0.54c1.26 0.58 2.7 0.97 4.08 1.11c0.52 0.05 1.01 0.16 1.53 0.13c0.43-0.01 0.86-0.01 1.27-0.03l-9.74 32.64l1.92 0.26l5.22 0.72l8.89 1.23l-9.86 1.58l9.01 2.95l-7.67-1.2z" />
			<path id="&lt;Path&gt;" class="s1" d="m295.07 345.13l-1.01-0.06l7.31 5.08l-16.57-6.29l-11.69 1.09l7.49-3.01l1.97-0.79l-9.92-36.06h0.16c0.88-0.02 1.76-0.12 2.63-0.29c1.63-0.32 3.21-0.84 4.68-1.58l0.04 0.15c0.12 0.75 0.27 1.49 0.45 2.21l0.02 0.1l7.08 34.69l1.91 0.07l7.6 0.31l7.65 0.3l-9.65 2.54l9.26 2.05l-9.4-0.53z" />
		</g>
	</g>
</svg>