<svg version="1.2" baseProfile="tiny-ps" xmlns="http://www.w3.org/2000/svg" viewBox="0 0 490 410" width="490" height="410">
	<title>chinese zodiac (1)-ai</title>
	<style>
		tspan { white-space:pre }
		.s0 { fill: #000000 } 
		.s1 { fill: #ff0000 } 
	</style>
	<g id="Layer 1">
		<g id="&lt;Group&gt;">
			<path id="&lt;Path&gt;" class="s0" d="m395.99 182.86c-0.15 0.06-0.29 0.14-0.44 0.22c-3.24 1.75-4.72 4.16-6.35 7.29c-1.57 3.02-2.86 6.04-3.86 9.24c-0.64 2.05-2.03 4.89-2.24 7.47c-0.72-0.15-1.48-0.38-2.27-0.7c-2.4-0.95-4.74-2.02-7.06-3.18c-0.97-0.49-1.94-0.98-2.9-1.5c-3.57-1.89-7.05-3.95-10.49-6.05c-0.14-0.09-0.27-0.17-0.41-0.26h-0.01c-0.95-0.59-1.9-1.17-2.85-1.75c-5.28-3.27-12.37-5.56-18.56-5.64h-0.3c-0.47 0.2-0.98 0.35-1.53 0.47c-4.46 0.96-7.97 12.72-7.14 21.9c0.17 2.05 0.56 3.97 1.21 5.61c2.23 5.66 7.36 20.08 10.99 32.22c2.15 7.21 3.78 13.61 3.96 16.88c0.32 5.89-4.89 17.91-8.34 25.16c-0.2 0.42-0.39 0.81-0.57 1.2c-0.91 1.87-1.64 3.32-2.04 4.1c-0.1 0.2-0.19 0.36-0.24 0.47c-0.05 0.09-0.08 0.15-0.1 0.2c-1.32-1.53-2.45-2.37-3.4-2.53c-1.34-0.23-4.59 0.89-5 1.08c0.14-0.56 0.34-1.37 0.57-2.36c0.07-0.27 0.13-0.56 0.2-0.85c0.04-0.17 0.09-0.36 0.13-0.55c0.07-0.29 0.14-0.59 0.21-0.89c0.06-0.26 0.13-0.51 0.19-0.79c0.01-0.08 0.04-0.16 0.05-0.23c0.07-0.28 0.13-0.57 0.2-0.87c1.85-8.01 4.46-20.12 4.31-24.13c-0.24-6.16-16.62-17-18.76-18.19c-1.23-0.68-10.25-8.14-12.4-13.92c-11.83 12.92-25.4 23.18-42.11 32.78c-9.67 5.56-19.54 10.55-29.68 14.63c-5.96 2.41-12.03 4.5-18.2 6.21c-4.05 7.23-10.32 18.09-13.84 24.17c-0.86 1.47-1.56 2.66-2.02 3.44c-3.08 5.22-4.98 19.45-4.74 24.67c0.14 3.08 0.28 8.73 0.37 12.84c0.04 1.89 0.08 3.54 0.1 4.95c-2.68-0.74-4.42-1.1-5.2-1.1c-1.19 0-3.81 3.71-4.52 1.57c-0.19-0.56-0.88-2.33-1.86-4.77c-2.76-6.87-7.84-18.96-10.47-23.68c-3.55-6.41 4.03-16.61 2.61-22.3c-1.42-5.7-11.51-14.07-16.08-20.02c-0.95-1.24-4.04-6.29-4.77-7.66c-2.2-4.11-4.05-8.41-5.39-12.87c-0.85-2.8-1.49-5.67-1.89-8.58c-0.23-1.69-0.39-3.38-0.47-5.08c-0.01-0.13-0.01-0.27-0.02-0.4c-0.24-6.17 0.49-12.37 1.71-18.41c1.64-8.19 4.46-16.12 8.15-23.6c3.72-7.54 8.32-14.64 13.51-21.25c5.17-6.59 10.94-12.71 17.13-18.34c11.72-10.68 25.25-21.48 40.11-27.38c15.95-6.33 30.6-9.31 44.47-20.11c23.05-17.95 56.84-39.47 82.06-11.51c10.12 11.23 13.02 27.16 19.66 40.35c4.37 8.69 9.59 17.4 16.86 23.98c2.46 2.21 6.99 4.99 9.79 8.34z" />
			<path id="&lt;Path&gt;" class="s1" d="m401.77 201.58c-2.79 3.07-14.44 15.52-18.14 8.54c-0.49-0.91-0.61-1.95-0.52-3.04c0.2-2.57 1.6-5.42 2.24-7.47c1-3.2 2.29-6.22 3.86-9.24c1.63-3.13 3.11-5.53 6.35-7.29c0.15-0.08 0.29-0.16 0.44-0.22c4.6-2.23 8.95-0.29 10.68 4.58c1.89 5.3-1.48 10.39-4.9 14.14z" />
			<path id="&lt;Path&gt;" class="s0" d="m222.91 349.17c0.14 1.95 0.26 3.58 0.36 4.88c-2.29-1.04-3.89-1.67-4.8-1.87c0 0 0 0-0.01 0c-0.14-0.03-0.26-0.05-0.34-0.05c-0.28 0-0.72 0.17-1.19 0.41c-0.74 0.37-1.55 0.87-2.42 1.5c-0.43-1.16-0.99-2.65-1.66-4.45c-2.98-7.98-9.15-24.32-11.31-29.02c-1.28-2.76-2.89-6.59-4.62-10.79c3.53-6.07 9.79-16.94 13.84-24.17c6.18-1.71 12.24-3.8 18.2-6.21c-3.29 13.84-8.34 40.5-7.97 44.73c0.34 3.91 1.36 17.6 1.92 25.03z" />
			<path id="&lt;Path&gt;" class="s0" d="m375.89 267.32c-0.16 0.48-2.38 0.92-6.66 1.32l-2.14 3.08l-3.5-5.15l-1.01-1.49c-6.48-7.75-10.67-12.02-12.57-12.81c-0.67-0.28-3.79-1.84-8.22-4.07c-3.63-12.14-8.76-26.56-10.99-32.22c-0.65-1.64-1.04-3.56-1.21-5.61c10.02 9.13 22 20 23.51 21.51c1.97 1.96 14.01 20.64 19.75 30.06c1.89 3.1 3.1 5.2 3.04 5.38z" />
			<path id="&lt;Path&gt;" class="s0" d="m353.1 97.16c-0.47 7.59-13.99 23-21.82 28.46l-21.82-2.37c-2.61-6.64-12.1-22.53-9.96-25.85c2.14-3.32 33.68-22.77 44.12-41.74c10.44-18.97 9.96 33.92 9.49 41.51z" />
			<path id="&lt;Path&gt;" class="s0" d="m331.3 98.15l-35.07 5.05c-3.65-4.63-7.84-10.5-6.93-12.92c1.42-3.8 25.14-19.68 28.7-29.65c3.55-9.96 8.77 7.83 12.09 21.58c1.15 4.76 1.39 10.48 1.21 15.93z" />
			<path id="&lt;Path&gt;" class="s1" d="m370.88 201.71c-3.57-1.89-7.05-3.95-10.49-6.05c-0.14-0.09-0.27-0.17-0.41-0.26c5.11-2.88 11.49-7.72 10.43-20.92c0-3.16 0.87-3.01 2.61 0.47c2.25 4.5 5.78 16.42-2.14 26.76z" />
			<g id="&lt;Group&gt;">
				<path id="&lt;Compound Path&gt;" fill-rule="evenodd" class="s1" d="m143.03 256.27c-0.69 0-1.39 0-2.11-0.01c-4.9-0.05-10.47-0.09-15.67 0.73c2.25 1.74 4.04 4.01 5.3 6.77c3.74 8.22 1.49 18.54-5.02 23.02c-3.66 2.52-7.04 3.36-9.93 3.36c-2.14 0-3.99-0.46-5.49-1.03c-5.24-2.01-8.83-6.61-9.67-10.11c-1.28-5.38-0.81-13.12 7.97-20.5c-1.54 0.19-3.16 0.49-4.85 0.93c-5.08 1.31-12.71 6.24-16.87 12.8c-0.81 1.28-2.5 1.66-3.78 0.85c-1.28-0.81-1.66-2.5-0.85-3.78c5.2-8.21 14.08-13.62 20.13-15.18c5.56-1.43 10.63-1.65 14.98-0.75c7.55-2.73 16.37-2.66 23.8-2.59c0.53 0.01 1.07 0.01 1.58 0.01c0.01 0.13 0.01 0.27 0.02 0.4c0.08 1.7 0.23 3.39 0.47 5.08zm-25.47 2.85c-1.29 0.55-2.51 1.23-3.62 2.03c-6.88 4.91-9.63 10.49-8.18 16.59c0.41 1.71 2.69 4.88 6.3 6.27c3.34 1.29 6.82 0.71 10.36-1.72c4.27-2.95 5.73-10.53 3.14-16.24c-1.57-3.44-4.32-5.78-8-6.92z" />
			</g>
			<path id="&lt;Path&gt;" class="s1" d="m353.6 147.27c0 1.53-1.24 2.78-2.77 2.78c-1.53 0-2.78-1.24-2.78-2.78c0-1.53 1.24-2.77 2.78-2.77c1.53 0 2.77 1.24 2.77 2.77z" />
			<path id="&lt;Path&gt;" class="s0" d="m394.06 196.87c-0.99 1.88-2.47 3.05-3.31 2.6c-0.84-0.44-0.73-2.32 0.26-4.2c0.99-1.88 2.47-3.05 3.31-2.61c0.84 0.44 0.72 2.32-0.26 4.21z" />
			<path id="&lt;Path&gt;" class="s0" d="m398.75 200.95c-1.27 1.7-2.92 2.62-3.68 2.05c-0.76-0.57-0.35-2.41 0.92-4.11c1.27-1.7 2.92-2.62 3.68-2.05c0.76 0.57 0.35 2.41-0.92 4.11z" />
			<path id="&lt;Path&gt;" class="s1" d="m190.63 355.69c-2.68-0.74-4.42-1.1-5.2-1.1c-1.19 0-3.81 3.71-4.52 1.57c-0.19-0.56-0.88-2.33-1.86-4.77l11.49-0.64c0.04 1.89 0.08 3.54 0.1 4.95z" />
			<path id="&lt;Path&gt;" class="s1" d="m223.27 354.05c-2.29-1.04-3.89-1.67-4.8-1.87c0 0 0 0-0.01 0c-0.14-0.03-0.26-0.05-0.34-0.05c-0.28 0-0.72 0.17-1.19 0.41c-0.74 0.37-1.55 0.87-2.42 1.5c-0.43-1.16-0.99-2.65-1.66-4.45l10.06-0.43c0.14 1.95 0.26 3.58 0.36 4.88z" />
			<path id="&lt;Path&gt;" class="s1" d="m336.83 291.44c-0.91 1.87-1.64 3.32-2.04 4.1c-0.05 0.1-0.1 0.2-0.14 0.27c-0.04 0.08-0.07 0.14-0.1 0.2c-0.05 0.09-0.08 0.15-0.1 0.2c-1.32-1.53-2.45-2.37-3.4-2.53c-1.34-0.23-4.59 0.89-5 1.08l0.4-1.65c0.05-0.21 0.11-0.45 0.17-0.7c0.06-0.26 0.13-0.55 0.2-0.85c0.04-0.17 0.09-0.36 0.13-0.55c0.07-0.28 0.14-0.58 0.21-0.89c0.06-0.25 0.13-0.51 0.19-0.79c0.01-0.08 0.04-0.16 0.05-0.23l9.43 2.36z" />
			<path id="&lt;Path&gt;" class="s1" d="m375.89 267.32c-0.16 0.48-2.38 0.92-6.66 1.32l-2.14 3.08l-2.61-3.84l9.08-4.77c1.49 2.45 2.39 4.05 2.33 4.21z" />
		</g>
	</g>
</svg>